G04 ================== begin FILE IDENTIFICATION RECORD ==================*
G04 Layout Name:  E:/Ó²¼þ/W600/arduino/SCH&PCB/PCB_V1.1/Arduino_board_2.brd*
G04 Film Name:    BOTTOM*
G04 File Format:  Gerber RS274X*
G04 File Origin:  Cadence Allegro 16.6-P004*
G04 Origin Date:  Fri Sep 28 20:25:14 2018*
G04 *
G04 Layer:  VIA CLASS/BOTTOM*
G04 Layer:  PIN/BOTTOM*
G04 Layer:  ETCH/BOTTOM*
G04 Layer:  BOARD GEOMETRY/OUTLINE*
G04 *
G04 Offset:    (0.0000 0.0000)*
G04 Mirror:    No*
G04 Mode:      Positive*
G04 Rotation:  0*
G04 FullContactRelief:  No*
G04 UndefLineWidth:     0.1524*
G04 ================== end FILE IDENTIFICATION RECORD ====================*
%FSLAX25Y25*MOIN*%
%IR0*IPPOS*OFA0.00000B0.00000*MIA0B0*SFA1.00000B1.00000*%
%ADD16C,.031496*%
%ADD14C,.02*%
%ADD11C,.016*%
%ADD15O,.03937X.059055*%
%ADD17C,.03937*%
%ADD10C,.07874*%
%ADD12C,.066929*%
%ADD13R,.066929X.066929*%
%ADD18C,.003937*%
%ADD19C,.015748*%
%ADD20C,.019685*%
%ADD21C,.005*%
%ADD22C,.002*%
%ADD26C,.047512*%
%ADD24C,.106567*%
%ADD23C,.076945*%
%ADD25R,.076945X.076945*%
G75*
%LPD*%
G75*
G36*
G01X-8285Y-41599D02*
G03Y-36039I4545J2780D01*
G02X-9016Y-35833I-336J206D01*
G01Y-7126D01*
X-2165Y-276D01*
X-945D01*
X-866Y-354D01*
X218504D01*
X227441Y-9291D01*
Y-189882D01*
X226772Y-190551D01*
X-7677D01*
X-9016Y-189213D01*
Y-41805D01*
G02X-8285Y-41599I394J0D01*
G37*
%LPC*%
G75*
G36*
G01X201096Y-75722D02*
G03X200873Y-75003I-222J325D01*
G01X195385D01*
G03X195192Y-75741I0J-394D01*
G02X191422I-1885J-3354D01*
G03X191230Y-75003I-193J344D01*
G01X158508D01*
X156493Y-72988D01*
Y-66728D01*
X155302Y-65537D01*
X155209Y-65546D01*
G02X153808Y-64530I-130J1294D01*
G03X153144Y-64335I-385J-84D01*
G01X152831Y-64648D01*
G03X153019Y-65309I279J-279D01*
G02X153507Y-67608I-302J-1265D01*
G01Y-102878D01*
X154541Y-103912D01*
X154634Y-103903D01*
G02X153470Y-105067I130J-1294D01*
G01X153479Y-104974D01*
X152005Y-103500D01*
Y-67664D01*
G02X151451Y-66877I711J1089D01*
G03X150789Y-66690I-383J-92D01*
G01X149885Y-67594D01*
Y-77206D01*
G02X148383I-751J-1062D01*
G01Y-67685D01*
G03X147710Y-67407I-394J0D01*
G01X142798Y-72319D01*
Y-75080D01*
G02X141296I-751J-1062D01*
G01Y-71697D01*
X153619Y-59374D01*
Y-57043D01*
G03X152933Y-56778I-394J0D01*
G02X152719Y-56968I-964J873D01*
G01Y-58579D01*
X137989Y-73309D01*
X138009Y-73412D01*
G02X136009Y-74743I-1277J-249D01*
G03X135396Y-75070I-219J-328D01*
G01Y-104492D01*
X135469Y-104564D01*
X148343D01*
X149502Y-105723D01*
X149594Y-105714D01*
G02X148430Y-106878I130J-1294D01*
G01X148440Y-106785D01*
X147720Y-106066D01*
X147062D01*
G03X146693Y-106596I0J-394D01*
G02X144410Y-107798I-1220J-451D01*
G01X126067D01*
X123580Y-105311D01*
Y-75944D01*
G02X125081I751J1062D01*
G01Y-104689D01*
X126689Y-106296D01*
X134126D01*
G03X134404Y-105624I0J394D01*
G01X133895Y-105114D01*
Y-66343D01*
X135713Y-64525D01*
X138820D01*
G02Y-66026I1062J-751D01*
G01X136335D01*
X135396Y-66965D01*
Y-72252D01*
G03X136009Y-72580I394J0D01*
G02X136732Y-72361I723J-1082D01*
G01X136814D01*
X151218Y-57957D01*
Y-56968D01*
G02X152933Y-55033I751J1062D01*
G03X153619Y-54769I292J264D01*
G01Y-52505D01*
G02X155471Y-50679I948J891D01*
G03X156139Y-50396I274J283D01*
G01Y-46114D01*
G02X157641Y-46002I672J1114D01*
G01Y-59839D01*
X155162Y-62317D01*
G03X155356Y-62981I279J-279D01*
G02X156373Y-64382I-278J-1271D01*
G01X156363Y-64475D01*
X157995Y-66106D01*
Y-72366D01*
X159130Y-73501D01*
X203185D01*
X204019Y-74335D01*
Y-75121D01*
X204169Y-75157D01*
G02X201096Y-75722I-902J-3740D01*
G37*
G36*
G01X191628Y-45437D02*
G03X191456Y-44688I-172J355D01*
G01X170512D01*
G03X170118Y-45063I0J-394D01*
G02X168949Y-43706I-1299J63D01*
G01X169042Y-43715D01*
X169571Y-43186D01*
X203106D01*
X204019Y-44098D01*
Y-45121D01*
X204169Y-45157D01*
G02X202366I-902J-3740D01*
G01X202517Y-45121D01*
Y-44720D01*
X202484Y-44688D01*
X195159D01*
G03X194987Y-45437I0J-394D01*
G02X189487Y-49350I-1680J-3461D01*
G01X189466Y-49176D01*
X159886D01*
X158777Y-48067D01*
Y-36141D01*
G02X160278I751J1062D01*
G01Y-47445D01*
X160508Y-47674D01*
X189659D01*
G02X191628Y-45437I3647J-1224D01*
G37*
G36*
G01X7635Y-64881D02*
G02X7697Y-64582I751J0D01*
G01X7714Y-64544D01*
Y-35155D01*
G02X9329Y-35589I1066J746D01*
G01X9215Y-35642D01*
Y-41035D01*
X17115D01*
Y-48729D01*
X9215D01*
Y-52736D01*
G03X9949Y-52935I394J0D01*
G02Y-56829I3319J-1947D01*
G03X9215Y-57028I-340J-199D01*
G01Y-62736D01*
G03X9949Y-62935I394J0D01*
G02X9528Y-65783I3318J-1947D01*
G01X9491Y-65633D01*
X9137D01*
Y-72876D01*
G03X9878Y-73062I394J0D01*
G02Y-76702I3390J-1820D01*
G03X9137Y-76888I-347J-186D01*
G01Y-82876D01*
G03X9878Y-83062I394J0D01*
G02Y-86702I3390J-1820D01*
G03X9137Y-86888I-347J-186D01*
G01Y-112876D01*
G03X9878Y-113062I394J0D01*
G02Y-116702I3390J-1820D01*
G03X9137Y-116888I-347J-186D01*
G01Y-131035D01*
X17115D01*
Y-138729D01*
X9137D01*
Y-142876D01*
G03X9878Y-143062I394J0D01*
G02Y-146702I3390J-1820D01*
G03X9137Y-146888I-347J-186D01*
G01Y-152876D01*
G03X9878Y-153062I394J0D01*
G02Y-156702I3390J-1820D01*
G03X9137Y-156888I-347J-186D01*
G01Y-162876D01*
G03X9878Y-163062I394J0D01*
G02Y-166702I3390J-1820D01*
G03X9137Y-166888I-347J-186D01*
G01Y-172876D01*
G03X9878Y-173062I394J0D01*
G02Y-176702I3390J-1820D01*
G03X9137Y-176888I-347J-186D01*
G01Y-184131D01*
X9491D01*
X9528Y-183980D01*
G02Y-185783I3740J-902D01*
G01X9491Y-185633D01*
X8429D01*
X7635Y-184839D01*
Y-64881D01*
G37*
G36*
G01X79610Y-62478D02*
X79708Y-62380D01*
X80642Y-61446D01*
X80619Y-61341D01*
G02X81924Y-62363I1271J278D01*
G01X81846Y-62365D01*
X80232Y-63979D01*
X68421D01*
X31459Y-100941D01*
Y-157909D01*
X26627Y-162742D01*
X26707Y-162875D01*
G02X25432Y-161600I-3282J-2007D01*
G01X25565Y-161681D01*
X29958Y-157287D01*
Y-100319D01*
X67799Y-62478D01*
X75112D01*
X75225Y-62127D01*
X75127Y-62042D01*
G02X74922Y-61814I858J978D01*
G01X67476D01*
X26821Y-102469D01*
G02X25759Y-101407I-3199J-2137D01*
G01X66854Y-60312D01*
X74922D01*
G02X77023Y-61846I1062J-751D01*
G03X77337Y-62478I315J-237D01*
G01X79610D01*
G37*
G36*
G01X108625Y-130039D02*
Y-182642D01*
X110508Y-184525D01*
X188476D01*
Y-181428D01*
X196170D01*
Y-189123D01*
X188476D01*
Y-186026D01*
X109886D01*
X107123Y-183264D01*
Y-130039D01*
G02X108625I751J1062D01*
G37*
G36*
G01X97137Y-132233D02*
X90576D01*
X86497Y-136311D01*
X86484Y-136366D01*
G02X85381Y-137469I-1445J342D01*
G01X85327Y-137481D01*
X72548Y-150261D01*
Y-164074D01*
X72554Y-164098D01*
G02X70064Y-165510I-1440J-362D01*
G01X69578Y-165024D01*
Y-149031D01*
X89346Y-129263D01*
X97137D01*
Y-112023D01*
X98753Y-110407D01*
G02X100853Y-112507I1050J-1050D01*
G01X100107Y-113253D01*
Y-117255D01*
X110356D01*
X110442Y-117341D01*
X186274D01*
X188243Y-119309D01*
X188850D01*
X190851Y-121310D01*
X196446D01*
Y-129005D01*
X188751D01*
Y-123410D01*
X187620Y-122280D01*
X187013D01*
X185044Y-120311D01*
X146229D01*
Y-153421D01*
G02X146866Y-154131I-1485J-1973D01*
G03X147543I339J202D01*
G02Y-156656I2122J-1263D01*
G03X146866I-339J-202D01*
G02X142622I-2122J1263D01*
G03X141945I-339J-202D01*
G02X137701I-2122J1263D01*
G03X137024I-339J-202D01*
G02Y-154131I-2122J1263D01*
G03X137701I339J202D01*
G02X141945I2122J-1263D01*
G03X142622I339J202D01*
G02X143259Y-153421I2122J-1263D01*
G01Y-120311D01*
X109212D01*
X109126Y-120225D01*
X100107D01*
Y-159709D01*
X93414Y-166402D01*
Y-176245D01*
X92585Y-177074D01*
G02X90444Y-175017I-1050J1050D01*
G01Y-165172D01*
X97137Y-158480D01*
Y-132233D01*
G37*
G36*
G01X115823Y-174525D02*
X188546D01*
X188583Y-174374D01*
G02Y-176177I3740J-902D01*
G01X188546Y-176026D01*
X115201D01*
X110470Y-171295D01*
Y-126102D01*
G02X111971I751J1062D01*
G01Y-170673D01*
X115823Y-174525D01*
G37*
G36*
G01X79044Y-70103D02*
Y-100803D01*
X79046Y-100816D01*
G02X76466I-1290J-169D01*
G01X76468Y-100803D01*
Y-70103D01*
X76466Y-70090D01*
G02X79046I1290J169D01*
G01X79044Y-70103D01*
G37*
G36*
G01X108178Y-10063D02*
Y-92575D01*
X108180Y-92587D01*
G02X105600I-1290J-169D01*
G01X105602Y-92575D01*
Y-10063D01*
X105600Y-10050D01*
G02X108180I1290J169D01*
G01X108178Y-10063D01*
G37*
G36*
G01X35548Y-44868D02*
G02X37050Y-45094I908J931D01*
G01Y-73072D01*
G02X35548I-751J-1062D01*
G01Y-44868D01*
G37*
G36*
G01X173224Y-35908D02*
X172322D01*
G02X172267Y-34334I-1062J751D01*
G01X172326Y-34407D01*
X172602D01*
X172674Y-34335D01*
Y-30175D01*
G03X172070Y-29841I-394J0D01*
G02X170627Y-27678I-693J1101D01*
G01Y-15280D01*
X172248Y-13659D01*
X200870D01*
X201111Y-13418D01*
G03X200833Y-12745I-279J279D01*
G01X199420D01*
Y-5050D01*
X207115D01*
Y-12745D01*
X203907D01*
X202201Y-14452D01*
G03X202553Y-15117I279J-279D01*
G02X203848Y-22701I715J-3780D01*
G01X203784Y-22711D01*
X201886Y-24609D01*
X174878D01*
X174176Y-25311D01*
Y-34957D01*
X173224Y-35908D01*
G37*
G36*
G01X167769Y-51347D02*
X167781Y-51405D01*
X169799Y-53422D01*
X203185D01*
X204019Y-54256D01*
Y-55121D01*
X204169Y-55157D01*
G02X205470Y-55743I-901J-3740D01*
G02X199844Y-57144I-2202J-3155D01*
G02X201206Y-55649I3424J-1754D01*
G03X200993Y-54924I-214J331D01*
G01X197154D01*
Y-62942D01*
X189460D01*
Y-54924D01*
X169177D01*
X167051Y-52797D01*
X166933Y-52839D01*
G02X167769Y-51347I-437J1225D01*
G37*
G36*
G01X167698Y-57334D02*
X167709Y-57395D01*
X173894Y-63580D01*
X202437D01*
X203972Y-65115D01*
X204030Y-65127D01*
G02X199954Y-66943I-763J-3771D01*
G02X201003Y-65787I3314J-1955D01*
G03X200762Y-65081I-241J312D01*
G01X195519D01*
G03X195311Y-65810I0J-394D01*
G02X195213Y-72436I-2004J-3284D01*
G02X189567Y-69996I-1906J3342D01*
G01X189531Y-69845D01*
X171264D01*
X166297Y-64879D01*
X166194Y-64899D01*
G02X167246Y-63622I-249J1277D01*
G01Y-63704D01*
X171886Y-68344D01*
X189531D01*
X189567Y-68193D01*
G02X190816Y-66163I3740J-901D01*
G02X191303Y-65810I2491J-2932D01*
G03X191095Y-65081I-208J335D01*
G01X173272D01*
X166944Y-58754D01*
X166829Y-58793D01*
G02X167698Y-57334I-412J1234D01*
G37*
G54D26*
X156890Y-13031D03*
X141142D03*
X74606D03*
X90354D03*
G54D24*
X221339Y-30866D03*
G54D23*
X193307Y-38898D03*
X203268Y-28898D03*
X193307D03*
X23425Y-184882D03*
Y-154882D03*
Y-144882D03*
X203268Y-184882D03*
Y-174882D03*
Y-98898D03*
Y-124882D03*
Y-154882D03*
Y-144882D03*
Y-134882D03*
Y-164882D03*
X193307Y-98622D03*
X192598Y-155157D03*
Y-145157D03*
Y-165157D03*
X23622Y-74606D03*
Y-84606D03*
Y-94606D03*
Y-114606D03*
X23425Y-174882D03*
X203268Y-88898D03*
G54D25*
Y-114882D03*
X193307Y-8898D03*
X23622Y-64606D03*
X23425Y-134882D03*
X193307Y-88622D03*
%LPD*%
G75*
G36*
G01X174256Y-23107D02*
X172674Y-24689D01*
Y-27723D01*
G02X172333Y-27857I-197J0D01*
G03X172129Y-27678I-955J-884D01*
G01Y-15902D01*
X172870Y-15160D01*
X190697D01*
G02X190940Y-15865I0J-394D01*
G03X191628Y-22359I2367J-3033D01*
G02X191456Y-23107I-172J-355D01*
G01X174256D01*
G37*
G36*
G01X200658Y-15160D02*
G02X200900Y-15865I0J-394D01*
G03X201400Y-22261I2367J-3033D01*
G02X201487Y-22884I-191J-345D01*
G01X201264Y-23107D01*
X195159D01*
G02X194987Y-22359I0J394D01*
G03X195674Y-15865I-1680J3461D01*
G02X195917Y-15160I242J311D01*
G01X200658D01*
G37*
G54D10*
X-591Y-226102D03*
X-3740Y-38819D03*
X202283Y-225787D03*
X221339Y-30866D03*
G54D20*
G01X85039Y-136024D02*
X84685D01*
X71063Y-149646D01*
Y-164409D01*
X71114Y-164460D01*
G01X98622Y-154567D02*
Y-159094D01*
X91929Y-165787D01*
Y-175630D01*
X91535Y-176024D01*
G01X98622Y-130748D02*
Y-154567D01*
G01X85039Y-136024D02*
Y-135669D01*
X89961Y-130748D01*
X98622D01*
G01Y-118740D02*
Y-130748D01*
G01Y-118740D02*
X109741D01*
X109827Y-118826D01*
X144055D01*
G01X99803Y-111457D02*
X98622Y-112638D01*
Y-118740D01*
G01X144744Y-155394D02*
Y-119515D01*
X144055Y-118826D01*
G01D02*
X185659D01*
X187628Y-120794D01*
X188235D01*
X192598Y-125157D01*
G54D11*
X-276Y-187756D03*
X-3937Y-185551D03*
X2047Y-184961D03*
X-4803Y-179764D03*
X1575Y-167717D03*
X-6142Y-144252D03*
X-5669Y-134449D03*
X1102Y-123819D03*
X-5551Y-125000D03*
X1575Y-119291D03*
X1693Y-109291D03*
X1890Y-101260D03*
Y-90866D03*
X1732Y-82953D03*
X2362Y-74803D03*
X2126Y-61142D03*
X1732Y-52402D03*
X-2795Y-27323D03*
X1693Y-42480D03*
X-4370Y-11102D03*
X-4134Y-21181D03*
X3268Y-1969D03*
X16614Y-189134D03*
X10039Y-189094D03*
X18150Y-181850D03*
X11417Y-179961D03*
X19409Y-188661D03*
X6142Y-188346D03*
X18740Y-178622D03*
X11024Y-170197D03*
X18386Y-163386D03*
X11654Y-160000D03*
X15000Y-159606D03*
X22362Y-150079D03*
X18504Y-152835D03*
X18268Y-143898D03*
X12559Y-149921D03*
X17008Y-28110D03*
X8780Y-34409D03*
X6457Y-25551D03*
X19488Y-25866D03*
X5866Y-13819D03*
X5512Y-19291D03*
X22165Y-4488D03*
X27992Y-181575D03*
X34055Y-188425D03*
X41102Y-185630D03*
X27480Y-178780D03*
X39528Y-165827D03*
X41693Y-175748D03*
X25512Y-159724D03*
X37205Y-134764D03*
X41063Y-134803D03*
X41457Y-127598D03*
X42008Y-108307D03*
X41063Y-120079D03*
X41535Y-99803D03*
X40079Y-67283D03*
X40945Y-82283D03*
X36299Y-74134D03*
X40669Y-61339D03*
X36457Y-43937D03*
X26654Y-25394D03*
X37165Y-25512D03*
X27283Y-13583D03*
X40827Y-13071D03*
X34094Y-25984D03*
X26378Y-19291D03*
X34803Y-5079D03*
X61181Y-184449D03*
X61732Y-188826D03*
X52795Y-189173D03*
X57795Y-184685D03*
X47638Y-181890D03*
X45000Y-165079D03*
X44646Y-160551D03*
X61614Y-175984D03*
X56732Y-175236D03*
X60276Y-171811D03*
X47244Y-170079D03*
X59449Y-165354D03*
X53543Y-169685D03*
X58622Y-168661D03*
X57756Y-147992D03*
X43976Y-153346D03*
X44528Y-148976D03*
X45906Y-145787D03*
X44803Y-156417D03*
X61417Y-152362D03*
X59646Y-131457D03*
X55984Y-131378D03*
X50000Y-131417D03*
X45433Y-131496D03*
X47717Y-134843D03*
X54882Y-134882D03*
X59921Y-134843D03*
X53110Y-127756D03*
X55787Y-119606D03*
X48189Y-115315D03*
X54843Y-112598D03*
X52559Y-103346D03*
X48425Y-96457D03*
X47795Y-90984D03*
X51181Y-85197D03*
X61024Y-88189D03*
X54134Y-93110D03*
X59646Y-97244D03*
X48898Y-67244D03*
X42913Y-75197D03*
X57717Y-65709D03*
X54724Y-81496D03*
X47638Y-75197D03*
X56102Y-62047D03*
X47323Y-61339D03*
X55157Y-35394D03*
X50315Y-34882D03*
X53031Y-42205D03*
X47835Y-24331D03*
X47244Y-19134D03*
X51142Y-26024D03*
X47008Y-4488D03*
X56299Y-5118D03*
X80787Y-188071D03*
X75787D03*
X78386Y-181181D03*
X69843Y-187480D03*
X69882Y-182756D03*
X66772Y-172559D03*
X78150Y-174291D03*
X75276Y-177047D03*
X72165Y-168465D03*
X71114Y-164460D03*
X79922Y-159177D03*
X65354Y-156693D03*
X74409Y-153346D03*
X77756Y-150787D03*
X80513Y-153469D03*
X77166Y-156028D03*
X69724Y-130276D03*
X63386Y-127756D03*
X73150Y-134724D03*
X65354Y-121260D03*
X78150Y-121063D03*
X74409Y-117323D03*
X77756Y-100984D03*
X66299Y-69449D03*
X77756Y-69922D03*
X75984Y-61063D03*
X66614Y-12598D03*
X62638Y-26811D03*
X78386Y-2795D03*
X93150Y-188543D03*
X89567Y-181969D03*
X83425Y-181496D03*
X88583Y-186614D03*
X99213D03*
X98425Y-179528D03*
X84370Y-171457D03*
X83701Y-167362D03*
X83072Y-161736D03*
X91535Y-176024D03*
X86024Y-159055D03*
X88780Y-156102D03*
X91732Y-153150D03*
X83071Y-156299D03*
X86614Y-153543D03*
X89370Y-150591D03*
X84055Y-145472D03*
X86812Y-148154D03*
X83662Y-150713D03*
X80906Y-148031D03*
X98622Y-154567D03*
X94488Y-135433D03*
X85039Y-136024D03*
X87992Y-120866D03*
X90945Y-103543D03*
X85433Y-104724D03*
X96063Y-100197D03*
X91929Y-87205D03*
X99409Y-83071D03*
X97244Y-75394D03*
X93110Y-82874D03*
X89370Y-66929D03*
X89764Y-72638D03*
X96260Y-83268D03*
X95472Y-67913D03*
X99409Y-50984D03*
X89370Y-51378D03*
Y-59252D03*
X95472Y-50591D03*
X97047Y-60433D03*
X81890Y-61063D03*
X92520Y-32677D03*
X99213Y-28740D03*
X87402Y-35433D03*
X91339Y-27165D03*
X87402Y-2874D03*
X107953Y-188976D03*
X117638Y-181378D03*
X105118Y-179134D03*
X103228Y-170591D03*
X103150Y-166929D03*
Y-174016D03*
X112205Y-177165D03*
X115354Y-168110D03*
X118150Y-154961D03*
X116339Y-157126D03*
X118110Y-143701D03*
X115354Y-154331D03*
X105433Y-122441D03*
X107874Y-128976D03*
X111220Y-125039D03*
X114409Y-105039D03*
X109055Y-106102D03*
X113386Y-116142D03*
X99803Y-111457D03*
X112795Y-90945D03*
X102362Y-100197D03*
X106693Y-99606D03*
X113189Y-85827D03*
X112402Y-95472D03*
X118110Y-90945D03*
X116732Y-97244D03*
X106890Y-92756D03*
X111969Y-69449D03*
X117520Y-75787D03*
X102953D03*
X101378Y-67323D03*
X117126Y-64370D03*
X116339Y-46654D03*
X114764Y-52756D03*
X102165Y-56890D03*
X112283Y-34764D03*
X101181Y-35039D03*
X118504Y-28740D03*
X100197Y-43701D03*
X111850Y-20276D03*
X111890Y-14016D03*
X111654Y-27205D03*
X106890Y-9882D03*
X113780Y-3701D03*
X135787Y-187992D03*
X128268Y-188189D03*
X135394Y-182205D03*
X121654Y-188504D03*
X128346Y-166929D03*
X121732Y-158031D03*
X119449Y-146496D03*
X131890Y-146654D03*
X126142Y-150906D03*
X125433Y-146732D03*
X127441Y-141850D03*
X129488Y-130000D03*
X121732Y-140630D03*
X124921Y-135984D03*
X136614Y-110433D03*
X127598Y-88543D03*
X118898Y-85236D03*
X127480Y-77441D03*
X129567Y-74252D03*
X137205Y-82677D03*
X127047Y-81496D03*
X122835Y-68110D03*
X124331Y-74882D03*
X136732Y-73661D03*
X121417Y-48150D03*
X133150Y-50236D03*
X128150Y-46850D03*
X126378Y-54724D03*
X125512Y-60866D03*
X118740Y-35866D03*
X132165Y-27874D03*
X122441Y-33071D03*
X127559Y-32283D03*
X119528Y-22598D03*
X123228Y-17323D03*
X126772Y-24803D03*
X125945Y-3819D03*
X150984Y-189213D03*
X142992Y-182126D03*
X152283Y-182165D03*
X151181Y-166299D03*
X138976Y-165748D03*
X155512Y-173228D03*
X140945Y-172835D03*
X146063Y-110630D03*
X149724Y-107008D03*
X154764Y-105197D03*
X145472Y-107047D03*
X155945Y-99843D03*
X156142Y-86929D03*
X144213Y-92638D03*
X141181Y-90118D03*
X138228Y-96693D03*
X142126Y-96378D03*
X148740Y-94567D03*
Y-88858D03*
X146339Y-89213D03*
X138268Y-77362D03*
X145787Y-73701D03*
X146614Y-83858D03*
X139882Y-65276D03*
X152717Y-66575D03*
X149134Y-78268D03*
X142047Y-76142D03*
X155079Y-64252D03*
X154567Y-51614D03*
X151969Y-55906D03*
X137677Y-26614D03*
X148228Y-4291D03*
X162520Y-188858D03*
X169882Y-188110D03*
X157520D03*
X161850Y-181339D03*
X175197Y-179921D03*
X168819Y-165157D03*
X170512Y-167283D03*
X164370Y-168150D03*
X163346Y-171535D03*
X161614Y-142992D03*
X163110Y-128189D03*
X169213Y-126063D03*
X168661Y-135354D03*
X163189Y-134370D03*
X159134Y-124331D03*
X158307Y-130315D03*
X157559Y-137677D03*
X162402Y-110079D03*
X170118Y-111102D03*
X164646Y-113425D03*
X161181Y-114685D03*
X157087Y-94488D03*
X162402Y-98661D03*
X161102Y-92047D03*
X160315Y-85472D03*
X167874Y-98976D03*
X166496Y-51614D03*
X166417Y-57559D03*
X165945Y-63622D03*
X171378Y-28740D03*
X171260Y-35157D03*
X159528Y-35079D03*
X168819Y-45000D03*
X156811D03*
X175354Y-16969D03*
X170118Y-2559D03*
X157677Y-4055D03*
X183780Y-188976D03*
X179291Y-189331D03*
X188346Y-110000D03*
X193110Y-112126D03*
X188740Y-118110D03*
X175787Y-112598D03*
X185472Y-91614D03*
X185354Y-82717D03*
X176220Y-83150D03*
X176063Y-20787D03*
X186811Y-22047D03*
X175827Y-2520D03*
X182638Y-2362D03*
X199370Y-180354D03*
X213268Y-188425D03*
X213386Y-177559D03*
X212638Y-168661D03*
X212874Y-124094D03*
X211496Y-100827D03*
X198504Y-91457D03*
X198386Y-87008D03*
X208976Y-91693D03*
X209882Y-88701D03*
X198386Y-66811D03*
X198150Y-71929D03*
X207874Y-72126D03*
X207953Y-66929D03*
X198622Y-61299D03*
X206496Y-54213D03*
X198504Y-51260D03*
X198622Y-46654D03*
X208346Y-41339D03*
X198543Y-40945D03*
X198898Y-36850D03*
X208701Y-27520D03*
X208465Y-31654D03*
X198504Y-30984D03*
X198543Y-17362D03*
X209882Y-21850D03*
X209961Y-17598D03*
X198504Y-26614D03*
X212323Y-2559D03*
X223583Y-184173D03*
X215236Y-182638D03*
X223346Y-166811D03*
X223701Y-176024D03*
X214764Y-151772D03*
X224528Y-122323D03*
X223583Y-128740D03*
X224291Y-137362D03*
X214921Y-138465D03*
X214803Y-129409D03*
X223858Y-113583D03*
X213661Y-114803D03*
X214567Y-108504D03*
Y-119961D03*
X224055Y-93858D03*
X217165Y-101299D03*
X223701Y-87283D03*
X223937Y-99409D03*
X214803Y-86535D03*
X214567Y-97047D03*
X222717Y-81890D03*
X214724Y-72953D03*
X214685Y-57402D03*
X224055Y-38937D03*
X223937Y-43150D03*
X214843Y-30630D03*
X214803Y-43622D03*
X214528Y-18937D03*
X214173Y-12205D03*
X218976Y-2992D03*
G54D21*
G01X13268Y-184882D02*
X8740D01*
X8386Y-184528D01*
Y-64882D01*
G01X23425Y-164882D02*
X30709Y-157598D01*
Y-100630D01*
X68110Y-63228D01*
X79921D01*
X81890Y-61260D01*
Y-61063D01*
G01X8780Y-34409D02*
X8465Y-34724D01*
Y-64803D01*
X8386Y-64882D01*
G01D02*
X13268D01*
G01X75984Y-61063D02*
X67165D01*
X23622Y-104606D01*
G01X36299Y-74134D02*
Y-44094D01*
X36457Y-43937D01*
G01X107874Y-128976D02*
Y-182953D01*
X110197Y-185276D01*
X192323D01*
G01Y-175276D02*
X115512D01*
X111220Y-170984D01*
Y-125039D01*
G01X149724Y-107008D02*
X148031Y-105315D01*
X135157D01*
X134646Y-104803D01*
Y-66654D01*
X136024Y-65276D01*
X139882D01*
G01X124331Y-74882D02*
Y-105000D01*
X126378Y-107047D01*
X145472D01*
G01X136732Y-73661D02*
X136890Y-73504D01*
Y-73346D01*
X151969Y-58268D01*
Y-55906D01*
G01X154764Y-105197D02*
X152756Y-103189D01*
Y-66614D01*
X152717Y-66575D01*
G01X149134Y-78268D02*
Y-67283D01*
X156890Y-59528D01*
Y-45079D01*
X156811Y-45000D01*
G01X142047Y-76142D02*
Y-72008D01*
X154370Y-59685D01*
Y-51811D01*
X154567Y-51614D01*
G01X155079Y-64252D02*
X157244Y-66417D01*
Y-72677D01*
X158819Y-74252D01*
X202874D01*
X203268Y-74646D01*
Y-78898D01*
G01X165945Y-63622D02*
X166102D01*
X171575Y-69094D01*
X193307D01*
G01Y-48898D02*
X192835Y-48425D01*
X160197D01*
X159528Y-47756D01*
Y-35079D01*
G01X166496Y-51614D02*
X166929D01*
X169488Y-54173D01*
X202874D01*
X203268Y-54567D01*
Y-58898D01*
G01X166417Y-57559D02*
X166457Y-57520D01*
X166772D01*
X173583Y-64331D01*
X202126D01*
X203268Y-65472D01*
Y-68898D01*
G01X171378Y-28740D02*
Y-15591D01*
X172559Y-14409D01*
X201181D01*
X203268Y-12323D01*
Y-8898D01*
G01Y-18898D02*
Y-22165D01*
X201575Y-23858D01*
X174567D01*
X173425Y-25000D01*
Y-34646D01*
X172913Y-35157D01*
X171260D01*
G01X168819Y-45000D02*
X169882Y-43937D01*
X202795D01*
X203268Y-44409D01*
Y-48898D01*
G54D12*
X13268Y-184882D03*
X23425D03*
X13268Y-164882D03*
Y-174882D03*
X23425Y-164882D03*
Y-174882D03*
X13268Y-154882D03*
Y-144882D03*
X23425Y-154882D03*
Y-144882D03*
X13268Y-104882D03*
Y-114882D03*
X23622Y-104606D03*
Y-114606D03*
X13268Y-84882D03*
Y-94882D03*
X23622Y-94606D03*
Y-84606D03*
X13268Y-64882D03*
Y-74882D03*
X23622Y-74606D03*
X13268Y-54882D03*
X192323Y-175276D03*
X192598Y-165157D03*
Y-155157D03*
Y-145157D03*
Y-135157D03*
X193307Y-98622D03*
Y-79094D03*
Y-69094D03*
Y-48898D03*
Y-38898D03*
Y-28898D03*
Y-18898D03*
X203268Y-184882D03*
Y-164882D03*
Y-174882D03*
Y-144882D03*
Y-154882D03*
Y-134882D03*
Y-124882D03*
Y-88898D03*
Y-98898D03*
Y-68898D03*
Y-78898D03*
Y-48898D03*
Y-58898D03*
Y-28898D03*
Y-38898D03*
Y-18898D03*
G54D22*
G01X53762Y-176554D02*
Y-175954D01*
G54D13*
X13268Y-134882D03*
X23425D03*
X23622Y-64606D03*
X13268Y-44882D03*
X192323Y-185276D03*
X192598Y-125157D03*
X193307Y-88622D03*
Y-59094D03*
Y-8898D03*
X203268Y-114882D03*
Y-8898D03*
G54D14*
X76220Y-165394D03*
G54D15*
X68406Y-17953D03*
Y-4370D03*
X96555Y-17953D03*
Y-4370D03*
X134941Y-17953D03*
Y-4370D03*
X163091Y-17953D03*
Y-4370D03*
G54D16*
X74606Y-13031D03*
X90354D03*
X156890D03*
X141142D03*
G54D17*
X134902Y-155394D03*
X149665D03*
X139823D03*
X144744D03*
G54D18*
G01X-10027Y-4267D02*
Y-232010D01*
G02X-10039Y-232039I-42J0D01*
G01X216535Y-236220D02*
X0D01*
G01X633Y-236198D02*
G02X-9987Y-231800I-1397J11646D01*
G01X0Y0D02*
X216535D01*
G01X-9948Y-4188D02*
G02X222Y25I10170J-10170D01*
G01X-10027Y-4267D02*
X-9948Y-4188D01*
G01X228331Y-231827D02*
G02X217712Y-236226I-9223J7247D01*
G01X216535Y0D02*
G02X227155Y-4398I0J-15018D01*
G01X228268Y-5512D01*
Y-231929D01*
G01X217712Y-236226D02*
X216137D01*
G01X218019Y-236220D02*
X216535D01*
G54D19*
G01X77756Y-100984D02*
Y-69922D01*
G01X106890Y-92756D02*
Y-9882D01*
M02*
