G04 ================== begin FILE IDENTIFICATION RECORD ==================*
G04 Layout Name:  E:/Ó²¼þ/W600/arduino/SCH&PCB/PCB_V1.1/Arduino_board_2.brd*
G04 Film Name:    drill*
G04 File Format:  Gerber RS274X*
G04 File Origin:  Cadence Allegro 16.6-P004*
G04 Origin Date:  Fri Sep 28 20:25:15 2018*
G04 *
G04 Layer:  MANUFACTURING/NCLEGEND-1-2*
G04 Layer:  MANUFACTURING/NCDRILL_LEGEND*
G04 Layer:  MANUFACTURING/NCDRILL_FIGURE*
G04 Layer:  BOARD GEOMETRY/OUTLINE*
G04 *
G04 Offset:    (0.0000 0.0000)*
G04 Mirror:    No*
G04 Mode:      Positive*
G04 Rotation:  0*
G04 FullContactRelief:  No*
G04 UndefLineWidth:     0.1999*
G04 ================== end FILE IDENTIFICATION RECORD ====================*
%FSLAX25Y25*MOIN*%
%IR0*IPPOS*OFA0.00000B0.00000*MIA0B0*SFA1.00000B1.00000*%
%AMMACRO15*
1,1,.00787,.01378,0.0*
20,1,.00787,.01378,0.0,.01357,-.002393,0.0*
1,1,.00787,.01357,-.002393*
20,1,.00787,.01357,-.002393,.012949,-.004713,0.0*
1,1,.00787,.012949,-.004713*
20,1,.00787,.012949,-.004713,.011933,-.00689,0.0*
1,1,.00787,.011933,-.00689*
20,1,.00787,.011933,-.00689,.010556,-.008857,0.0*
1,1,.00787,.010556,-.008857*
20,1,.00787,.010556,-.008857,.008857,-.010556,0.0*
1,1,.00787,.008857,-.010556*
20,1,.00787,.008857,-.010556,.00689,-.011933,0.0*
1,1,.00787,.00689,-.011933*
20,1,.00787,.00689,-.011933,.004713,-.012949,0.0*
1,1,.00787,.004713,-.012949*
20,1,.00787,.004713,-.012949,.002393,-.01357,0.0*
1,1,.00787,.002393,-.01357*
20,1,.00787,.002393,-.01357,0.0,-.01378,0.0*
1,1,.00787,0.0,-.01378*
20,1,.00787,0.0,-.01378,-.002393,-.01357,0.0*
1,1,.00787,-.002393,-.01357*
20,1,.00787,-.002393,-.01357,-.004713,-.012949,0.0*
1,1,.00787,-.004713,-.012949*
20,1,.00787,-.004713,-.012949,-.00689,-.011933,0.0*
1,1,.00787,-.00689,-.011933*
20,1,.00787,-.00689,-.011933,-.008857,-.010556,0.0*
1,1,.00787,-.008857,-.010556*
20,1,.00787,-.008857,-.010556,-.010556,-.008857,0.0*
1,1,.00787,-.010556,-.008857*
20,1,.00787,-.010556,-.008857,-.011933,-.00689,0.0*
1,1,.00787,-.011933,-.00689*
20,1,.00787,-.011933,-.00689,-.012949,-.004713,0.0*
1,1,.00787,-.012949,-.004713*
20,1,.00787,-.012949,-.004713,-.01357,-.002393,0.0*
1,1,.00787,-.01357,-.002393*
20,1,.00787,-.01357,-.002393,-.01378,0.0,0.0*
1,1,.00787,-.01378,0.0*
20,1,.00787,-.01378,0.0,-.01357,.002393,0.0*
1,1,.00787,-.01357,.002393*
20,1,.00787,-.01357,.002393,-.012949,.004713,0.0*
1,1,.00787,-.012949,.004713*
20,1,.00787,-.012949,.004713,-.011933,.00689,0.0*
1,1,.00787,-.011933,.00689*
20,1,.00787,-.011933,.00689,-.010556,.008857,0.0*
1,1,.00787,-.010556,.008857*
20,1,.00787,-.010556,.008857,-.008857,.010556,0.0*
1,1,.00787,-.008857,.010556*
20,1,.00787,-.008857,.010556,-.00689,.011933,0.0*
1,1,.00787,-.00689,.011933*
20,1,.00787,-.00689,.011933,-.004713,.012949,0.0*
1,1,.00787,-.004713,.012949*
20,1,.00787,-.004713,.012949,-.002393,.01357,0.0*
1,1,.00787,-.002393,.01357*
20,1,.00787,-.002393,.01357,0.0,.01378,0.0*
1,1,.00787,0.0,.01378*
20,1,.00787,0.0,.01378,.002393,.01357,0.0*
1,1,.00787,.002393,.01357*
20,1,.00787,.002393,.01357,.004713,.012949,0.0*
1,1,.00787,.004713,.012949*
20,1,.00787,.004713,.012949,.00689,.011933,0.0*
1,1,.00787,.00689,.011933*
20,1,.00787,.00689,.011933,.008857,.010556,0.0*
1,1,.00787,.008857,.010556*
20,1,.00787,.008857,.010556,.010556,.008857,0.0*
1,1,.00787,.010556,.008857*
20,1,.00787,.010556,.008857,.011933,.00689,0.0*
1,1,.00787,.011933,.00689*
20,1,.00787,.011933,.00689,.012949,.004713,0.0*
1,1,.00787,.012949,.004713*
20,1,.00787,.012949,.004713,.01357,.002393,0.0*
1,1,.00787,.01357,.002393*
20,1,.00787,.01357,.002393,.01378,0.0,0.0*
1,1,.00787,.01378,0.0*
%
%ADD15MACRO15*%
%AMMACRO12*
1,1,.00787,.015748,0.0*
20,1,.00787,.015748,0.0,.015509,-.002735,0.0*
1,1,.00787,.015509,-.002735*
20,1,.00787,.015509,-.002735,.014798,-.005386,0.0*
1,1,.00787,.014798,-.005386*
20,1,.00787,.014798,-.005386,.013638,-.007874,0.0*
1,1,.00787,.013638,-.007874*
20,1,.00787,.013638,-.007874,.012064,-.010123,0.0*
1,1,.00787,.012064,-.010123*
20,1,.00787,.012064,-.010123,.010123,-.012064,0.0*
1,1,.00787,.010123,-.012064*
20,1,.00787,.010123,-.012064,.007874,-.013638,0.0*
1,1,.00787,.007874,-.013638*
20,1,.00787,.007874,-.013638,.005386,-.014798,0.0*
1,1,.00787,.005386,-.014798*
20,1,.00787,.005386,-.014798,.002735,-.015509,0.0*
1,1,.00787,.002735,-.015509*
20,1,.00787,.002735,-.015509,0.0,-.015748,0.0*
1,1,.00787,0.0,-.015748*
20,1,.00787,0.0,-.015748,-.002735,-.015509,0.0*
1,1,.00787,-.002735,-.015509*
20,1,.00787,-.002735,-.015509,-.005386,-.014798,0.0*
1,1,.00787,-.005386,-.014798*
20,1,.00787,-.005386,-.014798,-.007874,-.013638,0.0*
1,1,.00787,-.007874,-.013638*
20,1,.00787,-.007874,-.013638,-.010123,-.012064,0.0*
1,1,.00787,-.010123,-.012064*
20,1,.00787,-.010123,-.012064,-.012064,-.010123,0.0*
1,1,.00787,-.012064,-.010123*
20,1,.00787,-.012064,-.010123,-.013638,-.007874,0.0*
1,1,.00787,-.013638,-.007874*
20,1,.00787,-.013638,-.007874,-.014798,-.005386,0.0*
1,1,.00787,-.014798,-.005386*
20,1,.00787,-.014798,-.005386,-.015509,-.002735,0.0*
1,1,.00787,-.015509,-.002735*
20,1,.00787,-.015509,-.002735,-.015748,0.0,0.0*
1,1,.00787,-.015748,0.0*
20,1,.00787,-.015748,0.0,-.015509,.002735,0.0*
1,1,.00787,-.015509,.002735*
20,1,.00787,-.015509,.002735,-.014798,.005386,0.0*
1,1,.00787,-.014798,.005386*
20,1,.00787,-.014798,.005386,-.013638,.007874,0.0*
1,1,.00787,-.013638,.007874*
20,1,.00787,-.013638,.007874,-.012064,.010123,0.0*
1,1,.00787,-.012064,.010123*
20,1,.00787,-.012064,.010123,-.010123,.012064,0.0*
1,1,.00787,-.010123,.012064*
20,1,.00787,-.010123,.012064,-.007874,.013638,0.0*
1,1,.00787,-.007874,.013638*
20,1,.00787,-.007874,.013638,-.005386,.014798,0.0*
1,1,.00787,-.005386,.014798*
20,1,.00787,-.005386,.014798,-.002735,.015509,0.0*
1,1,.00787,-.002735,.015509*
20,1,.00787,-.002735,.015509,0.0,.015748,0.0*
1,1,.00787,0.0,.015748*
20,1,.00787,0.0,.015748,.002735,.015509,0.0*
1,1,.00787,.002735,.015509*
20,1,.00787,.002735,.015509,.005386,.014798,0.0*
1,1,.00787,.005386,.014798*
20,1,.00787,.005386,.014798,.007874,.013638,0.0*
1,1,.00787,.007874,.013638*
20,1,.00787,.007874,.013638,.010123,.012064,0.0*
1,1,.00787,.010123,.012064*
20,1,.00787,.010123,.012064,.012064,.010123,0.0*
1,1,.00787,.012064,.010123*
20,1,.00787,.012064,.010123,.013638,.007874,0.0*
1,1,.00787,.013638,.007874*
20,1,.00787,.013638,.007874,.014798,.005386,0.0*
1,1,.00787,.014798,.005386*
20,1,.00787,.014798,.005386,.015509,.002735,0.0*
1,1,.00787,.015509,.002735*
20,1,.00787,.015509,.002735,.015748,0.0,0.0*
1,1,.00787,.015748,0.0*
%
%ADD12MACRO12*%
%AMMACRO13*
1,1,.00787,.017717,0.0*
20,1,.00787,.017717,0.0,.017447,-.003076,0.0*
1,1,.00787,.017447,-.003076*
20,1,.00787,.017447,-.003076,.016648,-.006059,0.0*
1,1,.00787,.016648,-.006059*
20,1,.00787,.016648,-.006059,.015343,-.008858,0.0*
1,1,.00787,.015343,-.008858*
20,1,.00787,.015343,-.008858,.013572,-.011388,0.0*
1,1,.00787,.013572,-.011388*
20,1,.00787,.013572,-.011388,.011388,-.013572,0.0*
1,1,.00787,.011388,-.013572*
20,1,.00787,.011388,-.013572,.008858,-.015343,0.0*
1,1,.00787,.008858,-.015343*
20,1,.00787,.008858,-.015343,.006059,-.016648,0.0*
1,1,.00787,.006059,-.016648*
20,1,.00787,.006059,-.016648,.003076,-.017447,0.0*
1,1,.00787,.003076,-.017447*
20,1,.00787,.003076,-.017447,0.0,-.017717,0.0*
1,1,.00787,0.0,-.017717*
20,1,.00787,0.0,-.017717,-.003076,-.017447,0.0*
1,1,.00787,-.003076,-.017447*
20,1,.00787,-.003076,-.017447,-.006059,-.016648,0.0*
1,1,.00787,-.006059,-.016648*
20,1,.00787,-.006059,-.016648,-.008858,-.015343,0.0*
1,1,.00787,-.008858,-.015343*
20,1,.00787,-.008858,-.015343,-.011388,-.013572,0.0*
1,1,.00787,-.011388,-.013572*
20,1,.00787,-.011388,-.013572,-.013572,-.011388,0.0*
1,1,.00787,-.013572,-.011388*
20,1,.00787,-.013572,-.011388,-.015343,-.008858,0.0*
1,1,.00787,-.015343,-.008858*
20,1,.00787,-.015343,-.008858,-.016648,-.006059,0.0*
1,1,.00787,-.016648,-.006059*
20,1,.00787,-.016648,-.006059,-.017447,-.003076,0.0*
1,1,.00787,-.017447,-.003076*
20,1,.00787,-.017447,-.003076,-.017717,0.0,0.0*
1,1,.00787,-.017717,0.0*
20,1,.00787,-.017717,0.0,-.017447,.003076,0.0*
1,1,.00787,-.017447,.003076*
20,1,.00787,-.017447,.003076,-.016648,.006059,0.0*
1,1,.00787,-.016648,.006059*
20,1,.00787,-.016648,.006059,-.015343,.008858,0.0*
1,1,.00787,-.015343,.008858*
20,1,.00787,-.015343,.008858,-.013572,.011388,0.0*
1,1,.00787,-.013572,.011388*
20,1,.00787,-.013572,.011388,-.011388,.013572,0.0*
1,1,.00787,-.011388,.013572*
20,1,.00787,-.011388,.013572,-.008858,.015343,0.0*
1,1,.00787,-.008858,.015343*
20,1,.00787,-.008858,.015343,-.006059,.016648,0.0*
1,1,.00787,-.006059,.016648*
20,1,.00787,-.006059,.016648,-.003076,.017447,0.0*
1,1,.00787,-.003076,.017447*
20,1,.00787,-.003076,.017447,0.0,.017717,0.0*
1,1,.00787,0.0,.017717*
20,1,.00787,0.0,.017717,.003076,.017447,0.0*
1,1,.00787,.003076,.017447*
20,1,.00787,.003076,.017447,.006059,.016648,0.0*
1,1,.00787,.006059,.016648*
20,1,.00787,.006059,.016648,.008858,.015343,0.0*
1,1,.00787,.008858,.015343*
20,1,.00787,.008858,.015343,.011388,.013572,0.0*
1,1,.00787,.011388,.013572*
20,1,.00787,.011388,.013572,.013572,.011388,0.0*
1,1,.00787,.013572,.011388*
20,1,.00787,.013572,.011388,.015343,.008858,0.0*
1,1,.00787,.015343,.008858*
20,1,.00787,.015343,.008858,.016648,.006059,0.0*
1,1,.00787,.016648,.006059*
20,1,.00787,.016648,.006059,.017447,.003076,0.0*
1,1,.00787,.017447,.003076*
20,1,.00787,.017447,.003076,.017717,0.0,0.0*
1,1,.00787,.017717,0.0*
%
%ADD13MACRO13*%
%AMMACRO17*
1,1,.00787,.005,0.0*
20,1,.00787,.005,0.0,-.005,0.0,0.0*
1,1,.00787,-.005,0.0*
1,1,.00787,0.0,.005*
20,1,.00787,0.0,.005,0.0,-.005,0.0*
1,1,.00787,0.0,-.005*
%
%ADD17MACRO17*%
%AMMACRO16*
1,1,.00787,.006,0.0*
20,1,.00787,.006,0.0,-.006,0.0,0.0*
1,1,.00787,-.006,0.0*
1,1,.00787,0.0,.006*
20,1,.00787,0.0,.006,0.0,-.006,0.0*
1,1,.00787,0.0,-.006*
%
%ADD16MACRO16*%
%AMMACRO14*
1,1,.00787,.017715,0.0*
20,1,.00787,.017715,0.0,.017445,-.003076,0.0*
1,1,.00787,.017445,-.003076*
20,1,.00787,.017445,-.003076,.016646,-.006059,0.0*
1,1,.00787,.016646,-.006059*
20,1,.00787,.016646,-.006059,.015341,-.008857,0.0*
1,1,.00787,.015341,-.008857*
20,1,.00787,.015341,-.008857,.01357,-.011387,0.0*
1,1,.00787,.01357,-.011387*
20,1,.00787,.01357,-.011387,.011387,-.01357,0.0*
1,1,.00787,.011387,-.01357*
20,1,.00787,.011387,-.01357,.008857,-.015341,0.0*
1,1,.00787,.008857,-.015341*
20,1,.00787,.008857,-.015341,.006059,-.016646,0.0*
1,1,.00787,.006059,-.016646*
20,1,.00787,.006059,-.016646,.003076,-.017445,0.0*
1,1,.00787,.003076,-.017445*
20,1,.00787,.003076,-.017445,0.0,-.017715,0.0*
1,1,.00787,0.0,-.017715*
20,1,.00787,0.0,-.017715,-.003076,-.017445,0.0*
1,1,.00787,-.003076,-.017445*
20,1,.00787,-.003076,-.017445,-.006059,-.016646,0.0*
1,1,.00787,-.006059,-.016646*
20,1,.00787,-.006059,-.016646,-.008857,-.015341,0.0*
1,1,.00787,-.008857,-.015341*
20,1,.00787,-.008857,-.015341,-.011387,-.01357,0.0*
1,1,.00787,-.011387,-.01357*
20,1,.00787,-.011387,-.01357,-.01357,-.011387,0.0*
1,1,.00787,-.01357,-.011387*
20,1,.00787,-.01357,-.011387,-.015341,-.008857,0.0*
1,1,.00787,-.015341,-.008857*
20,1,.00787,-.015341,-.008857,-.016646,-.006059,0.0*
1,1,.00787,-.016646,-.006059*
20,1,.00787,-.016646,-.006059,-.017445,-.003076,0.0*
1,1,.00787,-.017445,-.003076*
20,1,.00787,-.017445,-.003076,-.017715,0.0,0.0*
1,1,.00787,-.017715,0.0*
20,1,.00787,-.017715,0.0,-.017445,.003076,0.0*
1,1,.00787,-.017445,.003076*
20,1,.00787,-.017445,.003076,-.016646,.006059,0.0*
1,1,.00787,-.016646,.006059*
20,1,.00787,-.016646,.006059,-.015341,.008857,0.0*
1,1,.00787,-.015341,.008857*
20,1,.00787,-.015341,.008857,-.01357,.011387,0.0*
1,1,.00787,-.01357,.011387*
20,1,.00787,-.01357,.011387,-.011387,.01357,0.0*
1,1,.00787,-.011387,.01357*
20,1,.00787,-.011387,.01357,-.008857,.015341,0.0*
1,1,.00787,-.008857,.015341*
20,1,.00787,-.008857,.015341,-.006059,.016646,0.0*
1,1,.00787,-.006059,.016646*
20,1,.00787,-.006059,.016646,-.003076,.017445,0.0*
1,1,.00787,-.003076,.017445*
20,1,.00787,-.003076,.017445,0.0,.017715,0.0*
1,1,.00787,0.0,.017715*
20,1,.00787,0.0,.017715,.003076,.017445,0.0*
1,1,.00787,.003076,.017445*
20,1,.00787,.003076,.017445,.006059,.016646,0.0*
1,1,.00787,.006059,.016646*
20,1,.00787,.006059,.016646,.008857,.015341,0.0*
1,1,.00787,.008857,.015341*
20,1,.00787,.008857,.015341,.011387,.01357,0.0*
1,1,.00787,.011387,.01357*
20,1,.00787,.011387,.01357,.01357,.011387,0.0*
1,1,.00787,.01357,.011387*
20,1,.00787,.01357,.011387,.015341,.008857,0.0*
1,1,.00787,.015341,.008857*
20,1,.00787,.015341,.008857,.016646,.006059,0.0*
1,1,.00787,.016646,.006059*
20,1,.00787,.016646,.006059,.017445,.003076,0.0*
1,1,.00787,.017445,.003076*
20,1,.00787,.017445,.003076,.017715,0.0,0.0*
1,1,.00787,.017715,0.0*
%
%ADD14MACRO14*%
%AMMACRO11*
1,1,.00787,.019685,0.0*
20,1,.00787,.019685,0.0,.009843,.017048,0.0*
1,1,.00787,.009843,.017048*
20,1,.00787,.009843,.017048,-.009843,.017048,0.0*
1,1,.00787,-.009843,.017048*
20,1,.00787,-.009843,.017048,-.019685,0.0,0.0*
1,1,.00787,-.019685,0.0*
20,1,.00787,-.019685,0.0,-.009843,-.017048,0.0*
1,1,.00787,-.009843,-.017048*
20,1,.00787,-.009843,-.017048,.009843,-.017048,0.0*
1,1,.00787,.009843,-.017048*
20,1,.00787,.009843,-.017048,.019685,0.0,0.0*
1,1,.00787,.019685,0.0*
1,1,.00787,-.008201,-.009843*
20,1,.00787,-.008201,-.009843,0.0,.009843,0.0*
1,1,.00787,0.0,.009843*
20,1,.00787,0.0,.009843,.008201,-.009843,0.0*
1,1,.00787,.008201,-.009843*
1,1,.00787,.005248,-.002953*
20,1,.00787,.005248,-.002953,-.005248,-.002953,0.0*
1,1,.00787,-.005248,-.002953*
%
%ADD11MACRO11*%
%AMMACRO10*
1,1,.00787,-.01378,-.005906*
20,1,.00787,-.01378,-.005906,-.01378,.005906,0.0*
1,1,.00787,-.01378,.005906*
20,1,.00787,-.01378,.005906,-.01357,.008298,0.0*
1,1,.00787,-.01357,.008298*
20,1,.00787,-.01357,.008298,-.012949,.010618,0.0*
1,1,.00787,-.012949,.010618*
20,1,.00787,-.012949,.010618,-.011933,.012795,0.0*
1,1,.00787,-.011933,.012795*
20,1,.00787,-.011933,.012795,-.010556,.014763,0.0*
1,1,.00787,-.010556,.014763*
20,1,.00787,-.010556,.014763,-.008857,.016461,0.0*
1,1,.00787,-.008857,.016461*
20,1,.00787,-.008857,.016461,-.00689,.017839,0.0*
1,1,.00787,-.00689,.017839*
20,1,.00787,-.00689,.017839,-.004713,.018854,0.0*
1,1,.00787,-.004713,.018854*
20,1,.00787,-.004713,.018854,-.002393,.019476,0.0*
1,1,.00787,-.002393,.019476*
20,1,.00787,-.002393,.019476,0.0,.019685,0.0*
1,1,.00787,0.0,.019685*
20,1,.00787,0.0,.019685,.002393,.019476,0.0*
1,1,.00787,.002393,.019476*
20,1,.00787,.002393,.019476,.004713,.018854,0.0*
1,1,.00787,.004713,.018854*
20,1,.00787,.004713,.018854,.00689,.017839,0.0*
1,1,.00787,.00689,.017839*
20,1,.00787,.00689,.017839,.008857,.016461,0.0*
1,1,.00787,.008857,.016461*
20,1,.00787,.008857,.016461,.010556,.014763,0.0*
1,1,.00787,.010556,.014763*
20,1,.00787,.010556,.014763,.011933,.012795,0.0*
1,1,.00787,.011933,.012795*
20,1,.00787,.011933,.012795,.012949,.010618,0.0*
1,1,.00787,.012949,.010618*
20,1,.00787,.012949,.010618,.01357,.008298,0.0*
1,1,.00787,.01357,.008298*
20,1,.00787,.01357,.008298,.01378,.005906,0.0*
1,1,.00787,.01378,.005906*
20,1,.00787,.01378,.005906,.01378,-.005906,0.0*
1,1,.00787,.01378,-.005906*
20,1,.00787,.01378,-.005906,.01357,-.008298,0.0*
1,1,.00787,.01357,-.008298*
20,1,.00787,.01357,-.008298,.012949,-.010618,0.0*
1,1,.00787,.012949,-.010618*
20,1,.00787,.012949,-.010618,.011933,-.012795,0.0*
1,1,.00787,.011933,-.012795*
20,1,.00787,.011933,-.012795,.010556,-.014763,0.0*
1,1,.00787,.010556,-.014763*
20,1,.00787,.010556,-.014763,.008857,-.016461,0.0*
1,1,.00787,.008857,-.016461*
20,1,.00787,.008857,-.016461,.00689,-.017839,0.0*
1,1,.00787,.00689,-.017839*
20,1,.00787,.00689,-.017839,.004713,-.018854,0.0*
1,1,.00787,.004713,-.018854*
20,1,.00787,.004713,-.018854,.002393,-.019476,0.0*
1,1,.00787,.002393,-.019476*
20,1,.00787,.002393,-.019476,0.0,-.019685,0.0*
1,1,.00787,0.0,-.019685*
20,1,.00787,0.0,-.019685,-.002393,-.019476,0.0*
1,1,.00787,-.002393,-.019476*
20,1,.00787,-.002393,-.019476,-.004713,-.018854,0.0*
1,1,.00787,-.004713,-.018854*
20,1,.00787,-.004713,-.018854,-.00689,-.017839,0.0*
1,1,.00787,-.00689,-.017839*
20,1,.00787,-.00689,-.017839,-.008857,-.016461,0.0*
1,1,.00787,-.008857,-.016461*
20,1,.00787,-.008857,-.016461,-.010556,-.014763,0.0*
1,1,.00787,-.010556,-.014763*
20,1,.00787,-.010556,-.014763,-.011933,-.012795,0.0*
1,1,.00787,-.011933,-.012795*
20,1,.00787,-.011933,-.012795,-.012949,-.010618,0.0*
1,1,.00787,-.012949,-.010618*
20,1,.00787,-.012949,-.010618,-.01357,-.008298,0.0*
1,1,.00787,-.01357,-.008298*
20,1,.00787,-.01357,-.008298,-.01378,-.005906,0.0*
1,1,.00787,-.01378,-.005906*
%
%ADD10MACRO10*%
%ADD18C,.003937*%
%ADD19C,.020079*%
%ADD20C,.00787*%
%ADD21C,.002*%
G75*
%LPD*%
G75*
G54D10*
X-99334Y-551819D03*
X68406Y-17953D03*
Y-4370D03*
X96555Y-17953D03*
Y-4370D03*
X134941Y-17953D03*
Y-4370D03*
X163091Y-17953D03*
Y-4370D03*
G54D20*
G01X-144291Y-565874D02*
Y-259173D01*
X339378D01*
Y-565874D01*
X-144291D01*
G01Y-537763D02*
X339378D01*
G01X-144291Y-509652D02*
X339378D01*
G01X-144291Y-481541D02*
X339378D01*
G01X-144291Y-453430D02*
X339378D01*
G01X-144291Y-425319D02*
X339378D01*
G01X-144291Y-397208D02*
X339378D01*
G01X-144291Y-369097D02*
X339378D01*
G01X-144291Y-340986D02*
X339378D01*
G01X-144291Y-312875D02*
X339378D01*
G01X-144291Y-284764D02*
X339378D01*
G01X-54376Y-312875D02*
Y-565874D01*
G01X134746Y-312875D02*
Y-565874D01*
G01X261863Y-312875D02*
Y-565874D01*
G54D11*
X-99334Y-523707D03*
X-591Y-226102D03*
X-3740Y-38819D03*
X202283Y-225787D03*
X221339Y-30866D03*
G54D21*
G01X53762Y-176554D02*
Y-175954D01*
G54D12*
X-99334Y-495596D03*
X74606Y-13031D03*
X90354D03*
X156890D03*
X141142D03*
G54D13*
X-99334Y-467485D03*
X13268Y-134882D03*
X23425D03*
X23622Y-64606D03*
X13268Y-44882D03*
X192323Y-185276D03*
X192598Y-125157D03*
X193307Y-88622D03*
Y-59094D03*
Y-8898D03*
X203268Y-114882D03*
Y-8898D03*
G54D14*
X-99334Y-439374D03*
X13268Y-184882D03*
X23425D03*
X13268Y-164882D03*
Y-174882D03*
X23425Y-164882D03*
Y-174882D03*
X13268Y-154882D03*
Y-144882D03*
X23425Y-154882D03*
Y-144882D03*
X13268Y-104882D03*
Y-114882D03*
X23622Y-104606D03*
Y-114606D03*
X13268Y-84882D03*
Y-94882D03*
X23622Y-94606D03*
Y-84606D03*
X13268Y-64882D03*
Y-74882D03*
X23622Y-74606D03*
X13268Y-54882D03*
X192323Y-175276D03*
X192598Y-165157D03*
Y-155157D03*
Y-145157D03*
Y-135157D03*
X193307Y-98622D03*
Y-79094D03*
Y-69094D03*
Y-48898D03*
Y-38898D03*
Y-28898D03*
Y-18898D03*
X203268Y-184882D03*
Y-164882D03*
Y-174882D03*
Y-144882D03*
Y-154882D03*
Y-134882D03*
Y-124882D03*
Y-88898D03*
Y-98898D03*
Y-68898D03*
Y-78898D03*
Y-48898D03*
Y-58898D03*
Y-28898D03*
Y-38898D03*
Y-18898D03*
G54D15*
X-99334Y-411263D03*
X134902Y-155394D03*
X149665D03*
X139823D03*
X144744D03*
G54D16*
X-99334Y-383152D03*
X76220Y-165394D03*
G54D17*
X-99334Y-355041D03*
X-276Y-187756D03*
X-3937Y-185551D03*
X2047Y-184961D03*
X-4803Y-179764D03*
X1575Y-167717D03*
X-6142Y-144252D03*
X-5669Y-134449D03*
X1102Y-123819D03*
X-5551Y-125000D03*
X1575Y-119291D03*
X1693Y-109291D03*
X1890Y-101260D03*
Y-90866D03*
X1732Y-82953D03*
X2362Y-74803D03*
X2126Y-61142D03*
X1732Y-52402D03*
X-2795Y-27323D03*
X1693Y-42480D03*
X-4370Y-11102D03*
X-4134Y-21181D03*
X3268Y-1969D03*
X16614Y-189134D03*
X10039Y-189094D03*
X18150Y-181850D03*
X11417Y-179961D03*
X19409Y-188661D03*
X6142Y-188346D03*
X18740Y-178622D03*
X11024Y-170197D03*
X18386Y-163386D03*
X11654Y-160000D03*
X15000Y-159606D03*
X22362Y-150079D03*
X18504Y-152835D03*
X18268Y-143898D03*
X12559Y-149921D03*
X17008Y-28110D03*
X8780Y-34409D03*
X6457Y-25551D03*
X19488Y-25866D03*
X5866Y-13819D03*
X5512Y-19291D03*
X22165Y-4488D03*
X27992Y-181575D03*
X34055Y-188425D03*
X41102Y-185630D03*
X27480Y-178780D03*
X39528Y-165827D03*
X41693Y-175748D03*
X25512Y-159724D03*
X37205Y-134764D03*
X41063Y-134803D03*
X41457Y-127598D03*
X42008Y-108307D03*
X41063Y-120079D03*
X41535Y-99803D03*
X40079Y-67283D03*
X40945Y-82283D03*
X36299Y-74134D03*
X40669Y-61339D03*
X36457Y-43937D03*
X26654Y-25394D03*
X37165Y-25512D03*
X27283Y-13583D03*
X40827Y-13071D03*
X34094Y-25984D03*
X26378Y-19291D03*
X34803Y-5079D03*
X61181Y-184449D03*
X61732Y-188826D03*
X52795Y-189173D03*
X57795Y-184685D03*
X47638Y-181890D03*
X45000Y-165079D03*
X44646Y-160551D03*
X61614Y-175984D03*
X56732Y-175236D03*
X60276Y-171811D03*
X47244Y-170079D03*
X59449Y-165354D03*
X53543Y-169685D03*
X58622Y-168661D03*
X57756Y-147992D03*
X43976Y-153346D03*
X44528Y-148976D03*
X45906Y-145787D03*
X44803Y-156417D03*
X61417Y-152362D03*
X59646Y-131457D03*
X55984Y-131378D03*
X50000Y-131417D03*
X45433Y-131496D03*
X47717Y-134843D03*
X54882Y-134882D03*
X59921Y-134843D03*
X53110Y-127756D03*
X55787Y-119606D03*
X48189Y-115315D03*
X54843Y-112598D03*
X52559Y-103346D03*
X48425Y-96457D03*
X47795Y-90984D03*
X51181Y-85197D03*
X61024Y-88189D03*
X54134Y-93110D03*
X59646Y-97244D03*
X48898Y-67244D03*
X42913Y-75197D03*
X57717Y-65709D03*
X54724Y-81496D03*
X47638Y-75197D03*
X56102Y-62047D03*
X47323Y-61339D03*
X55157Y-35394D03*
X50315Y-34882D03*
X53031Y-42205D03*
X47835Y-24331D03*
X47244Y-19134D03*
X51142Y-26024D03*
X47008Y-4488D03*
X56299Y-5118D03*
X80787Y-188071D03*
X75787D03*
X78386Y-181181D03*
X69843Y-187480D03*
X69882Y-182756D03*
X66772Y-172559D03*
X78150Y-174291D03*
X75276Y-177047D03*
X72165Y-168465D03*
X71114Y-164460D03*
X79922Y-159177D03*
X65354Y-156693D03*
X74409Y-153346D03*
X77756Y-150787D03*
X80513Y-153469D03*
X77166Y-156028D03*
X69724Y-130276D03*
X63386Y-127756D03*
X73150Y-134724D03*
X65354Y-121260D03*
X78150Y-121063D03*
X74409Y-117323D03*
X77756Y-100984D03*
X66299Y-69449D03*
X77756Y-69922D03*
X75984Y-61063D03*
X66614Y-12598D03*
X62638Y-26811D03*
X78386Y-2795D03*
X93150Y-188543D03*
X89567Y-181969D03*
X83425Y-181496D03*
X88583Y-186614D03*
X99213D03*
X98425Y-179528D03*
X84370Y-171457D03*
X83701Y-167362D03*
X83072Y-161736D03*
X91535Y-176024D03*
X86024Y-159055D03*
X88780Y-156102D03*
X91732Y-153150D03*
X83071Y-156299D03*
X86614Y-153543D03*
X89370Y-150591D03*
X84055Y-145472D03*
X86812Y-148154D03*
X83662Y-150713D03*
X80906Y-148031D03*
X98622Y-154567D03*
X94488Y-135433D03*
X85039Y-136024D03*
X87992Y-120866D03*
X90945Y-103543D03*
X85433Y-104724D03*
X96063Y-100197D03*
X91929Y-87205D03*
X99409Y-83071D03*
X97244Y-75394D03*
X93110Y-82874D03*
X89370Y-66929D03*
X89764Y-72638D03*
X96260Y-83268D03*
X95472Y-67913D03*
X99409Y-50984D03*
X89370Y-51378D03*
Y-59252D03*
X95472Y-50591D03*
X97047Y-60433D03*
X81890Y-61063D03*
X92520Y-32677D03*
X99213Y-28740D03*
X87402Y-35433D03*
X91339Y-27165D03*
X87402Y-2874D03*
X107953Y-188976D03*
X117638Y-181378D03*
X105118Y-179134D03*
X103228Y-170591D03*
X103150Y-166929D03*
Y-174016D03*
X112205Y-177165D03*
X115354Y-168110D03*
X118150Y-154961D03*
X116339Y-157126D03*
X118110Y-143701D03*
X115354Y-154331D03*
X105433Y-122441D03*
X107874Y-128976D03*
X111220Y-125039D03*
X114409Y-105039D03*
X109055Y-106102D03*
X113386Y-116142D03*
X99803Y-111457D03*
X112795Y-90945D03*
X102362Y-100197D03*
X106693Y-99606D03*
X113189Y-85827D03*
X112402Y-95472D03*
X118110Y-90945D03*
X116732Y-97244D03*
X106890Y-92756D03*
X111969Y-69449D03*
X117520Y-75787D03*
X102953D03*
X101378Y-67323D03*
X117126Y-64370D03*
X116339Y-46654D03*
X114764Y-52756D03*
X102165Y-56890D03*
X112283Y-34764D03*
X101181Y-35039D03*
X118504Y-28740D03*
X100197Y-43701D03*
X111850Y-20276D03*
X111890Y-14016D03*
X111654Y-27205D03*
X106890Y-9882D03*
X113780Y-3701D03*
X135787Y-187992D03*
X128268Y-188189D03*
X135394Y-182205D03*
X121654Y-188504D03*
X128346Y-166929D03*
X121732Y-158031D03*
X119449Y-146496D03*
X131890Y-146654D03*
X126142Y-150906D03*
X125433Y-146732D03*
X127441Y-141850D03*
X129488Y-130000D03*
X121732Y-140630D03*
X124921Y-135984D03*
X136614Y-110433D03*
X127598Y-88543D03*
X118898Y-85236D03*
X127480Y-77441D03*
X129567Y-74252D03*
X137205Y-82677D03*
X127047Y-81496D03*
X122835Y-68110D03*
X124331Y-74882D03*
X136732Y-73661D03*
X121417Y-48150D03*
X133150Y-50236D03*
X128150Y-46850D03*
X126378Y-54724D03*
X125512Y-60866D03*
X118740Y-35866D03*
X132165Y-27874D03*
X122441Y-33071D03*
X127559Y-32283D03*
X119528Y-22598D03*
X123228Y-17323D03*
X126772Y-24803D03*
X125945Y-3819D03*
X150984Y-189213D03*
X142992Y-182126D03*
X152283Y-182165D03*
X151181Y-166299D03*
X138976Y-165748D03*
X155512Y-173228D03*
X140945Y-172835D03*
X146063Y-110630D03*
X149724Y-107008D03*
X154764Y-105197D03*
X145472Y-107047D03*
X155945Y-99843D03*
X156142Y-86929D03*
X144213Y-92638D03*
X141181Y-90118D03*
X138228Y-96693D03*
X142126Y-96378D03*
X148740Y-94567D03*
Y-88858D03*
X146339Y-89213D03*
X138268Y-77362D03*
X145787Y-73701D03*
X146614Y-83858D03*
X139882Y-65276D03*
X152717Y-66575D03*
X149134Y-78268D03*
X142047Y-76142D03*
X155079Y-64252D03*
X154567Y-51614D03*
X151969Y-55906D03*
X137677Y-26614D03*
X148228Y-4291D03*
X162520Y-188858D03*
X169882Y-188110D03*
X157520D03*
X161850Y-181339D03*
X175197Y-179921D03*
X168819Y-165157D03*
X170512Y-167283D03*
X164370Y-168150D03*
X163346Y-171535D03*
X161614Y-142992D03*
X163110Y-128189D03*
X169213Y-126063D03*
X168661Y-135354D03*
X163189Y-134370D03*
X159134Y-124331D03*
X158307Y-130315D03*
X157559Y-137677D03*
X162402Y-110079D03*
X170118Y-111102D03*
X164646Y-113425D03*
X161181Y-114685D03*
X157087Y-94488D03*
X162402Y-98661D03*
X161102Y-92047D03*
X160315Y-85472D03*
X167874Y-98976D03*
X166496Y-51614D03*
X166417Y-57559D03*
X165945Y-63622D03*
X171378Y-28740D03*
X171260Y-35157D03*
X159528Y-35079D03*
X168819Y-45000D03*
X156811D03*
X175354Y-16969D03*
X170118Y-2559D03*
X157677Y-4055D03*
X183780Y-188976D03*
X179291Y-189331D03*
X188346Y-110000D03*
X193110Y-112126D03*
X188740Y-118110D03*
X175787Y-112598D03*
X185472Y-91614D03*
X185354Y-82717D03*
X176220Y-83150D03*
X176063Y-20787D03*
X186811Y-22047D03*
X175827Y-2520D03*
X182638Y-2362D03*
X199370Y-180354D03*
X213268Y-188425D03*
X213386Y-177559D03*
X212638Y-168661D03*
X212874Y-124094D03*
X211496Y-100827D03*
X198504Y-91457D03*
X198386Y-87008D03*
X208976Y-91693D03*
X209882Y-88701D03*
X198386Y-66811D03*
X198150Y-71929D03*
X207874Y-72126D03*
X207953Y-66929D03*
X198622Y-61299D03*
X206496Y-54213D03*
X198504Y-51260D03*
X198622Y-46654D03*
X208346Y-41339D03*
X198543Y-40945D03*
X198898Y-36850D03*
X208701Y-27520D03*
X208465Y-31654D03*
X198504Y-30984D03*
X198543Y-17362D03*
X209882Y-21850D03*
X209961Y-17598D03*
X198504Y-26614D03*
X212323Y-2559D03*
X223583Y-184173D03*
X215236Y-182638D03*
X223346Y-166811D03*
X223701Y-176024D03*
X214764Y-151772D03*
X224528Y-122323D03*
X223583Y-128740D03*
X224291Y-137362D03*
X214921Y-138465D03*
X214803Y-129409D03*
X223858Y-113583D03*
X213661Y-114803D03*
X214567Y-108504D03*
Y-119961D03*
X224055Y-93858D03*
X217165Y-101299D03*
X223701Y-87283D03*
X223937Y-99409D03*
X214803Y-86535D03*
X214567Y-97047D03*
X222717Y-81890D03*
X214724Y-72953D03*
X214685Y-57402D03*
X224055Y-38937D03*
X223937Y-43150D03*
X214843Y-30630D03*
X214803Y-43622D03*
X214528Y-18937D03*
X214173Y-12205D03*
X218976Y-2992D03*
G54D18*
G01X-10027Y-4267D02*
Y-232010D01*
G02X-10039Y-232039I-42J0D01*
G01X216535Y-236220D02*
X0D01*
G01X633Y-236198D02*
G02X-9987Y-231800I-1397J11646D01*
G01X0Y0D02*
X216535D01*
G01X-9948Y-4188D02*
G02X222Y25I10170J-10170D01*
G01X-10027Y-4267D02*
X-9948Y-4188D01*
G01X228331Y-231827D02*
G02X217712Y-236226I-9223J7247D01*
G01X216535Y0D02*
G02X227155Y-4398I0J-15018D01*
G01X228268Y-5512D01*
Y-231929D01*
G01X217712Y-236226D02*
X216137D01*
G01X218019Y-236220D02*
X216535D01*
G54D19*
G01X-133278Y-331655D02*
Y-319135D01*
X-127394D01*
G01X-129562Y-325186D02*
X-133278D01*
G01X-119793Y-319135D02*
X-116077D01*
G01X-117935D02*
Y-331655D01*
G01X-119793D02*
X-116077D01*
G01X-104606Y-325395D02*
X-101508D01*
Y-329151D01*
X-102437Y-330404D01*
X-103521Y-331238D01*
X-105070Y-331655D01*
X-106618Y-331238D01*
X-107702Y-330404D01*
X-108631Y-329151D01*
X-109251Y-327691D01*
X-109561Y-326021D01*
Y-324560D01*
X-109251Y-323309D01*
X-108631Y-321848D01*
X-107702Y-320596D01*
X-106773Y-319761D01*
X-105535Y-319135D01*
X-104451D01*
X-103212Y-319552D01*
X-102283Y-320387D01*
G01X-96540Y-319135D02*
Y-328108D01*
X-95921Y-329986D01*
X-94682Y-331238D01*
X-93134Y-331655D01*
X-91585Y-331238D01*
X-90346Y-329986D01*
X-89727Y-328108D01*
Y-319135D01*
G01X-83830Y-331655D02*
Y-319135D01*
X-79959D01*
X-78720Y-319761D01*
X-77946Y-320596D01*
X-77636Y-322265D01*
X-77946Y-323935D01*
X-78875Y-324978D01*
X-79959Y-325604D01*
X-83830D01*
G01X-79959D02*
X-77636Y-331655D01*
G01X-65235D02*
X-71429D01*
Y-319135D01*
X-65235D01*
G01X-67713Y-325186D02*
X-71429D01*
G01X-73739Y-303544D02*
X-69868Y-291024D01*
X-65996Y-303544D01*
G01X-67390Y-299162D02*
X-72345D01*
G01X-60564Y-291024D02*
Y-303544D01*
X-54370D01*
G01X-48163Y-291024D02*
Y-303544D01*
X-41969D01*
G01X-23671Y-291024D02*
Y-299997D01*
X-23052Y-301875D01*
X-21813Y-303127D01*
X-20265Y-303544D01*
X-18716Y-303127D01*
X-17477Y-301875D01*
X-16858Y-299997D01*
Y-291024D01*
G01X-11425Y-303544D02*
Y-291024D01*
X-4302Y-303544D01*
Y-291024D01*
G01X2679D02*
X6395D01*
G01X4537D02*
Y-303544D01*
G01X2679D02*
X6395D01*
G01X16938Y-291024D02*
Y-303544D01*
G01X13376Y-291024D02*
X20500D01*
G01X26087Y-301875D02*
X27326Y-302918D01*
X28719Y-303544D01*
X29958D01*
X31197Y-302918D01*
X32126Y-301875D01*
X32591Y-300414D01*
X32281Y-298954D01*
X31507Y-297702D01*
X30113Y-296867D01*
X28255Y-296449D01*
X27171Y-295615D01*
X26706Y-294154D01*
X27016Y-292693D01*
X27790Y-291650D01*
X28874Y-291024D01*
X29958D01*
X31042Y-291441D01*
X31971Y-292485D01*
G01X50269Y-303544D02*
X54140Y-291024D01*
X58012Y-303544D01*
G01X56618Y-299162D02*
X51663D01*
G01X63444Y-303544D02*
Y-291024D01*
X67315D01*
X68554Y-291650D01*
X69328Y-292485D01*
X69638Y-294154D01*
X69328Y-295824D01*
X68399Y-296867D01*
X67315Y-297493D01*
X63444D01*
G01X67315D02*
X69638Y-303544D01*
G01X82039D02*
X75845D01*
Y-291024D01*
X82039D01*
G01X79561Y-297075D02*
X75845D01*
G01X101885Y-291024D02*
X105602D01*
G01X103743D02*
Y-303544D01*
G01X101885D02*
X105602D01*
G01X112583D02*
Y-291024D01*
X119706Y-303544D01*
Y-291024D01*
G01X136920Y-303544D02*
Y-291024D01*
X140946Y-301457D01*
X144972Y-291024D01*
Y-303544D01*
G01X151489Y-291024D02*
X155205D01*
G01X153346D02*
Y-303544D01*
G01X151489D02*
X155205D01*
G01X162650Y-291024D02*
Y-303544D01*
X168844D01*
G01X175051Y-291024D02*
Y-303544D01*
X181245D01*
G01X188691Y-291024D02*
X192407D01*
G01X190549D02*
Y-303544D01*
G01X188691D02*
X192407D01*
G01X198924D02*
Y-291024D01*
X202950Y-301457D01*
X206976Y-291024D01*
Y-303544D01*
G01X218448D02*
X212254D01*
Y-291024D01*
X218448D01*
G01X215970Y-297075D02*
X212254D01*
G01X227751Y-291024D02*
Y-303544D01*
G01X224190Y-291024D02*
X231313D01*
G01X243249Y-303544D02*
X237055D01*
Y-291024D01*
X243249D01*
G01X240772Y-297075D02*
X237055D01*
G01X249456Y-303544D02*
Y-291024D01*
X253327D01*
X254566Y-291650D01*
X255340Y-292485D01*
X255650Y-294154D01*
X255340Y-295824D01*
X254411Y-296867D01*
X253327Y-297493D01*
X249456D01*
G01X253327D02*
X255650Y-303544D01*
G01X261702Y-301875D02*
X262941Y-302918D01*
X264334Y-303544D01*
X265573D01*
X266812Y-302918D01*
X267741Y-301875D01*
X268206Y-300414D01*
X267896Y-298954D01*
X267122Y-297702D01*
X265728Y-296867D01*
X263870Y-296449D01*
X262786Y-295615D01*
X262321Y-294154D01*
X262631Y-292693D01*
X263405Y-291650D01*
X264489Y-291024D01*
X265573D01*
X266657Y-291441D01*
X267586Y-292485D01*
G01X-60873Y-277954D02*
Y-265433D01*
X-57776D01*
X-56538Y-266060D01*
X-55609Y-266894D01*
X-54834Y-268146D01*
X-54215Y-269607D01*
X-54060Y-271694D01*
X-54215Y-273780D01*
X-54834Y-275241D01*
X-55609Y-276493D01*
X-56538Y-277328D01*
X-57776Y-277954D01*
X-60873D01*
G01X-48163D02*
Y-265433D01*
X-44292D01*
X-43053Y-266060D01*
X-42279Y-266894D01*
X-41969Y-268563D01*
X-42279Y-270233D01*
X-43208Y-271276D01*
X-44292Y-271902D01*
X-48163D01*
G01X-44292D02*
X-41969Y-277954D01*
G01X-34523Y-265433D02*
X-30807D01*
G01X-32665D02*
Y-277954D01*
G01X-34523D02*
X-30807D01*
G01X-23361Y-265433D02*
Y-277954D01*
X-17167D01*
G01X-10961Y-265433D02*
Y-277954D01*
X-4767D01*
G01X20344Y-266477D02*
X19415Y-265851D01*
X18332Y-265433D01*
X17093D01*
X15699Y-266060D01*
X14615Y-267103D01*
X13841Y-268355D01*
X13221Y-270442D01*
X13067Y-272320D01*
X13376Y-274198D01*
X13841Y-275450D01*
X14770Y-276702D01*
X15854Y-277536D01*
X16938Y-277954D01*
X18022D01*
X19106Y-277536D01*
X20035Y-276910D01*
X20809Y-276076D01*
G01X26087Y-277954D02*
Y-265433D01*
G01X32591D02*
Y-277954D01*
G01Y-271694D02*
X26087D01*
G01X37868Y-277954D02*
X41739Y-265433D01*
X45611Y-277954D01*
G01X44217Y-273572D02*
X39262D01*
G01X51043Y-277954D02*
Y-265433D01*
X54915D01*
X56154Y-266060D01*
X56928Y-266894D01*
X57237Y-268563D01*
X56928Y-270233D01*
X55998Y-271276D01*
X54915Y-271902D01*
X51043D01*
G01X54915D02*
X57237Y-277954D01*
G01X66541Y-265433D02*
Y-277954D01*
G01X62980Y-265433D02*
X70103D01*
G01X78942Y-278371D02*
X78632Y-278162D01*
Y-277745D01*
X78942Y-277536D01*
X79252Y-277745D01*
Y-278162D01*
X78942Y-278371D01*
G01Y-272737D02*
X78632Y-272528D01*
Y-272111D01*
X78942Y-271902D01*
X79252Y-272111D01*
Y-272528D01*
X78942Y-272737D01*
G01X103743Y-265433D02*
Y-277954D01*
G01X100182Y-265433D02*
X107305D01*
G01X116144Y-277954D02*
X114906Y-277745D01*
X113822Y-276910D01*
X112893Y-275658D01*
X112273Y-274198D01*
X111963Y-272528D01*
Y-270859D01*
X112273Y-269189D01*
X112893Y-267729D01*
X113822Y-266477D01*
X114906Y-265642D01*
X116144Y-265433D01*
X117383Y-265642D01*
X118467Y-266477D01*
X119396Y-267729D01*
X120016Y-269189D01*
X120325Y-270859D01*
Y-272528D01*
X120016Y-274198D01*
X119396Y-275658D01*
X118467Y-276910D01*
X117383Y-277745D01*
X116144Y-277954D01*
G01X125448D02*
Y-265433D01*
X129165D01*
X130403Y-266060D01*
X131332Y-267520D01*
X131642Y-269189D01*
X131332Y-270859D01*
X130558Y-272111D01*
X129165Y-272737D01*
X125448D01*
G01X153346Y-265433D02*
Y-277954D01*
G01X151179Y-269607D02*
X155515D01*
G01X165747Y-277954D02*
X164819Y-277745D01*
X163889Y-276910D01*
X163270Y-275450D01*
X162960Y-273780D01*
X163270Y-272111D01*
X163889Y-270650D01*
X164819Y-269816D01*
X165747Y-269607D01*
X166676Y-269816D01*
X167606Y-270650D01*
X168225Y-272111D01*
X168380Y-273780D01*
X168225Y-275450D01*
X167606Y-276910D01*
X166676Y-277745D01*
X165747Y-277954D01*
G01X191788Y-271276D02*
X192407Y-270650D01*
X192872Y-269607D01*
X193181Y-268146D01*
X192872Y-266894D01*
X192252Y-266060D01*
X191169Y-265433D01*
X186987D01*
Y-277954D01*
X192098D01*
X193181Y-277119D01*
X193801Y-275867D01*
X194111Y-274406D01*
X193801Y-272946D01*
X192872Y-271694D01*
X191788Y-271276D01*
X186987D01*
G01X202950Y-277954D02*
X201711Y-277745D01*
X200627Y-276910D01*
X199698Y-275658D01*
X199078Y-274198D01*
X198769Y-272528D01*
Y-270859D01*
X199078Y-269189D01*
X199698Y-267729D01*
X200627Y-266477D01*
X201711Y-265642D01*
X202950Y-265433D01*
X204189Y-265642D01*
X205272Y-266477D01*
X206202Y-267729D01*
X206821Y-269189D01*
X207131Y-270859D01*
Y-272528D01*
X206821Y-274198D01*
X206202Y-275658D01*
X205272Y-276910D01*
X204189Y-277745D01*
X202950Y-277954D01*
G01X215350Y-265433D02*
Y-277954D01*
G01X211789Y-265433D02*
X218912D01*
G01X227751D02*
Y-277954D01*
G01X224190Y-265433D02*
X231313D01*
G01X240152Y-277954D02*
X238913Y-277745D01*
X237830Y-276910D01*
X236900Y-275658D01*
X236281Y-274198D01*
X235971Y-272528D01*
Y-270859D01*
X236281Y-269189D01*
X236900Y-267729D01*
X237830Y-266477D01*
X238913Y-265642D01*
X240152Y-265433D01*
X241391Y-265642D01*
X242475Y-266477D01*
X243404Y-267729D01*
X244024Y-269189D01*
X244333Y-270859D01*
Y-272528D01*
X244024Y-274198D01*
X243404Y-275658D01*
X242475Y-276910D01*
X241391Y-277745D01*
X240152Y-277954D01*
G01X248527D02*
Y-265433D01*
X252553Y-275867D01*
X256579Y-265433D01*
Y-277954D01*
G01X2982Y-558078D02*
Y-545558D01*
X1124Y-548062D01*
G01Y-558078D02*
X4841D01*
G01X15383Y-558496D02*
X15074Y-558287D01*
Y-557870D01*
X15383Y-557661D01*
X15693Y-557870D01*
Y-558287D01*
X15383Y-558496D01*
G01X27784Y-545558D02*
X26545Y-545976D01*
X25616Y-547019D01*
X24997Y-548271D01*
X24532Y-549941D01*
X24378Y-551819D01*
X24532Y-553696D01*
X24997Y-555366D01*
X25616Y-556618D01*
X26545Y-557661D01*
X27784Y-558078D01*
X29023Y-557661D01*
X29952Y-556618D01*
X30571Y-555366D01*
X31036Y-553696D01*
X31191Y-551819D01*
X31036Y-549941D01*
X30571Y-548271D01*
X29952Y-547019D01*
X29023Y-545976D01*
X27784Y-545558D01*
G01X37862Y-549732D02*
X42507Y-558078D01*
G01Y-549732D02*
X37862Y-558078D01*
G01X52585Y-545558D02*
X51347Y-545976D01*
X50418Y-547019D01*
X49798Y-548271D01*
X49334Y-549941D01*
X49179Y-551819D01*
X49334Y-553696D01*
X49798Y-555366D01*
X50418Y-556618D01*
X51347Y-557661D01*
X52585Y-558078D01*
X53824Y-557661D01*
X54754Y-556618D01*
X55373Y-555366D01*
X55837Y-553696D01*
X55992Y-551819D01*
X55837Y-549941D01*
X55373Y-548271D01*
X54754Y-547019D01*
X53824Y-545976D01*
X52585Y-545558D01*
G01X64986Y-558496D02*
X64677Y-558287D01*
Y-557870D01*
X64986Y-557661D01*
X65296Y-557870D01*
Y-558287D01*
X64986Y-558496D01*
G01X77078Y-558078D02*
X77387Y-555366D01*
X77852Y-553070D01*
X78471Y-550983D01*
X79245Y-548688D01*
X80484Y-545558D01*
X74290D01*
G01X9183Y-433114D02*
X7944Y-433531D01*
X7015Y-434575D01*
X6396Y-435827D01*
X5931Y-437496D01*
X5776Y-439374D01*
X5931Y-441252D01*
X6396Y-442922D01*
X7015Y-444174D01*
X7944Y-445217D01*
X9183Y-445634D01*
X10422Y-445217D01*
X11351Y-444174D01*
X11970Y-442922D01*
X12435Y-441252D01*
X12589Y-439374D01*
X12435Y-437496D01*
X11970Y-435827D01*
X11351Y-434575D01*
X10422Y-433531D01*
X9183Y-433114D01*
G01X21583Y-446052D02*
X21274Y-445843D01*
Y-445426D01*
X21583Y-445217D01*
X21893Y-445426D01*
Y-445843D01*
X21583Y-446052D01*
G01X33984Y-445634D02*
X35068Y-445426D01*
X36307Y-444800D01*
X37081Y-443757D01*
X37391Y-442296D01*
X37081Y-440835D01*
X36152Y-439583D01*
X34759Y-438957D01*
X33210D01*
X32281Y-438539D01*
X31507Y-437496D01*
X31197Y-436036D01*
X31662Y-434575D01*
X32746Y-433531D01*
X33984Y-433114D01*
X35223Y-433531D01*
X36307Y-434575D01*
X36772Y-436036D01*
X36462Y-437496D01*
X35688Y-438539D01*
X34759Y-438957D01*
X33210D01*
X31817Y-439583D01*
X30887Y-440835D01*
X30578Y-442296D01*
X30887Y-443757D01*
X31662Y-444800D01*
X32901Y-445426D01*
X33984Y-445634D01*
G01X43753Y-444174D02*
X44837Y-445217D01*
X46076Y-445634D01*
X47314Y-445217D01*
X48398Y-443965D01*
X49172Y-442087D01*
X49482Y-440209D01*
Y-437914D01*
X49172Y-436036D01*
X48398Y-434366D01*
X47469Y-433531D01*
X46385Y-433114D01*
X45146Y-433531D01*
X44217Y-434366D01*
X43598Y-435618D01*
X43288Y-437288D01*
X43598Y-438748D01*
X44372Y-440209D01*
X45302Y-441044D01*
X46385Y-441252D01*
X47624Y-440835D01*
X48553Y-439792D01*
X49482Y-437914D01*
G01X56154Y-444174D02*
X57237Y-445217D01*
X58476Y-445634D01*
X59715Y-445217D01*
X60799Y-443965D01*
X61573Y-442087D01*
X61883Y-440209D01*
Y-437914D01*
X61573Y-436036D01*
X60799Y-434366D01*
X59870Y-433531D01*
X58786Y-433114D01*
X57547Y-433531D01*
X56618Y-434366D01*
X55999Y-435618D01*
X55689Y-437288D01*
X55999Y-438748D01*
X56773Y-440209D01*
X57702Y-441044D01*
X58786Y-441252D01*
X60025Y-440835D01*
X60954Y-439792D01*
X61883Y-437914D01*
G01X68554Y-444174D02*
X69638Y-445217D01*
X70877Y-445634D01*
X72116Y-445217D01*
X73200Y-443965D01*
X73974Y-442087D01*
X74284Y-440209D01*
Y-437914D01*
X73974Y-436036D01*
X73200Y-434366D01*
X72270Y-433531D01*
X71187Y-433114D01*
X69948Y-433531D01*
X69019Y-434366D01*
X68400Y-435618D01*
X68090Y-437288D01*
X68400Y-438748D01*
X69174Y-440209D01*
X70103Y-441044D01*
X71187Y-441252D01*
X72426Y-440835D01*
X73355Y-439792D01*
X74284Y-437914D01*
G01X9183Y-376893D02*
X7944Y-377310D01*
X7015Y-378353D01*
X6396Y-379605D01*
X5931Y-381275D01*
X5776Y-383153D01*
X5931Y-385031D01*
X6396Y-386700D01*
X7015Y-387952D01*
X7944Y-388995D01*
X9183Y-389413D01*
X10422Y-388995D01*
X11351Y-387952D01*
X11970Y-386700D01*
X12435Y-385031D01*
X12589Y-383153D01*
X12435Y-381275D01*
X11970Y-379605D01*
X11351Y-378353D01*
X10422Y-377310D01*
X9183Y-376893D01*
G01X21583Y-389830D02*
X21274Y-389621D01*
Y-389204D01*
X21583Y-388995D01*
X21893Y-389204D01*
Y-389621D01*
X21583Y-389830D01*
G01X30578Y-386909D02*
X31507Y-388369D01*
X32746Y-389204D01*
X34139Y-389413D01*
X35378Y-389204D01*
X36617Y-388161D01*
X37391Y-386909D01*
X37546Y-385657D01*
X37236Y-384196D01*
X36152Y-383153D01*
X35068Y-382735D01*
X33675D01*
G01X35068D02*
X35998Y-382109D01*
X36772Y-381066D01*
X37081Y-379814D01*
X36772Y-378562D01*
X35998Y-377519D01*
X34604Y-376893D01*
X33210Y-377101D01*
X31817Y-377936D01*
G01X46385Y-376893D02*
X45146Y-377310D01*
X44217Y-378353D01*
X43598Y-379605D01*
X43133Y-381275D01*
X42979Y-383153D01*
X43133Y-385031D01*
X43598Y-386700D01*
X44217Y-387952D01*
X45146Y-388995D01*
X46385Y-389413D01*
X47624Y-388995D01*
X48553Y-387952D01*
X49172Y-386700D01*
X49637Y-385031D01*
X49792Y-383153D01*
X49637Y-381275D01*
X49172Y-379605D01*
X48553Y-378353D01*
X47624Y-377310D01*
X46385Y-376893D01*
G01X60644Y-389413D02*
Y-376893D01*
X54915Y-385865D01*
X62657D01*
G01X71187Y-389413D02*
X72270Y-389204D01*
X73509Y-388578D01*
X74284Y-387535D01*
X74593Y-386074D01*
X74284Y-384613D01*
X73355Y-383361D01*
X71961Y-382735D01*
X70413D01*
X69483Y-382318D01*
X68709Y-381275D01*
X68400Y-379814D01*
X68864Y-378353D01*
X69948Y-377310D01*
X71187Y-376893D01*
X72426Y-377310D01*
X73509Y-378353D01*
X73974Y-379814D01*
X73664Y-381275D01*
X72890Y-382318D01*
X71961Y-382735D01*
X70413D01*
X69019Y-383361D01*
X68090Y-384613D01*
X67780Y-386074D01*
X68090Y-387535D01*
X68864Y-388578D01*
X70103Y-389204D01*
X71187Y-389413D01*
G01X9183Y-348781D02*
X7944Y-349199D01*
X7015Y-350242D01*
X6396Y-351494D01*
X5931Y-353164D01*
X5776Y-355042D01*
X5931Y-356920D01*
X6396Y-358589D01*
X7015Y-359841D01*
X7944Y-360884D01*
X9183Y-361302D01*
X10422Y-360884D01*
X11351Y-359841D01*
X11970Y-358589D01*
X12435Y-356920D01*
X12589Y-355042D01*
X12435Y-353164D01*
X11970Y-351494D01*
X11351Y-350242D01*
X10422Y-349199D01*
X9183Y-348781D01*
G01X21583Y-361719D02*
X21274Y-361510D01*
Y-361093D01*
X21583Y-360884D01*
X21893Y-361093D01*
Y-361510D01*
X21583Y-361719D01*
G01X31042Y-350868D02*
X31971Y-349617D01*
X33056Y-348990D01*
X34294Y-348781D01*
X35843Y-349199D01*
X36927Y-350242D01*
X37236Y-351494D01*
X37081Y-352746D01*
X36462Y-353790D01*
X33365Y-355876D01*
X31971Y-357337D01*
X31042Y-359424D01*
X30733Y-361302D01*
X37236D01*
G01X46385Y-348781D02*
X45146Y-349199D01*
X44217Y-350242D01*
X43598Y-351494D01*
X43133Y-353164D01*
X42979Y-355042D01*
X43133Y-356920D01*
X43598Y-358589D01*
X44217Y-359841D01*
X45146Y-360884D01*
X46385Y-361302D01*
X47624Y-360884D01*
X48553Y-359841D01*
X49172Y-358589D01*
X49637Y-356920D01*
X49792Y-355042D01*
X49637Y-353164D01*
X49172Y-351494D01*
X48553Y-350242D01*
X47624Y-349199D01*
X46385Y-348781D01*
G01X55380Y-358798D02*
X56308Y-360258D01*
X57547Y-361093D01*
X58941Y-361302D01*
X60180Y-361093D01*
X61419Y-360050D01*
X62193Y-358798D01*
X62348Y-357546D01*
X62038Y-356085D01*
X60954Y-355042D01*
X59870Y-354624D01*
X58476D01*
G01X59870D02*
X60799Y-353998D01*
X61573Y-352955D01*
X61883Y-351703D01*
X61573Y-350451D01*
X60799Y-349408D01*
X59406Y-348781D01*
X58012Y-348990D01*
X56618Y-349825D01*
G01X68244Y-350868D02*
X69174Y-349617D01*
X70258Y-348990D01*
X71496Y-348781D01*
X73045Y-349199D01*
X74129Y-350242D01*
X74439Y-351494D01*
X74284Y-352746D01*
X73664Y-353790D01*
X70567Y-355876D01*
X69174Y-357337D01*
X68244Y-359424D01*
X67935Y-361302D01*
X74439D01*
G01X24842Y-519534D02*
X25771Y-518282D01*
X26855Y-517656D01*
X28094Y-517447D01*
X29642Y-517865D01*
X30726Y-518908D01*
X31036Y-520160D01*
X30881Y-521412D01*
X30261Y-522456D01*
X27165Y-524542D01*
X25771Y-526003D01*
X24842Y-528090D01*
X24532Y-529967D01*
X31036D01*
G01X40185Y-530385D02*
X39875Y-530176D01*
Y-529759D01*
X40185Y-529550D01*
X40494Y-529759D01*
Y-530176D01*
X40185Y-530385D01*
G01X49179Y-527463D02*
X50108Y-528924D01*
X51347Y-529759D01*
X52741Y-529967D01*
X53980Y-529759D01*
X55218Y-528716D01*
X55992Y-527463D01*
X56147Y-526211D01*
X55837Y-524751D01*
X54754Y-523707D01*
X53669Y-523290D01*
X52276D01*
G01X53669D02*
X54599Y-522664D01*
X55373Y-521621D01*
X55683Y-520369D01*
X55373Y-519117D01*
X54599Y-518074D01*
X53205Y-517447D01*
X51811Y-517656D01*
X50418Y-518491D01*
G01X27784Y-489336D02*
X26545Y-489754D01*
X25616Y-490797D01*
X24997Y-492049D01*
X24532Y-493719D01*
X24378Y-495596D01*
X24532Y-497474D01*
X24997Y-499144D01*
X25616Y-500396D01*
X26545Y-501439D01*
X27784Y-501856D01*
X29023Y-501439D01*
X29952Y-500396D01*
X30571Y-499144D01*
X31036Y-497474D01*
X31191Y-495596D01*
X31036Y-493719D01*
X30571Y-492049D01*
X29952Y-490797D01*
X29023Y-489754D01*
X27784Y-489336D01*
G01X40185Y-502274D02*
X39875Y-502065D01*
Y-501648D01*
X40185Y-501439D01*
X40494Y-501648D01*
Y-502065D01*
X40185Y-502274D01*
G01X52585Y-501856D02*
X53669Y-501648D01*
X54908Y-501022D01*
X55683Y-499979D01*
X55992Y-498518D01*
X55683Y-497057D01*
X54754Y-495805D01*
X53360Y-495179D01*
X51811D01*
X50882Y-494761D01*
X50108Y-493719D01*
X49798Y-492258D01*
X50263Y-490797D01*
X51347Y-489754D01*
X52585Y-489336D01*
X53824Y-489754D01*
X54908Y-490797D01*
X55373Y-492258D01*
X55063Y-493719D01*
X54289Y-494761D01*
X53360Y-495179D01*
X51811D01*
X50418Y-495805D01*
X49489Y-497057D01*
X49179Y-498518D01*
X49489Y-499979D01*
X50263Y-501022D01*
X51502Y-501648D01*
X52585Y-501856D01*
G01X27784Y-461225D02*
X26545Y-461643D01*
X25616Y-462686D01*
X24997Y-463938D01*
X24532Y-465607D01*
X24378Y-467485D01*
X24532Y-469363D01*
X24997Y-471033D01*
X25616Y-472285D01*
X26545Y-473328D01*
X27784Y-473745D01*
X29023Y-473328D01*
X29952Y-472285D01*
X30571Y-471033D01*
X31036Y-469363D01*
X31191Y-467485D01*
X31036Y-465607D01*
X30571Y-463938D01*
X29952Y-462686D01*
X29023Y-461643D01*
X27784Y-461225D01*
G01X40185Y-474163D02*
X39875Y-473954D01*
Y-473537D01*
X40185Y-473328D01*
X40494Y-473537D01*
Y-473954D01*
X40185Y-474163D01*
G01X49953Y-472285D02*
X51037Y-473328D01*
X52276Y-473745D01*
X53515Y-473328D01*
X54599Y-472076D01*
X55373Y-470198D01*
X55683Y-468320D01*
Y-466025D01*
X55373Y-464147D01*
X54599Y-462477D01*
X53669Y-461643D01*
X52585Y-461225D01*
X51347Y-461643D01*
X50418Y-462477D01*
X49798Y-463729D01*
X49489Y-465399D01*
X49798Y-466859D01*
X50572Y-468320D01*
X51502Y-469155D01*
X52585Y-469363D01*
X53824Y-468946D01*
X54754Y-467903D01*
X55683Y-466025D01*
G01X27784Y-405003D02*
X26545Y-405420D01*
X25616Y-406464D01*
X24997Y-407716D01*
X24532Y-409385D01*
X24378Y-411263D01*
X24532Y-413141D01*
X24997Y-414811D01*
X25616Y-416063D01*
X26545Y-417106D01*
X27784Y-417523D01*
X29023Y-417106D01*
X29952Y-416063D01*
X30571Y-414811D01*
X31036Y-413141D01*
X31191Y-411263D01*
X31036Y-409385D01*
X30571Y-407716D01*
X29952Y-406464D01*
X29023Y-405420D01*
X27784Y-405003D01*
G01X40185Y-417941D02*
X39875Y-417732D01*
Y-417315D01*
X40185Y-417106D01*
X40494Y-417315D01*
Y-417732D01*
X40185Y-417941D01*
G01X49643Y-412307D02*
X50728Y-410846D01*
X51657Y-410011D01*
X52895Y-409594D01*
X53980Y-410011D01*
X54754Y-410846D01*
X55373Y-412098D01*
X55528Y-413559D01*
X55373Y-414811D01*
X54754Y-416063D01*
X53824Y-417106D01*
X52741Y-417523D01*
X51502Y-417106D01*
X50418Y-415854D01*
X49798Y-413976D01*
X49643Y-411889D01*
X49953Y-409177D01*
X50418Y-407716D01*
X51192Y-406255D01*
X52276Y-405212D01*
X53360Y-405003D01*
X54444Y-405420D01*
X55218Y-406464D01*
G01X18332Y-329986D02*
X19570Y-331029D01*
X20964Y-331655D01*
X22203D01*
X23442Y-331029D01*
X24371Y-329986D01*
X24835Y-328525D01*
X24526Y-327065D01*
X23752Y-325813D01*
X22358Y-324978D01*
X20500Y-324560D01*
X19416Y-323726D01*
X18951Y-322265D01*
X19261Y-320804D01*
X20035Y-319761D01*
X21119Y-319135D01*
X22203D01*
X23287Y-319552D01*
X24216Y-320596D01*
G01X32126Y-319135D02*
X35843D01*
G01X33984D02*
Y-331655D01*
G01X32126D02*
X35843D01*
G01X43443Y-319135D02*
X49328D01*
X43443Y-331655D01*
X49328D01*
G01X61883D02*
X55689D01*
Y-319135D01*
X61883D01*
G01X59406Y-325186D02*
X55689D01*
G01X138939Y-529967D02*
Y-517447D01*
X146063Y-529967D01*
Y-517447D01*
G01X154902Y-529967D02*
X153663Y-529759D01*
X152579Y-528924D01*
X151650Y-527672D01*
X151030Y-526211D01*
X150721Y-524542D01*
Y-522872D01*
X151030Y-521203D01*
X151650Y-519743D01*
X152579Y-518491D01*
X153663Y-517656D01*
X154902Y-517447D01*
X156141Y-517656D01*
X157224Y-518491D01*
X158154Y-519743D01*
X158773Y-521203D01*
X159083Y-522872D01*
Y-524542D01*
X158773Y-526211D01*
X158154Y-527672D01*
X157224Y-528924D01*
X156141Y-529759D01*
X154902Y-529967D01*
G01X163741D02*
Y-517447D01*
X170864Y-529967D01*
Y-517447D01*
G01X177690Y-525794D02*
X181717D01*
G01X189007Y-529967D02*
Y-517447D01*
X192724D01*
X193962Y-518074D01*
X194891Y-519534D01*
X195201Y-521203D01*
X194891Y-522872D01*
X194117Y-524125D01*
X192724Y-524751D01*
X189007D01*
G01X201408Y-517447D02*
Y-529967D01*
X207602D01*
G01X213034D02*
X216906Y-517447D01*
X220777Y-529967D01*
G01X219383Y-525585D02*
X214428D01*
G01X229306Y-517447D02*
Y-529967D01*
G01X225745Y-517447D02*
X232868D01*
G01X244804Y-529967D02*
X238610D01*
Y-517447D01*
X244804D01*
G01X242327Y-523498D02*
X238610D01*
G01X250702Y-529967D02*
Y-517447D01*
X253798D01*
X255037Y-518074D01*
X255966Y-518908D01*
X256741Y-520160D01*
X257360Y-521621D01*
X257515Y-523707D01*
X257360Y-525794D01*
X256741Y-527255D01*
X255966Y-528507D01*
X255037Y-529341D01*
X253798Y-529967D01*
X250702D01*
G01X138939Y-501856D02*
Y-489336D01*
X146063Y-501856D01*
Y-489336D01*
G01X154902Y-501856D02*
X153663Y-501648D01*
X152579Y-500813D01*
X151650Y-499561D01*
X151030Y-498100D01*
X150721Y-496431D01*
Y-494761D01*
X151030Y-493092D01*
X151650Y-491631D01*
X152579Y-490380D01*
X153663Y-489545D01*
X154902Y-489336D01*
X156141Y-489545D01*
X157224Y-490380D01*
X158154Y-491631D01*
X158773Y-493092D01*
X159083Y-494761D01*
Y-496431D01*
X158773Y-498100D01*
X158154Y-499561D01*
X157224Y-500813D01*
X156141Y-501648D01*
X154902Y-501856D01*
G01X163741D02*
Y-489336D01*
X170864Y-501856D01*
Y-489336D01*
G01X177690Y-497683D02*
X181717D01*
G01X189007Y-501856D02*
Y-489336D01*
X192724D01*
X193962Y-489963D01*
X194891Y-491423D01*
X195201Y-493092D01*
X194891Y-494761D01*
X194117Y-496014D01*
X192724Y-496640D01*
X189007D01*
G01X201408Y-489336D02*
Y-501856D01*
X207602D01*
G01X213034D02*
X216906Y-489336D01*
X220777Y-501856D01*
G01X219383Y-497474D02*
X214428D01*
G01X229306Y-489336D02*
Y-501856D01*
G01X225745Y-489336D02*
X232868D01*
G01X244804Y-501856D02*
X238610D01*
Y-489336D01*
X244804D01*
G01X242327Y-495387D02*
X238610D01*
G01X250702Y-501856D02*
Y-489336D01*
X253798D01*
X255037Y-489963D01*
X255966Y-490797D01*
X256741Y-492049D01*
X257360Y-493510D01*
X257515Y-495596D01*
X257360Y-497683D01*
X256741Y-499144D01*
X255966Y-500396D01*
X255037Y-501230D01*
X253798Y-501856D01*
X250702D01*
G01X164206Y-558078D02*
Y-545558D01*
X167922D01*
X169161Y-546185D01*
X170090Y-547645D01*
X170400Y-549314D01*
X170090Y-550983D01*
X169316Y-552236D01*
X167922Y-552862D01*
X164206D01*
G01X176606Y-545558D02*
Y-558078D01*
X182800D01*
G01X188233D02*
X192104Y-545558D01*
X195976Y-558078D01*
G01X194581Y-553696D02*
X189626D01*
G01X204505Y-545558D02*
Y-558078D01*
G01X200943Y-545558D02*
X208067D01*
G01X220003Y-558078D02*
X213809D01*
Y-545558D01*
X220003D01*
G01X217525Y-551609D02*
X213809D01*
G01X225900Y-558078D02*
Y-545558D01*
X228997D01*
X230235Y-546185D01*
X231165Y-547019D01*
X231939Y-548271D01*
X232558Y-549732D01*
X232713Y-551819D01*
X232558Y-553905D01*
X231939Y-555366D01*
X231165Y-556618D01*
X230235Y-557452D01*
X228997Y-558078D01*
X225900D01*
G01X164206Y-473745D02*
Y-461225D01*
X167922D01*
X169161Y-461852D01*
X170090Y-463312D01*
X170400Y-464981D01*
X170090Y-466650D01*
X169316Y-467903D01*
X167922Y-468529D01*
X164206D01*
G01X176606Y-461225D02*
Y-473745D01*
X182800D01*
G01X188233D02*
X192104Y-461225D01*
X195976Y-473745D01*
G01X194581Y-469363D02*
X189626D01*
G01X204505Y-461225D02*
Y-473745D01*
G01X200943Y-461225D02*
X208067D01*
G01X220003Y-473745D02*
X213809D01*
Y-461225D01*
X220003D01*
G01X217525Y-467276D02*
X213809D01*
G01X225900Y-473745D02*
Y-461225D01*
X228997D01*
X230235Y-461852D01*
X231165Y-462686D01*
X231939Y-463938D01*
X232558Y-465399D01*
X232713Y-467485D01*
X232558Y-469572D01*
X231939Y-471033D01*
X231165Y-472285D01*
X230235Y-473119D01*
X228997Y-473745D01*
X225900D01*
G01X164206Y-445634D02*
Y-433114D01*
X167922D01*
X169161Y-433741D01*
X170090Y-435201D01*
X170400Y-436870D01*
X170090Y-438539D01*
X169316Y-439792D01*
X167922Y-440418D01*
X164206D01*
G01X176606Y-433114D02*
Y-445634D01*
X182800D01*
G01X188233D02*
X192104Y-433114D01*
X195976Y-445634D01*
G01X194581Y-441252D02*
X189626D01*
G01X204505Y-433114D02*
Y-445634D01*
G01X200943Y-433114D02*
X208067D01*
G01X220003Y-445634D02*
X213809D01*
Y-433114D01*
X220003D01*
G01X217525Y-439165D02*
X213809D01*
G01X225900Y-445634D02*
Y-433114D01*
X228997D01*
X230235Y-433741D01*
X231165Y-434575D01*
X231939Y-435827D01*
X232558Y-437288D01*
X232713Y-439374D01*
X232558Y-441461D01*
X231939Y-442922D01*
X231165Y-444174D01*
X230235Y-445008D01*
X228997Y-445634D01*
X225900D01*
G01X164206Y-417523D02*
Y-405003D01*
X167922D01*
X169161Y-405630D01*
X170090Y-407090D01*
X170400Y-408759D01*
X170090Y-410428D01*
X169316Y-411681D01*
X167922Y-412307D01*
X164206D01*
G01X176606Y-405003D02*
Y-417523D01*
X182800D01*
G01X188233D02*
X192104Y-405003D01*
X195976Y-417523D01*
G01X194581Y-413141D02*
X189626D01*
G01X204505Y-405003D02*
Y-417523D01*
G01X200943Y-405003D02*
X208067D01*
G01X220003Y-417523D02*
X213809D01*
Y-405003D01*
X220003D01*
G01X217525Y-411054D02*
X213809D01*
G01X225900Y-417523D02*
Y-405003D01*
X228997D01*
X230235Y-405630D01*
X231165Y-406464D01*
X231939Y-407716D01*
X232558Y-409177D01*
X232713Y-411263D01*
X232558Y-413350D01*
X231939Y-414811D01*
X231165Y-416063D01*
X230235Y-416897D01*
X228997Y-417523D01*
X225900D01*
G01X164206Y-389413D02*
Y-376893D01*
X167922D01*
X169161Y-377519D01*
X170090Y-378979D01*
X170400Y-380648D01*
X170090Y-382318D01*
X169316Y-383570D01*
X167922Y-384196D01*
X164206D01*
G01X176606Y-376893D02*
Y-389413D01*
X182800D01*
G01X188233D02*
X192104Y-376893D01*
X195976Y-389413D01*
G01X194581Y-385031D02*
X189626D01*
G01X204505Y-376893D02*
Y-389413D01*
G01X200943Y-376893D02*
X208067D01*
G01X220003Y-389413D02*
X213809D01*
Y-376893D01*
X220003D01*
G01X217525Y-382944D02*
X213809D01*
G01X225900Y-389413D02*
Y-376893D01*
X228997D01*
X230235Y-377519D01*
X231165Y-378353D01*
X231939Y-379605D01*
X232558Y-381066D01*
X232713Y-383153D01*
X232558Y-385239D01*
X231939Y-386700D01*
X231165Y-387952D01*
X230235Y-388787D01*
X228997Y-389413D01*
X225900D01*
G01X164206Y-361302D02*
Y-348781D01*
X167922D01*
X169161Y-349408D01*
X170090Y-350868D01*
X170400Y-352537D01*
X170090Y-354207D01*
X169316Y-355459D01*
X167922Y-356085D01*
X164206D01*
G01X176606Y-348781D02*
Y-361302D01*
X182800D01*
G01X188233D02*
X192104Y-348781D01*
X195976Y-361302D01*
G01X194581Y-356920D02*
X189626D01*
G01X204505Y-348781D02*
Y-361302D01*
G01X200943Y-348781D02*
X208067D01*
G01X220003Y-361302D02*
X213809D01*
Y-348781D01*
X220003D01*
G01X217525Y-354833D02*
X213809D01*
G01X225900Y-361302D02*
Y-348781D01*
X228997D01*
X230235Y-349408D01*
X231165Y-350242D01*
X231939Y-351494D01*
X232558Y-352955D01*
X232713Y-355042D01*
X232558Y-357128D01*
X231939Y-358589D01*
X231165Y-359841D01*
X230235Y-360676D01*
X228997Y-361302D01*
X225900D01*
G01X164206Y-331655D02*
Y-319135D01*
X167922D01*
X169161Y-319761D01*
X170090Y-321222D01*
X170400Y-322891D01*
X170090Y-324560D01*
X169316Y-325813D01*
X167922Y-326439D01*
X164206D01*
G01X176606Y-319135D02*
Y-331655D01*
X182800D01*
G01X188233D02*
X192104Y-319135D01*
X195976Y-331655D01*
G01X194581Y-327273D02*
X189626D01*
G01X204505Y-319135D02*
Y-331655D01*
G01X200943Y-319135D02*
X208067D01*
G01X220003Y-331655D02*
X213809D01*
Y-319135D01*
X220003D01*
G01X217525Y-325186D02*
X213809D01*
G01X225900Y-331655D02*
Y-319135D01*
X228997D01*
X230235Y-319761D01*
X231165Y-320596D01*
X231939Y-321848D01*
X232558Y-323309D01*
X232713Y-325395D01*
X232558Y-327482D01*
X231939Y-328943D01*
X231165Y-330195D01*
X230235Y-331029D01*
X228997Y-331655D01*
X225900D01*
G01X290078Y-361302D02*
Y-348781D01*
X284348Y-357754D01*
X292091D01*
G01X300620Y-361302D02*
Y-348781D01*
X298763Y-351285D01*
G01Y-361302D02*
X302479D01*
G01X310389Y-359841D02*
X311473Y-360884D01*
X312712Y-361302D01*
X313950Y-360884D01*
X315035Y-359633D01*
X315809Y-357754D01*
X316119Y-355876D01*
Y-353581D01*
X315809Y-351703D01*
X315035Y-350033D01*
X314105Y-349199D01*
X313021Y-348781D01*
X311783Y-349199D01*
X310854Y-350033D01*
X310234Y-351285D01*
X309924Y-352955D01*
X310234Y-354415D01*
X311008Y-355876D01*
X311938Y-356711D01*
X313021Y-356920D01*
X314260Y-356502D01*
X315189Y-355459D01*
X316119Y-353581D01*
G01X288220Y-331655D02*
X286981Y-331446D01*
X285897Y-330612D01*
X284968Y-329360D01*
X284348Y-327899D01*
X284039Y-326230D01*
Y-324560D01*
X284348Y-322891D01*
X284968Y-321430D01*
X285897Y-320178D01*
X286981Y-319344D01*
X288220Y-319135D01*
X289459Y-319344D01*
X290543Y-320178D01*
X291472Y-321430D01*
X292091Y-322891D01*
X292401Y-324560D01*
Y-326230D01*
X292091Y-327899D01*
X291472Y-329360D01*
X290543Y-330612D01*
X289459Y-331446D01*
X288220Y-331655D01*
G01X289459Y-328317D02*
X291317Y-331655D01*
G01X300620Y-319135D02*
Y-331655D01*
G01X297059Y-319135D02*
X304182D01*
G01X313021Y-331655D02*
Y-326021D01*
X309924Y-319135D01*
G01X316119D02*
X313021Y-326021D01*
G01X300620Y-558078D02*
X301704Y-557870D01*
X302943Y-557244D01*
X303718Y-556201D01*
X304027Y-554740D01*
X303718Y-553279D01*
X302789Y-552027D01*
X301395Y-551401D01*
X299846D01*
X298917Y-550983D01*
X298143Y-549941D01*
X297833Y-548480D01*
X298298Y-547019D01*
X299382Y-545976D01*
X300620Y-545558D01*
X301859Y-545976D01*
X302943Y-547019D01*
X303408Y-548480D01*
X303098Y-549941D01*
X302324Y-550983D01*
X301395Y-551401D01*
X299846D01*
X298453Y-552027D01*
X297524Y-553279D01*
X297214Y-554740D01*
X297524Y-556201D01*
X298298Y-557244D01*
X299537Y-557870D01*
X300620Y-558078D01*
G01X302479Y-529967D02*
Y-517447D01*
X296749Y-526420D01*
X304492D01*
G01X302479Y-501856D02*
Y-489336D01*
X296749Y-498309D01*
X304492D01*
G01X294420Y-473745D02*
Y-461225D01*
X292562Y-463729D01*
G01Y-473745D02*
X296278D01*
G01X306821D02*
Y-461225D01*
X304963Y-463729D01*
G01Y-473745D02*
X308679D01*
G01X291014Y-443757D02*
X291943Y-444800D01*
X293026Y-445426D01*
X294420Y-445634D01*
X295814Y-445217D01*
X296898Y-444383D01*
X297672Y-442922D01*
X297827Y-441252D01*
X297517Y-439583D01*
X296743Y-438539D01*
X295659Y-437705D01*
X294575Y-437496D01*
X293491Y-437705D01*
X292098Y-438539D01*
X292562Y-433114D01*
X296743D01*
G01X306821D02*
X305582Y-433531D01*
X304653Y-434575D01*
X304034Y-435827D01*
X303569Y-437496D01*
X303415Y-439374D01*
X303569Y-441252D01*
X304034Y-442922D01*
X304653Y-444174D01*
X305582Y-445217D01*
X306821Y-445634D01*
X308060Y-445217D01*
X308989Y-444174D01*
X309608Y-442922D01*
X310073Y-441252D01*
X310228Y-439374D01*
X310073Y-437496D01*
X309608Y-435827D01*
X308989Y-434575D01*
X308060Y-433531D01*
X306821Y-433114D01*
G01X302479Y-417523D02*
Y-405003D01*
X296749Y-413976D01*
X304492D01*
G01X300620Y-389413D02*
Y-376893D01*
X298763Y-379396D01*
G01Y-389413D02*
X302479D01*
M02*
