G04 ================== begin FILE IDENTIFICATION RECORD ==================*
G04 Layout Name:  E:/Ó²¼þ/W600/arduino/SCH&PCB/PCB_V1.1/Arduino_board_2.brd*
G04 Film Name:    paste_top*
G04 File Format:  Gerber RS274X*
G04 File Origin:  Cadence Allegro 16.6-P004*
G04 Origin Date:  Fri Sep 28 20:25:15 2018*
G04 *
G04 Layer:  PACKAGE GEOMETRY/PASTEMASK_TOP*
G04 Layer:  PIN/PASTEMASK_TOP*
G04 Layer:  BOARD GEOMETRY/OUTLINE*
G04 *
G04 Offset:    (0.0000 0.0000)*
G04 Mirror:    No*
G04 Mode:      Positive*
G04 Rotation:  0*
G04 FullContactRelief:  No*
G04 UndefLineWidth:     0.1999*
G04 ================== end FILE IDENTIFICATION RECORD ====================*
%FSLAX25Y25*MOIN*%
%IR0*IPPOS*OFA0.00000B0.00000*MIA0B0*SFA1.00000B1.00000*%
%ADD30R,.015748X.07874*%
%ADD28R,.009843X.047244*%
%ADD34R,.024016X.082677*%
%ADD29O,.035433X.055118*%
%AMMACRO22*
21,1,.009843,.027559,0.0,0.0,135.*%
%ADD22MACRO22*%
%AMMACRO23*
21,1,.149606,.149606,0.0,0.0,135.*%
%ADD23MACRO23*%
%ADD13R,.04X.03*%
%ADD31R,.03X.04*%
%ADD26R,.037402X.08465*%
%ADD25R,.1X.03*%
%AMMACRO19*
21,1,.025,.02,0.0,0.0,135.*%
%ADD19MACRO19*%
%ADD15R,.05315X.03937*%
%ADD32C,.03937*%
%AMMACRO24*
21,1,.009843,.027559,0.0,0.0,45.*%
%ADD24MACRO24*%
%ADD33R,.05X.05*%
%AMMACRO21*
21,1,.025,.02,0.0,0.0,45.*%
%ADD21MACRO21*%
%ADD20R,.02X.025*%
%ADD14R,.025X.02*%
%ADD11R,.064961X.064961*%
%ADD27R,.127949X.08465*%
%ADD16R,.08661X.041339*%
%ADD10C,.066*%
%AMMACRO17*
4,1,40,-.020079,-.02598,
.020079,-.02598,
.020762,-.025921,
.021426,-.025744,
.022048,-.025455,
.02261,-.025062,
.023096,-.024577,
.02349,-.024015,
.023781,-.023394,
.023959,-.022731,
.02402,-.022051,
.02402,.022051,
.023959,.022735,
.02378,.023397,
.023488,.024019,
.023094,.02458,
.022607,.025064,
.022044,.025457,
.021422,.025746,
.020759,.025922,
.020079,.02598,
-.020079,.02598,
-.020762,.025921,
-.021426,.025744,
-.022048,.025455,
-.02261,.025062,
-.023096,.024577,
-.02349,.024015,
-.023781,.023394,
-.023959,.022731,
-.02402,.022051,
-.02402,-.022051,
-.023959,-.022735,
-.02378,-.023397,
-.023488,-.024019,
-.023094,-.02458,
-.022607,-.025064,
-.022044,-.025457,
-.021422,-.025746,
-.020759,-.025922,
-.020079,-.02598,
0.0*
%
%ADD17MACRO17*%
%ADD12R,.062X.082*%
%AMMACRO18*
4,1,40,.026571,-.012799,
.026571,.012799,
.02651,.013482,
.026332,.014145,
.026041,.014766,
.025647,.015327,
.025161,.015811,
.024599,.016204,
.023977,.016493,
.023315,.016669,
.022642,.016728,
-.022642,.016728,
-.023325,.016668,
-.023987,.016489,
-.024608,.016199,
-.025169,.015805,
-.025654,.015319,
-.026046,.014757,
-.026335,.014135,
-.026512,.013472,
-.026571,.012799,
-.026571,-.012799,
-.02651,-.013482,
-.026332,-.014145,
-.026041,-.014766,
-.025647,-.015327,
-.025161,-.015811,
-.024599,-.016204,
-.023977,-.016493,
-.023315,-.016669,
-.022642,-.016728,
.022642,-.016728,
.023325,-.016668,
.023987,-.016489,
.024608,-.016199,
.025169,-.015805,
.025654,-.015319,
.026046,-.014757,
.026335,-.014135,
.026512,-.013472,
.026571,-.012799,
0.0*
%
%ADD18MACRO18*%
%ADD35C,.003937*%
%ADD36C,.002*%
G75*
%LPD*%
G75*
G54D10*
X13268Y-184882D03*
X23425D03*
X13268Y-164882D03*
Y-174882D03*
X23425Y-164882D03*
Y-174882D03*
X13268Y-154882D03*
Y-144882D03*
X23425Y-154882D03*
Y-144882D03*
X13268Y-104882D03*
Y-114882D03*
X23622Y-104606D03*
Y-114606D03*
X13268Y-84882D03*
Y-94882D03*
X23622Y-94606D03*
Y-84606D03*
X13268Y-64882D03*
Y-74882D03*
X23622Y-74606D03*
X13268Y-54882D03*
X192323Y-175276D03*
X192598Y-165157D03*
Y-155157D03*
Y-145157D03*
Y-135157D03*
X193307Y-98622D03*
Y-79094D03*
Y-69094D03*
Y-48898D03*
Y-38898D03*
Y-28898D03*
Y-18898D03*
X203268Y-184882D03*
Y-164882D03*
Y-174882D03*
Y-144882D03*
Y-154882D03*
Y-134882D03*
Y-124882D03*
Y-88898D03*
Y-98898D03*
Y-68898D03*
Y-78898D03*
Y-48898D03*
Y-58898D03*
Y-28898D03*
Y-38898D03*
Y-18898D03*
G54D11*
X13268Y-134882D03*
X23425D03*
X23622Y-64606D03*
X13268Y-44882D03*
X192323Y-185276D03*
X192598Y-125157D03*
X193307Y-88622D03*
Y-59094D03*
Y-8898D03*
X203268Y-114882D03*
Y-8898D03*
G54D20*
X65551Y-180685D03*
Y-184685D03*
X68701Y-165394D03*
Y-169394D03*
G54D12*
X12992Y-34488D03*
Y-4961D03*
X41496Y-34646D03*
Y-5118D03*
X218976Y-226772D03*
Y-197244D03*
G54D21*
X72172Y-173734D03*
X75000Y-170906D03*
G54D30*
X77362Y-16575D03*
X79921D03*
X82480D03*
X85039D03*
X87598D03*
X143898D03*
X146457D03*
X149016D03*
X151575D03*
X154134D03*
G54D31*
X97832Y-172380D03*
X91732Y-172480D03*
X94486Y-43798D03*
X88386Y-43898D03*
X166181Y-45118D03*
X160081D03*
X159803Y-63504D03*
X165903D03*
X166063Y-57598D03*
X159963D03*
X166102Y-51732D03*
X160002D03*
X168110Y-28858D03*
X162010D03*
X168071Y-35118D03*
X161971D03*
G54D13*
X32480Y-49843D03*
X26378D03*
X39567D03*
X32480Y-43743D03*
X26378D03*
X39567D03*
X45472Y-49843D03*
X62244Y-33189D03*
Y-39289D03*
X45472Y-43743D03*
X64076Y-171100D03*
X63976Y-165000D03*
X81890Y-57520D03*
Y-51420D03*
X75984Y-51417D03*
Y-57517D03*
X68404Y-33113D03*
X68504Y-39213D03*
X96357Y-105554D03*
X96457Y-111654D03*
X97144Y-86656D03*
X97244Y-92756D03*
X103050Y-105554D03*
X103150Y-111654D03*
X103050Y-86656D03*
X103150Y-92756D03*
X135727Y-33703D03*
X135827Y-39803D03*
X148622Y-59291D03*
Y-53191D03*
X143110Y-53189D03*
Y-59289D03*
X155412Y-33703D03*
X155512Y-39803D03*
X209685Y-211181D03*
Y-205081D03*
G54D22*
X75415Y-159453D03*
X76807Y-160844D03*
X78199Y-162237D03*
X79591Y-163629D03*
X80983Y-165020D03*
X71239Y-155277D03*
X72631Y-156669D03*
X74023Y-158061D03*
X94902Y-151101D03*
X93511Y-149709D03*
X92119Y-148317D03*
X90726Y-146925D03*
X89335Y-145533D03*
X87943Y-144141D03*
X86551Y-142749D03*
X85159Y-141357D03*
G54D14*
X61417Y-180748D03*
X50331Y-165787D03*
X54331D03*
X49346Y-147087D03*
X53346D03*
X65417Y-180748D03*
X92457Y-166772D03*
X96457D03*
X90354Y-137441D03*
X94354D03*
X90354Y-133504D03*
X94354D03*
X103937Y-154567D03*
X107937D03*
G54D32*
X134902Y-155394D03*
X149665D03*
X139823D03*
X144744D03*
G54D23*
X83071Y-153189D03*
G54D33*
X135354Y-132185D03*
Y-124685D03*
X148583Y-132185D03*
Y-124685D03*
X142008Y-132224D03*
Y-124724D03*
G54D24*
X80983Y-141357D03*
X79591Y-142749D03*
X78199Y-144141D03*
X76807Y-145533D03*
X75415Y-146925D03*
X74023Y-148317D03*
X72631Y-149709D03*
X71239Y-151101D03*
X85159Y-165020D03*
X86551Y-163629D03*
X87943Y-162237D03*
X89335Y-160844D03*
X90726Y-159453D03*
X92119Y-158061D03*
X93511Y-156669D03*
X94902Y-155277D03*
G54D15*
X55762Y-180354D03*
G54D16*
X49362Y-186354D03*
Y-174354D03*
G54D25*
X67324Y-111654D03*
X86024D03*
G54D34*
X132165Y-114724D03*
Y-80866D03*
X142165Y-115079D03*
X152165Y-114724D03*
Y-80866D03*
X142165D03*
G54D35*
G01X-10027Y-4267D02*
Y-232010D01*
G02X-10039Y-232039I-42J0D01*
G01X216535Y-236220D02*
X0D01*
G01X633Y-236198D02*
G02X-9987Y-231800I-1397J11646D01*
G01X0Y0D02*
X216535D01*
G01X-9948Y-4188D02*
G02X222Y25I10170J-10170D01*
G01X-10027Y-4267D02*
X-9948Y-4188D01*
G01X228331Y-231827D02*
G02X217712Y-236226I-9223J7247D01*
G01X216535Y0D02*
G02X227155Y-4398I0J-15018D01*
G01X228268Y-5512D01*
Y-231929D01*
G01X217712Y-236226D02*
X216137D01*
G01X218019Y-236220D02*
X216535D01*
G54D17*
X48858Y-160906D03*
X55551D03*
X48858Y-152244D03*
X55551D03*
G54D26*
X77756Y-92756D03*
X68701D03*
X86811D03*
G54D36*
G01X53762Y-176554D02*
Y-175954D01*
G54D18*
X59173Y-10728D03*
Y-3445D03*
G54D27*
X77756Y-69922D03*
G54D19*
X72244Y-179331D03*
X69416Y-176502D03*
X77683Y-168274D03*
X80512Y-171102D03*
G54D28*
X78543Y-44134D03*
X76575D03*
X74606D03*
Y-27598D03*
X76575D03*
X78543D03*
X82480Y-44134D03*
X80512D03*
Y-27598D03*
X82480D03*
X149016Y-45906D03*
X147047D03*
X145079D03*
X143110D03*
X141142D03*
Y-29370D03*
X143110D03*
X145079D03*
X147047D03*
X149016D03*
G54D29*
X68406Y-17953D03*
Y-4370D03*
X96555Y-17953D03*
Y-4370D03*
X134941Y-17953D03*
Y-4370D03*
X163091Y-17953D03*
Y-4370D03*
M02*
