G04 ================== begin FILE IDENTIFICATION RECORD ==================*
G04 Layout Name:  E:/Ó²¼þ/W600/arduino/SCH&PCB/PCB_V1.1/Arduino_board_2.brd*
G04 Film Name:    solder_top*
G04 File Format:  Gerber RS274X*
G04 File Origin:  Cadence Allegro 16.6-P004*
G04 Origin Date:  Fri Sep 28 20:25:15 2018*
G04 *
G04 Layer:  VIA CLASS/SOLDERMASK_TOP*
G04 Layer:  PIN/SOLDERMASK_TOP*
G04 Layer:  PACKAGE GEOMETRY/SOLDERMASK_TOP*
G04 Layer:  BOARD GEOMETRY/OUTLINE*
G04 Layer:  BOARD GEOMETRY/SOLDERMASK_TOP*
G04 *
G04 Offset:    (0.0000 0.0000)*
G04 Mirror:    No*
G04 Mode:      Positive*
G04 Rotation:  0*
G04 FullContactRelief:  No*
G04 UndefLineWidth:     0.1999*
G04 ================== end FILE IDENTIFICATION RECORD ====================*
%FSLAX25Y25*MOIN*%
%IR0*IPPOS*OFA0.00000B0.00000*MIA0B0*SFA1.00000B1.00000*%
%AMMACRO20*
4,1,40,.028539,-.01476,
.028539,.01476,
.02848,.015443,
.028304,.016106,
.028015,.016728,
.027622,.017291,
.027138,.017777,
.026576,.018171,
.025955,.018462,
.025292,.01864,
.02461,.018701,
-.02461,.018701,
-.025294,.01864,
-.025956,.018461,
-.026577,.01817,
-.027139,.017776,
-.027623,.01729,
-.028015,.016727,
-.028304,.016105,
-.028481,.015442,
-.028539,.01476,
-.028539,-.01476,
-.02848,-.015443,
-.028304,-.016106,
-.028015,-.016728,
-.027622,-.017291,
-.027138,-.017777,
-.026576,-.018171,
-.025955,-.018462,
-.025292,-.01864,
-.02461,-.018701,
.02461,-.018701,
.025294,-.01864,
.025956,-.018461,
.026577,-.01817,
.027139,-.017776,
.027623,-.01729,
.028015,-.016727,
.028304,-.016105,
.028481,-.015442,
.028539,-.01476,
0.0*
%
%ADD20MACRO20*%
%ADD37R,.024016X.082677*%
%ADD30R,.009843X.047638*%
%ADD33R,.019685X.094488*%
%AMMACRO24*
21,1,.010236,.027953,0.0,0.0,135.*%
%ADD24MACRO24*%
%AMMACRO25*
21,1,.15,.15,0.0,0.0,135.*%
%ADD25MACRO25*%
%ADD32C,.035433*%
%ADD14R,.042X.032*%
%ADD34R,.032X.042*%
%ADD27R,.102X.032*%
%AMMACRO21*
21,1,.029,.024,0.0,0.0,135.*%
%ADD21MACRO21*%
%ADD31O,.059055X.07874*%
%ADD28R,.043311X.090551*%
%ADD29R,.133858X.090551*%
%ADD35C,.043307*%
%ADD17R,.059059X.04528*%
%AMMACRO26*
21,1,.010236,.027953,0.0,0.0,45.*%
%ADD26MACRO26*%
%ADD10C,.098425*%
%ADD11C,.07087*%
%ADD36R,.052X.052*%
%ADD12R,.070866X.070866*%
%ADD18R,.09661X.051339*%
%ADD15R,.025X.022*%
%ADD13R,.062X.082*%
%AMMACRO19*
4,1,40,-.022051,-.027949,
.022051,-.027949,
.022734,-.027888,
.023397,-.02771,
.024018,-.027419,
.024579,-.027025,
.025063,-.026539,
.025456,-.025977,
.025745,-.025355,
.025921,-.024692,
.02598,-.02402,
.02598,.02402,
.02592,.024703,
.025741,.025365,
.025451,.025986,
.025056,.026547,
.024571,.027032,
.024009,.027424,
.023387,.027713,
.022724,.02789,
.022051,.027949,
-.022051,.027949,
-.022734,.027888,
-.023397,.02771,
-.024018,.027419,
-.024579,.027025,
-.025063,.026539,
-.025456,.025977,
-.025745,.025355,
-.025921,.024692,
-.02598,.02402,
-.02598,-.02402,
-.02592,-.024703,
-.025741,-.025365,
-.025451,-.025986,
-.025056,-.026547,
-.024571,-.027032,
-.024009,-.027424,
-.023387,-.027713,
-.022724,-.02789,
-.022051,-.027949,
0.0*
%
%ADD19MACRO19*%
%AMMACRO23*
21,1,.029,.024,0.0,0.0,45.*%
%ADD23MACRO23*%
%ADD22R,.024X.029*%
%ADD16R,.029X.024*%
%ADD38C,.003937*%
%ADD39C,.005906*%
%ADD40C,.002*%
G75*
%LPD*%
G75*
G54D10*
X-591Y-226102D03*
X-3740Y-38819D03*
X202283Y-225787D03*
X221339Y-30866D03*
G54D11*
X13268Y-184882D03*
X23425D03*
X13268Y-164882D03*
Y-174882D03*
X23425Y-164882D03*
Y-174882D03*
X13268Y-154882D03*
Y-144882D03*
X23425Y-154882D03*
Y-144882D03*
X13268Y-104882D03*
Y-114882D03*
X23622Y-104606D03*
Y-114606D03*
X13268Y-84882D03*
Y-94882D03*
X23622Y-94606D03*
Y-84606D03*
X13268Y-64882D03*
Y-74882D03*
X23622Y-74606D03*
X13268Y-54882D03*
X192323Y-175276D03*
X192598Y-165157D03*
Y-155157D03*
Y-145157D03*
Y-135157D03*
X193307Y-98622D03*
Y-79094D03*
Y-69094D03*
Y-48898D03*
Y-38898D03*
Y-28898D03*
Y-18898D03*
X203268Y-184882D03*
Y-164882D03*
Y-174882D03*
Y-144882D03*
Y-154882D03*
Y-134882D03*
Y-124882D03*
Y-88898D03*
Y-98898D03*
Y-68898D03*
Y-78898D03*
Y-48898D03*
Y-58898D03*
Y-28898D03*
Y-38898D03*
Y-18898D03*
G54D20*
X59173Y-10728D03*
Y-3445D03*
G54D12*
X13268Y-134882D03*
X23425D03*
X23622Y-64606D03*
X13268Y-44882D03*
X192323Y-185276D03*
X192598Y-125157D03*
X193307Y-88622D03*
Y-59094D03*
Y-8898D03*
X203268Y-114882D03*
Y-8898D03*
G54D21*
X72244Y-179331D03*
X69416Y-176502D03*
X77683Y-168274D03*
X80512Y-171102D03*
G54D30*
X78543Y-44134D03*
X76575D03*
X74606D03*
Y-27598D03*
X76575D03*
X78543D03*
X82480Y-44134D03*
X80512D03*
Y-27598D03*
X82480D03*
X149016Y-45906D03*
X147047D03*
X145079D03*
X143110D03*
X141142D03*
Y-29370D03*
X143110D03*
X145079D03*
X147047D03*
X149016D03*
G54D40*
G01X53762Y-176554D02*
Y-175954D01*
G54D22*
X65551Y-180685D03*
Y-184685D03*
X68701Y-165394D03*
Y-169394D03*
G54D13*
X12992Y-34488D03*
Y-4961D03*
X41496Y-34646D03*
Y-5118D03*
X218976Y-226772D03*
Y-197244D03*
G54D31*
X68406Y-17953D03*
Y-4370D03*
X96555Y-17953D03*
Y-4370D03*
X134941Y-17953D03*
Y-4370D03*
X163091Y-17953D03*
Y-4370D03*
G54D23*
X72172Y-173734D03*
X75000Y-170906D03*
G54D14*
X32480Y-49843D03*
X26378D03*
X39567D03*
X32480Y-43743D03*
X26378D03*
X39567D03*
X45472Y-49843D03*
X62244Y-33189D03*
Y-39289D03*
X45472Y-43743D03*
X64076Y-171100D03*
X63976Y-165000D03*
X81890Y-57520D03*
Y-51420D03*
X75984Y-51417D03*
Y-57517D03*
X68404Y-33113D03*
X68504Y-39213D03*
X96357Y-105554D03*
X96457Y-111654D03*
X97144Y-86656D03*
X97244Y-92756D03*
X103050Y-105554D03*
X103150Y-111654D03*
X103050Y-86656D03*
X103150Y-92756D03*
X135727Y-33703D03*
X135827Y-39803D03*
X148622Y-59291D03*
Y-53191D03*
X143110Y-53189D03*
Y-59289D03*
X155412Y-33703D03*
X155512Y-39803D03*
X209685Y-211181D03*
Y-205081D03*
G54D32*
X74606Y-13031D03*
X90354D03*
X156890D03*
X141142D03*
G54D15*
X57953Y-203268D03*
X52992Y-193031D03*
X61614Y-192953D03*
G54D24*
X75415Y-159453D03*
X76807Y-160844D03*
X78199Y-162237D03*
X79591Y-163629D03*
X80983Y-165020D03*
X71239Y-155277D03*
X72631Y-156669D03*
X74023Y-158061D03*
X94902Y-151101D03*
X93511Y-149709D03*
X92119Y-148317D03*
X90726Y-146925D03*
X89335Y-145533D03*
X87943Y-144141D03*
X86551Y-142749D03*
X85159Y-141357D03*
G54D33*
X77362Y-16575D03*
X79921D03*
X82480D03*
X85039D03*
X87598D03*
X143898D03*
X146457D03*
X149016D03*
X151575D03*
X154134D03*
G54D16*
X61417Y-180748D03*
X50331Y-165787D03*
X54331D03*
X49346Y-147087D03*
X53346D03*
X65417Y-180748D03*
X92457Y-166772D03*
X96457D03*
X90354Y-137441D03*
X94354D03*
X90354Y-133504D03*
X94354D03*
X103937Y-154567D03*
X107937D03*
G54D34*
X97832Y-172380D03*
X91732Y-172480D03*
X94486Y-43798D03*
X88386Y-43898D03*
X166181Y-45118D03*
X160081D03*
X159803Y-63504D03*
X165903D03*
X166063Y-57598D03*
X159963D03*
X166102Y-51732D03*
X160002D03*
X168110Y-28858D03*
X162010D03*
X168071Y-35118D03*
X161971D03*
G54D25*
X83071Y-153189D03*
G54D26*
X80983Y-141357D03*
X79591Y-142749D03*
X78199Y-144141D03*
X76807Y-145533D03*
X75415Y-146925D03*
X74023Y-148317D03*
X72631Y-149709D03*
X71239Y-151101D03*
X85159Y-165020D03*
X86551Y-163629D03*
X87943Y-162237D03*
X89335Y-160844D03*
X90726Y-159453D03*
X92119Y-158061D03*
X93511Y-156669D03*
X94902Y-155277D03*
G54D17*
X55762Y-180354D03*
G54D35*
X134902Y-155394D03*
X149665D03*
X139823D03*
X144744D03*
G54D18*
X49362Y-186354D03*
Y-174354D03*
G54D36*
X135354Y-132185D03*
Y-124685D03*
X148583Y-132185D03*
Y-124685D03*
X142008Y-132224D03*
Y-124724D03*
G54D27*
X67324Y-111654D03*
X86024D03*
G54D19*
X48858Y-160906D03*
X55551D03*
X48858Y-152244D03*
X55551D03*
G54D28*
X77756Y-92756D03*
X68701D03*
X86811D03*
G54D37*
X132165Y-114724D03*
Y-80866D03*
X142165Y-115079D03*
X152165Y-114724D03*
Y-80866D03*
X142165D03*
G54D38*
G01X-10027Y-4267D02*
Y-232010D01*
G02X-10039Y-232039I-42J0D01*
G01X216535Y-236220D02*
X0D01*
G01X633Y-236198D02*
G02X-9987Y-231800I-1397J11646D01*
G01X0Y0D02*
X216535D01*
G01X-9948Y-4188D02*
G02X222Y25I10170J-10170D01*
G01X-10027Y-4267D02*
X-9948Y-4188D01*
G01X228331Y-231827D02*
G02X217712Y-236226I-9223J7247D01*
G01X216535Y0D02*
G02X227155Y-4398I0J-15018D01*
G01X228268Y-5512D01*
Y-231929D01*
G01X217712Y-236226D02*
X216137D01*
G01X218019Y-236220D02*
X216535D01*
G54D29*
X77756Y-69922D03*
G54D39*
G01X41732Y-145144D02*
X38346D01*
X37638Y-145354D01*
X37165Y-145774D01*
X37008Y-146299D01*
X37165Y-146824D01*
X37638Y-147244D01*
X38346Y-147454D01*
X41732D01*
G01X37008Y-148924D02*
X41732Y-150236D01*
X37008Y-151548D01*
G01X38661Y-151076D02*
Y-149396D01*
G01X37008Y-153123D02*
X41732D01*
Y-154436D01*
X41496Y-154856D01*
X41181Y-155118D01*
X40551Y-155223D01*
X39921Y-155118D01*
X39528Y-154803D01*
X39291Y-154436D01*
Y-153123D01*
G01Y-154436D02*
X37008Y-155223D01*
G01X41732Y-158110D02*
X37008D01*
G01X41732Y-156903D02*
Y-159318D01*
G01X37008Y-162047D02*
X41732D01*
X40787Y-161417D01*
G01X37008D02*
Y-162677D01*
G01X48661Y-99921D02*
Y-101181D01*
G01Y-100551D02*
X43937D01*
G01Y-99921D02*
Y-101181D01*
G01X47874Y-103491D02*
X48346Y-103806D01*
X48583Y-104173D01*
X48661Y-104593D01*
X48504Y-105118D01*
X48110Y-105485D01*
X47638Y-105591D01*
X47165Y-105538D01*
X46772Y-105328D01*
X45984Y-104278D01*
X45433Y-103806D01*
X44646Y-103491D01*
X43937Y-103386D01*
Y-105591D01*
G01X48268Y-109580D02*
X48504Y-109265D01*
X48661Y-108898D01*
Y-108478D01*
X48425Y-108005D01*
X48031Y-107638D01*
X47559Y-107375D01*
X46772Y-107165D01*
X46063Y-107113D01*
X45354Y-107218D01*
X44882Y-107375D01*
X44409Y-107690D01*
X44094Y-108058D01*
X43937Y-108425D01*
Y-108793D01*
X44094Y-109160D01*
X44331Y-109475D01*
X44646Y-109737D01*
G01X42362Y-110787D02*
Y-113937D01*
G01X43937Y-116299D02*
X48661D01*
X47717Y-115669D01*
G01X43937D02*
Y-116929D01*
G01X48661Y-75000D02*
Y-76260D01*
G01Y-75630D02*
X43937D01*
G01Y-75000D02*
Y-76260D01*
G01X47874Y-78570D02*
X48346Y-78885D01*
X48583Y-79252D01*
X48661Y-79672D01*
X48504Y-80197D01*
X48110Y-80564D01*
X47638Y-80669D01*
X47165Y-80617D01*
X46772Y-80407D01*
X45984Y-79357D01*
X45433Y-78885D01*
X44646Y-78570D01*
X43937Y-78465D01*
Y-80669D01*
G01X44567Y-82402D02*
X44173Y-82822D01*
X43937Y-83294D01*
Y-83714D01*
X44173Y-84134D01*
X44567Y-84449D01*
X45118Y-84606D01*
X45669Y-84501D01*
X46142Y-84239D01*
X46457Y-83767D01*
X46614Y-83137D01*
X46929Y-82769D01*
X47480Y-82611D01*
X48031Y-82717D01*
X48425Y-82979D01*
X48661Y-83346D01*
Y-83714D01*
X48504Y-84081D01*
X48110Y-84396D01*
G01X42362Y-85866D02*
Y-89016D01*
G01X43937Y-90013D02*
X48661D01*
X44724Y-91378D01*
X48661Y-92743D01*
X43937D01*
G01X171260Y-183071D02*
X171654Y-182651D01*
X171890Y-182178D01*
Y-181759D01*
X171654Y-181339D01*
X171260Y-181024D01*
X170709Y-180866D01*
X170157Y-180971D01*
X169685Y-181233D01*
X169370Y-181706D01*
X169213Y-182336D01*
X168898Y-182704D01*
X168346Y-182861D01*
X167795Y-182756D01*
X167402Y-182493D01*
X167165Y-182126D01*
Y-181759D01*
X167323Y-181391D01*
X167717Y-181076D01*
G01X167165Y-179606D02*
X171890Y-178871D01*
X167165Y-178031D01*
X171890Y-177192D01*
X167165Y-176457D01*
G01X171890Y-175249D02*
X167165D01*
Y-174200D01*
X167402Y-173780D01*
X167717Y-173465D01*
X168189Y-173202D01*
X168740Y-172992D01*
X169528Y-172940D01*
X170315Y-172992D01*
X170866Y-173202D01*
X171339Y-173465D01*
X171654Y-173780D01*
X171890Y-174200D01*
Y-175249D01*
G01X171654Y-161693D02*
X172047Y-161273D01*
X172283Y-160800D01*
Y-160381D01*
X172047Y-159961D01*
X171654Y-159646D01*
X171102Y-159488D01*
X170551Y-159593D01*
X170079Y-159856D01*
X169764Y-160328D01*
X169606Y-160958D01*
X169291Y-161326D01*
X168740Y-161483D01*
X168189Y-161378D01*
X167795Y-161115D01*
X167559Y-160748D01*
Y-160381D01*
X167717Y-160013D01*
X168110Y-159698D01*
G01X167559Y-157283D02*
Y-156024D01*
G01Y-156654D02*
X172283D01*
G01Y-157283D02*
Y-156024D01*
G01Y-154081D02*
X167559D01*
X171496Y-152717D01*
X167559Y-151352D01*
X172283D01*
G01X171378Y-102493D02*
X174764D01*
X175472Y-102283D01*
X175945Y-101863D01*
X176102Y-101339D01*
X175945Y-100814D01*
X175472Y-100394D01*
X174764Y-100184D01*
X171378D01*
G01X176102Y-98714D02*
X171378Y-97402D01*
X176102Y-96089D01*
G01X174449Y-96562D02*
Y-98241D01*
G01X176102Y-94515D02*
X171378D01*
Y-93202D01*
X171614Y-92782D01*
X171929Y-92520D01*
X172559Y-92415D01*
X173189Y-92520D01*
X173583Y-92835D01*
X173819Y-93202D01*
Y-94515D01*
G01Y-93202D02*
X176102Y-92415D01*
G01X171378Y-89528D02*
X176102D01*
G01X171378Y-90735D02*
Y-88320D01*
G01X176102Y-85591D02*
X171378D01*
X172323Y-86220D01*
G01X176102D02*
Y-84961D01*
G01X170591Y-73622D02*
Y-72362D01*
G01Y-72992D02*
X175315D01*
G01Y-73622D02*
Y-72362D01*
G01X171378Y-70052D02*
X170906Y-69737D01*
X170669Y-69370D01*
X170591Y-68950D01*
X170748Y-68425D01*
X171142Y-68058D01*
X171614Y-67953D01*
X172087Y-68005D01*
X172480Y-68215D01*
X173268Y-69265D01*
X173819Y-69737D01*
X174606Y-70052D01*
X175315Y-70157D01*
Y-67953D01*
G01X174685Y-66220D02*
X175079Y-65800D01*
X175315Y-65328D01*
Y-64908D01*
X175079Y-64488D01*
X174685Y-64173D01*
X174134Y-64016D01*
X173583Y-64121D01*
X173110Y-64383D01*
X172795Y-64856D01*
X172638Y-65485D01*
X172323Y-65853D01*
X171772Y-66011D01*
X171220Y-65906D01*
X170827Y-65643D01*
X170591Y-65276D01*
Y-64908D01*
X170748Y-64541D01*
X171142Y-64226D01*
G01X176890Y-62756D02*
Y-59606D01*
G01X174685Y-58346D02*
X175079Y-57926D01*
X175315Y-57454D01*
Y-57034D01*
X175079Y-56614D01*
X174685Y-56299D01*
X174134Y-56142D01*
X173583Y-56247D01*
X173110Y-56509D01*
X172795Y-56981D01*
X172638Y-57611D01*
X172323Y-57979D01*
X171772Y-58137D01*
X171220Y-58031D01*
X170827Y-57769D01*
X170591Y-57402D01*
Y-57034D01*
X170748Y-56667D01*
X171142Y-56352D01*
G01X223543Y-155394D02*
Y-154344D01*
X224961D01*
X225433Y-154659D01*
X225748Y-155026D01*
X225906Y-155551D01*
X225748Y-156076D01*
X225433Y-156444D01*
X224961Y-156759D01*
X224409Y-156969D01*
X223780Y-157074D01*
X223228D01*
X222756Y-156969D01*
X222205Y-156759D01*
X221732Y-156444D01*
X221417Y-156129D01*
X221181Y-155709D01*
Y-155341D01*
X221339Y-154921D01*
X221654Y-154606D01*
G01X225906Y-152822D02*
X221181D01*
Y-151562D01*
X221417Y-151142D01*
X221969Y-150827D01*
X222598Y-150722D01*
X223228Y-150827D01*
X223701Y-151089D01*
X223937Y-151562D01*
Y-152822D01*
G01X221181Y-148465D02*
Y-147205D01*
G01Y-147835D02*
X225906D01*
G01Y-148465D02*
Y-147205D01*
G01Y-143898D02*
X225827Y-144318D01*
X225512Y-144685D01*
X225039Y-145000D01*
X224488Y-145210D01*
X223858Y-145315D01*
X223228D01*
X222598Y-145210D01*
X222047Y-145000D01*
X221575Y-144685D01*
X221260Y-144318D01*
X221181Y-143898D01*
X221260Y-143478D01*
X221575Y-143110D01*
X222047Y-142795D01*
X222598Y-142585D01*
X223228Y-142480D01*
X223858D01*
X224488Y-142585D01*
X225039Y-142795D01*
X225512Y-143110D01*
X225827Y-143478D01*
X225906Y-143898D01*
G01X224409Y-77087D02*
X224803Y-76667D01*
X225039Y-76194D01*
Y-75774D01*
X224803Y-75354D01*
X224409Y-75039D01*
X223858Y-74882D01*
X223307Y-74987D01*
X222835Y-75249D01*
X222520Y-75722D01*
X222362Y-76352D01*
X222047Y-76719D01*
X221496Y-76877D01*
X220945Y-76772D01*
X220551Y-76509D01*
X220315Y-76142D01*
Y-75774D01*
X220472Y-75407D01*
X220866Y-75092D01*
G01X225039Y-73097D02*
X220315D01*
Y-71837D01*
X220551Y-71417D01*
X221102Y-71102D01*
X221732Y-70997D01*
X222362Y-71102D01*
X222835Y-71365D01*
X223071Y-71837D01*
Y-73097D01*
G01X220315Y-68740D02*
Y-67480D01*
G01Y-68110D02*
X225039D01*
G01Y-68740D02*
Y-67480D01*
G01X225197Y-65118D02*
X220315Y-63228D01*
G01X225039Y-61339D02*
X220315D01*
G01Y-59134D02*
X225039D01*
G01X222677D02*
Y-61339D01*
G01X224409Y-57402D02*
X224803Y-56981D01*
X225039Y-56509D01*
Y-56089D01*
X224803Y-55669D01*
X224409Y-55354D01*
X223858Y-55197D01*
X223307Y-55302D01*
X222835Y-55564D01*
X222520Y-56037D01*
X222362Y-56667D01*
X222047Y-57034D01*
X221496Y-57192D01*
X220945Y-57087D01*
X220551Y-56824D01*
X220315Y-56457D01*
Y-56089D01*
X220472Y-55722D01*
X220866Y-55407D01*
G01X225039Y-53412D02*
X220315D01*
Y-52152D01*
X220551Y-51732D01*
X221102Y-51417D01*
X221732Y-51312D01*
X222362Y-51417D01*
X222835Y-51680D01*
X223071Y-52152D01*
Y-53412D01*
G01X220315Y-49055D02*
Y-47795D01*
G01Y-48425D02*
X225039D01*
G01Y-49055D02*
Y-47795D01*
G01X220591Y-19213D02*
Y-17953D01*
G01Y-18583D02*
X225315D01*
G01Y-19213D02*
Y-17953D01*
G01X221378Y-15643D02*
X220906Y-15328D01*
X220669Y-14961D01*
X220591Y-14541D01*
X220748Y-14016D01*
X221142Y-13648D01*
X221614Y-13543D01*
X222087Y-13596D01*
X222480Y-13806D01*
X223268Y-14856D01*
X223819Y-15328D01*
X224606Y-15643D01*
X225315Y-15748D01*
Y-13543D01*
G01X220984Y-9554D02*
X220748Y-9869D01*
X220591Y-10236D01*
Y-10656D01*
X220827Y-11129D01*
X221220Y-11496D01*
X221693Y-11759D01*
X222480Y-11969D01*
X223189Y-12021D01*
X223898Y-11916D01*
X224370Y-11759D01*
X224843Y-11444D01*
X225157Y-11076D01*
X225315Y-10709D01*
Y-10341D01*
X225157Y-9974D01*
X224921Y-9659D01*
X224606Y-9396D01*
M02*
