G04 ================== begin FILE IDENTIFICATION RECORD ==================*
G04 Layout Name:  E:/Ó²¼þ/W600/arduino/SCH&PCB/PCB_V1.1/Arduino_board_2.brd*
G04 Film Name:    TOP*
G04 File Format:  Gerber RS274X*
G04 File Origin:  Cadence Allegro 16.6-P004*
G04 Origin Date:  Fri Sep 28 20:25:14 2018*
G04 *
G04 Layer:  VIA CLASS/TOP*
G04 Layer:  PIN/TOP*
G04 Layer:  ETCH/TOP*
G04 Layer:  BOARD GEOMETRY/OUTLINE*
G04 *
G04 Offset:    (0.0000 0.0000)*
G04 Mirror:    No*
G04 Mode:      Positive*
G04 Rotation:  0*
G04 FullContactRelief:  No*
G04 UndefLineWidth:     0.1999*
G04 ================== end FILE IDENTIFICATION RECORD ====================*
%FSLAX25Y25*MOIN*%
%IR0*IPPOS*OFA0.00000B0.00000*MIA0B0*SFA1.00000B1.00000*%
%ADD39R,.023622X.07874*%
%ADD35R,.016142X.082677*%
%ADD32R,.009843X.047244*%
%AMMACRO25*
21,1,.009843,.023622,0.0,0.0,135.*%
%ADD25MACRO25*%
%AMMACRO26*
21,1,.149606,.149606,0.0,0.0,135.*%
%ADD26MACRO26*%
%ADD34C,.031496*%
%ADD15R,.04X.03*%
%ADD36R,.03X.04*%
%ADD30R,.037402X.08465*%
%ADD29R,.1X.03*%
%ADD27C,.02*%
%AMMACRO22*
21,1,.025,.02,0.0,0.0,135.*%
%ADD22MACRO22*%
%ADD11C,.016*%
%ADD33O,.03937X.059055*%
%ADD18R,.05315X.03937*%
%ADD37C,.03937*%
%ADD10C,.07874*%
%AMMACRO28*
21,1,.009843,.023622,0.0,0.0,45.*%
%ADD28MACRO28*%
%ADD38R,.05X.05*%
%ADD14R,.06X.08*%
%ADD12C,.066929*%
%ADD13R,.066929X.066929*%
%AMMACRO24*
21,1,.025,.02,0.0,0.0,45.*%
%ADD24MACRO24*%
%ADD23R,.02X.025*%
%ADD17R,.025X.02*%
%ADD16R,.02X.017*%
%ADD31R,.127949X.08465*%
%ADD19R,.08661X.041339*%
%AMMACRO20*
4,1,40,-.020079,-.02598,
.020079,-.02598,
.020762,-.025921,
.021426,-.025744,
.022048,-.025455,
.02261,-.025062,
.023096,-.024577,
.02349,-.024015,
.023781,-.023394,
.023959,-.022731,
.02402,-.022051,
.02402,.022051,
.023959,.022735,
.02378,.023397,
.023488,.024019,
.023094,.02458,
.022607,.025064,
.022044,.025457,
.021422,.025746,
.020759,.025922,
.020079,.02598,
-.020079,.02598,
-.020762,.025921,
-.021426,.025744,
-.022048,.025455,
-.02261,.025062,
-.023096,.024577,
-.02349,.024015,
-.023781,.023394,
-.023959,.022731,
-.02402,.022051,
-.02402,-.022051,
-.023959,-.022735,
-.02378,-.023397,
-.023488,-.024019,
-.023094,-.02458,
-.022607,-.025064,
-.022044,-.025457,
-.021422,-.025746,
-.020759,-.025922,
-.020079,-.02598,
0.0*
%
%ADD20MACRO20*%
%AMMACRO21*
4,1,40,.026571,-.012799,
.026571,.012799,
.02651,.013482,
.026332,.014145,
.026041,.014766,
.025647,.015327,
.025161,.015811,
.024599,.016204,
.023977,.016493,
.023315,.016669,
.022642,.016728,
-.022642,.016728,
-.023325,.016668,
-.023987,.016489,
-.024608,.016199,
-.025169,.015805,
-.025654,.015319,
-.026046,.014757,
-.026335,.014135,
-.026512,.013472,
-.026571,.012799,
-.026571,-.012799,
-.02651,-.013482,
-.026332,-.014145,
-.026041,-.014766,
-.025647,-.015327,
-.025161,-.015811,
-.024599,-.016204,
-.023977,-.016493,
-.023315,-.016669,
-.022642,-.016728,
.022642,-.016728,
.023325,-.016668,
.023987,-.016489,
.024608,-.016199,
.025169,-.015805,
.025654,-.015319,
.026046,-.014757,
.026335,-.014135,
.026512,-.013472,
.026571,-.012799,
0.0*
%
%ADD21MACRO21*%
%ADD40C,.003937*%
%ADD41C,.011811*%
%ADD42C,.015748*%
%ADD43C,.019685*%
%ADD44C,.005*%
%ADD45C,.01*%
%ADD46C,.03*%
%ADD47C,.002*%
%ADD52R,.040016X.050016*%
%ADD48R,.039543X.05726*%
%ADD51C,.047512*%
%ADD53C,.106567*%
%ADD49C,.076945*%
%ADD50R,.076945X.076945*%
G75*
%LPD*%
G75*
G36*
G01X165589Y-104058D02*
X166696Y-102951D01*
Y-82477D01*
X166943Y-82230D01*
X182927D01*
X188389Y-76768D01*
Y-59845D01*
X189460D01*
Y-62942D01*
X192880D01*
G02X193158Y-63615I0J-394D01*
G01X192556Y-64217D01*
Y-65318D01*
X192406Y-65354D01*
G03X193206Y-72941I901J-3740D01*
G02X193552Y-73502I-10J-394D01*
G01X192533Y-74522D01*
Y-75323D01*
X192383Y-75360D01*
G03X194289Y-75374I924J-3735D01*
G01X194237Y-75361D01*
X194060Y-75184D01*
X194415Y-74829D01*
X201324D01*
G02X201383Y-75544I-133J-371D01*
G03X205152I1885J-3354D01*
G02X205212Y-74829I193J344D01*
G01X209691D01*
X209907Y-74612D01*
G02X210470Y-74969I168J-356D01*
G01Y-83350D01*
X210280Y-83541D01*
X193587D01*
X192556Y-84571D01*
Y-84775D01*
X189460D01*
Y-92469D01*
X197154D01*
Y-85042D01*
X200817D01*
G02X201054Y-85752I0J-394D01*
G03X205482I2214J-3146D01*
G02X205719Y-85042I237J315D01*
G01X210902D01*
X210978Y-84966D01*
G02X211651Y-85244I279J-279D01*
G01Y-92799D01*
X211264Y-93186D01*
X193191D01*
X192556Y-93821D01*
Y-94846D01*
X192406Y-94882D01*
G03X195426Y-95411I902J-3740D01*
G02X195643Y-94688I217J329D01*
G01X201416D01*
G02X201588Y-95437I0J-394D01*
G03X204947I1680J-3461D01*
G02X205119Y-94688I172J355D01*
G01X211886D01*
X213152Y-93421D01*
Y-15122D01*
X211492Y-13462D01*
X194058D01*
Y-12745D01*
X197154D01*
Y-5050D01*
X189460D01*
Y-12745D01*
X192556D01*
Y-13462D01*
X183980D01*
X180509Y-16933D01*
Y-70430D01*
X138902D01*
X136955Y-72377D01*
X136862Y-72367D01*
G03X135439Y-73799I-130J-1294D01*
G01X135449Y-73894D01*
X132856Y-76428D01*
X130483D01*
Y-85304D01*
X131415D01*
Y-91382D01*
X119722Y-103075D01*
Y-119413D01*
X109847Y-129288D01*
G02X109174Y-129002I-279J279D01*
G03X106812Y-128226I-1300J25D01*
G01X83744D01*
X78413Y-133556D01*
G02X77741Y-133278I-279J279D01*
G01Y-125790D01*
X110158D01*
G03Y-124289I1062J751D01*
G01X38500D01*
X37168Y-122957D01*
Y-80831D01*
X37050Y-80713D01*
Y-75196D01*
G03X35548I-751J1062D01*
G01Y-81335D01*
X35667Y-81453D01*
Y-123579D01*
X37878Y-125790D01*
X76239D01*
Y-143243D01*
X76479Y-143483D01*
X76149Y-143813D01*
X61348Y-129013D01*
X34215D01*
Y-83783D01*
X26959Y-76527D01*
X27026Y-76398D01*
G03X26096Y-71660I-3404J1792D01*
G02X26350Y-70965I254J302D01*
G01X51469D01*
X63525Y-83020D01*
X83209D01*
X85523Y-85334D01*
Y-88022D01*
X84440D01*
Y-97489D01*
X89182D01*
Y-94044D01*
X94743D01*
Y-94757D01*
X99745D01*
Y-94241D01*
X100649D01*
Y-94757D01*
X105650D01*
Y-94044D01*
X106698D01*
X106722Y-94046D01*
X106728Y-94046D01*
G03X106723Y-91466I162J1290D01*
G01X106710Y-91468D01*
X105650D01*
Y-90755D01*
X100649D01*
Y-91271D01*
X99745D01*
Y-90755D01*
X94743D01*
Y-91467D01*
X89182D01*
Y-88022D01*
X88099D01*
Y-85079D01*
G03X87148Y-83835I-1288J0D01*
G01X87097Y-83822D01*
X84660Y-81384D01*
G02X84938Y-80711I279J279D01*
G01X119563D01*
X124108Y-76167D01*
X124201Y-76176D01*
G03X125625Y-74752I130J1294D01*
G01X125615Y-74659D01*
X140235Y-60040D01*
X140609D01*
Y-61290D01*
X145611D01*
Y-57288D01*
X140609D01*
Y-58538D01*
X139613D01*
X124554Y-73597D01*
X124461Y-73588D01*
G03X123037Y-75012I-130J-1294D01*
G01X123046Y-75105D01*
X118941Y-79210D01*
X66650D01*
X51295Y-63856D01*
X27469D01*
Y-60759D01*
X19775D01*
Y-68454D01*
X19921D01*
G02X20060Y-68790I0J-197D01*
G01X17216Y-71635D01*
Y-72567D01*
G02X16491Y-72782I-394J0D01*
G03X9643Y-73594I-3224J-2100D01*
G01X9234D01*
X7981Y-72341D01*
Y-57463D01*
X9274Y-56170D01*
X9643D01*
G03X14799Y-58411I3625J1288D01*
G01X14922Y-58358D01*
X15963Y-59398D01*
X67806D01*
Y-64156D01*
X70857Y-67207D01*
Y-74655D01*
X84654D01*
Y-65188D01*
X72482D01*
X70383Y-63089D01*
Y-41213D01*
X71005D01*
Y-40213D01*
X75574D01*
Y-41271D01*
X73613D01*
Y-46997D01*
X77793D01*
Y-48547D01*
X76923Y-49417D01*
X73483D01*
Y-53418D01*
X78485D01*
Y-49978D01*
X78716Y-49747D01*
G02X79389Y-50026I279J-279D01*
G01Y-53420D01*
X84391D01*
Y-49419D01*
X81263D01*
Y-46997D01*
X83473D01*
Y-44898D01*
X86385D01*
Y-46398D01*
X90387D01*
Y-41397D01*
X86385D01*
Y-42897D01*
X83473D01*
Y-41271D01*
X77576D01*
Y-40213D01*
X133326D01*
Y-41804D01*
X138328D01*
Y-40804D01*
X141715D01*
X142109Y-41198D01*
Y-43043D01*
X140149D01*
Y-48769D01*
X144328D01*
Y-50909D01*
X144049Y-51188D01*
X140609D01*
Y-55190D01*
X145611D01*
Y-51750D01*
X145785Y-51576D01*
G02X146121Y-51715I139J-139D01*
G01Y-55192D01*
X150304D01*
G02X150691Y-55661I0J-394D01*
G03X150913Y-56666I1278J-245D01*
G02X150594Y-57291I-320J-230D01*
G01X146121D01*
Y-61292D01*
X146932D01*
G02X147210Y-61965I0J-394D01*
G01X144900Y-64275D01*
X140713D01*
G03Y-66276I-831J-1001D01*
G01X145730D01*
X149623Y-62383D01*
Y-61292D01*
X151123D01*
Y-57539D01*
G02X151622Y-57159I394J0D01*
G03X153031Y-56656I346J1254D01*
G01X157962D01*
Y-60099D01*
X162084D01*
Y-61003D01*
X157802D01*
Y-62753D01*
X155516D01*
X155302Y-62967D01*
X155209Y-62958D01*
G03X154650Y-65480I-130J-1294D01*
G01X154783Y-65526D01*
Y-65863D01*
X153806D01*
G03X153750Y-67365I-1089J-712D01*
G01X162280D01*
X163640Y-66005D01*
X167904D01*
Y-61003D01*
X163585D01*
Y-44215D01*
X163844Y-43956D01*
G02X164180Y-44095I139J-139D01*
G01Y-47619D01*
X168182D01*
Y-46677D01*
G02X168632Y-46287I394J0D01*
G03Y-43713I187J1287D01*
G02X168182Y-43323I-56J390D01*
G01Y-42617D01*
X165658D01*
G02X165519Y-42281I0J197D01*
G01X165711Y-42089D01*
Y-37619D01*
X170072D01*
Y-36655D01*
G02X170650Y-36307I394J0D01*
G03Y-34008I609J1149D01*
G02X170072Y-33660I-185J348D01*
G01Y-32617D01*
X165711D01*
Y-29728D01*
X164011Y-28028D01*
Y-26357D01*
X160009D01*
Y-31359D01*
X164210D01*
Y-32617D01*
X159970D01*
Y-33385D01*
G02X159565Y-33778I-394J0D01*
G03Y-36379I-37J-1300D01*
G02X159970Y-36773I11J-394D01*
G01Y-37619D01*
X164210D01*
Y-41467D01*
X162755Y-42922D01*
G02X162082Y-42643I-279J279D01*
G01Y-42617D01*
X158080D01*
Y-43549D01*
G02X157483Y-43886I-394J0D01*
G03X157725Y-45926I-672J-1114D01*
G01X157782Y-45869D01*
X158080D01*
Y-47619D01*
X162084D01*
Y-49231D01*
X158002D01*
Y-50509D01*
X155256D01*
X155210Y-50483D01*
G03X155761Y-52130I-643J-1131D01*
G01X155813Y-52011D01*
X158002D01*
Y-54233D01*
X162084D01*
Y-55098D01*
X157962D01*
Y-55155D01*
X153031D01*
G03X151622Y-54652I-1062J-751D01*
G02X151123Y-54272I-105J380D01*
G01Y-51191D01*
X147798D01*
Y-48769D01*
X150009D01*
Y-46028D01*
X150010Y-46013D01*
X150011Y-46003D01*
G03X150017Y-45906I-995J101D01*
G01Y-45611D01*
X153824Y-41804D01*
X158013D01*
Y-37802D01*
X153011D01*
Y-39786D01*
X149755Y-43043D01*
X144111D01*
Y-40369D01*
X142544Y-38802D01*
X138328D01*
Y-37802D01*
X133326D01*
Y-38212D01*
X71005D01*
Y-37212D01*
X61492D01*
X61415Y-37288D01*
X59743D01*
Y-41290D01*
X64745D01*
Y-41213D01*
X67806D01*
Y-56822D01*
X40855D01*
Y-51843D01*
X42068D01*
Y-47842D01*
X37066D01*
Y-51843D01*
X38279D01*
Y-56822D01*
X27666D01*
Y-51843D01*
X28879D01*
Y-47842D01*
X23877D01*
Y-51843D01*
X25090D01*
Y-56822D01*
X17030D01*
X16744Y-56536D01*
X16797Y-56413D01*
G03X9643Y-53594I-3530J1531D01*
G01X8207D01*
X5405Y-56396D01*
Y-73407D01*
X8167Y-76170D01*
X9643D01*
G03X16491Y-76981I3625J1288D01*
G02X17216Y-77196I330J-215D01*
G01Y-80493D01*
X15761Y-81947D01*
X15624Y-81841D01*
G03X16996Y-83935I-2356J-3041D01*
G01X16969Y-83826D01*
X19398Y-81397D01*
Y-76429D01*
G02X20148Y-76260I394J0D01*
G03X25966Y-77657I3474J1653D01*
G01X32714Y-84406D01*
Y-129013D01*
X18075D01*
X16053Y-131035D01*
X9215D01*
Y-128894D01*
X12122Y-125987D01*
X31413D01*
X32247Y-125154D01*
Y-92445D01*
X26709Y-86907D01*
X26801Y-86772D01*
G03X25463Y-87984I-3179J2166D01*
G01X25592Y-87914D01*
X30745Y-93067D01*
Y-99638D01*
G02X30072Y-99916I-394J0D01*
G01X26852Y-96696D01*
G03X25675Y-97860I-3230J2090D01*
G01X25809Y-97776D01*
X28974Y-100941D01*
Y-104953D01*
G02X28301Y-105231I-394J0D01*
G01X27464Y-104394D01*
X27459Y-104321D01*
G03X27012Y-106425I-3837J-285D01*
G01X27026Y-106400D01*
X27186Y-106240D01*
X27399Y-106453D01*
Y-112048D01*
G02X26691Y-112285I-394J0D01*
G03X22720Y-118346I-3068J-2321D01*
G01X22871Y-118383D01*
Y-119413D01*
X22327Y-119958D01*
X5594D01*
X2793Y-122760D01*
Y-173067D01*
X5358Y-175633D01*
X9491D01*
X9528Y-175783D01*
G03X16606Y-172969I3740J901D01*
G01X16531Y-172838D01*
X21286Y-168083D01*
X21418Y-168164D01*
G03X27165Y-165783I2007J3282D01*
G01X27202Y-165633D01*
X28421D01*
X29088Y-164966D01*
G02X29761Y-165244I279J-279D01*
G01Y-173193D01*
X28823Y-174131D01*
X27202D01*
X27165Y-173980D01*
G03Y-175783I-3740J-902D01*
G01X27202Y-175633D01*
X29445D01*
X30466Y-174611D01*
G02X31139Y-174890I279J-279D01*
G01Y-182917D01*
X29925Y-184131D01*
X27202D01*
X27165Y-183980D01*
G03X19685I-3740J-902D01*
G01X19649Y-184131D01*
X17044D01*
X17008Y-183980D01*
G03Y-185783I-3740J-902D01*
G01X17044Y-185633D01*
X19649D01*
X19685Y-185783D01*
G03X27165I3740J902D01*
G01X27202Y-185633D01*
X30547D01*
X32641Y-183539D01*
Y-146137D01*
X35043Y-143735D01*
X55626D01*
X69965Y-158074D01*
X71657D01*
X71985Y-158401D01*
G02X71845Y-158737I-139J-139D01*
G01X60506D01*
X57750Y-155981D01*
X53657D01*
X51761Y-154085D01*
Y-150038D01*
G03X50867Y-149145I-894J-1D01*
G01X50635D01*
Y-148587D01*
X51097D01*
Y-145586D01*
X47596D01*
Y-148587D01*
X48058D01*
Y-149145D01*
X46849D01*
G03X45955Y-150038I1J-894D01*
G01Y-154449D01*
G03X46849Y-155343I894J1D01*
G01X50895D01*
X53035Y-157483D01*
X53355D01*
Y-157817D01*
X53227Y-157865D01*
G03X52648Y-158700I315J-837D01*
G01Y-163111D01*
G03X53043Y-163852I894J1D01*
G01Y-164287D01*
X52580D01*
Y-167288D01*
X56081D01*
Y-164005D01*
X57560D01*
G03X58454Y-163111I-1J894D01*
G01Y-161657D01*
X73605D01*
G02X73883Y-162330I0J-394D01*
G01X72844Y-163369D01*
X71822D01*
G03X70948Y-163170I-707J-1092D01*
G01X70935Y-163172D01*
X70282D01*
X69811Y-163643D01*
X67200D01*
Y-163712D01*
X66477D01*
Y-162999D01*
X61476D01*
Y-167001D01*
X66477D01*
Y-166288D01*
X67200D01*
Y-167144D01*
X70202D01*
Y-166288D01*
X70809D01*
X71358Y-165739D01*
X71413Y-165726D01*
G03X71822Y-165552I-299J1266D01*
G01X73748D01*
X76442Y-162857D01*
X78999Y-165415D01*
X78100Y-166314D01*
X78000Y-166298D01*
G03X77878Y-166283I-316J-1976D01*
G01X77808Y-166276D01*
X77507Y-165975D01*
X77208Y-166273D01*
X76803D01*
X73585Y-169491D01*
G03X73009Y-170711I1415J-1415D01*
G01X73002Y-170781D01*
X72701Y-171082D01*
X73076Y-171458D01*
X73091Y-171504D01*
G03X73126Y-171606I1910J597D01*
G02X72872Y-171860I-185J-69D01*
G03X72770Y-171825I-699J-1875D01*
G01X72724Y-171810D01*
X72348Y-171435D01*
X72047Y-171736D01*
X71977Y-171743D01*
G03X70635Y-172452I194J-1991D01*
G01X70630Y-172459D01*
X64154Y-178934D01*
X64050D01*
Y-179038D01*
X63841Y-179247D01*
X63667D01*
Y-179422D01*
X63504Y-179584D01*
G02X63168Y-179445I-139J139D01*
G01Y-179247D01*
X62743D01*
X62688Y-179202D01*
G03X61417Y-178747I-1270J-1546D01*
G01X58920D01*
Y-177885D01*
X52604D01*
Y-182824D01*
X58920D01*
Y-182749D01*
X61417D01*
G03X62688Y-182294I0J2001D01*
G01X62743Y-182249D01*
X63168D01*
Y-181718D01*
X63191Y-181675D01*
G03X63238Y-181578I-1772J929D01*
G02X63596I179J-82D01*
G03X63644Y-181675I1820J831D01*
G01X63667Y-181718D01*
Y-182249D01*
X64050D01*
Y-182436D01*
X64343D01*
X64389Y-182464D01*
G03X64546Y-182549I1030J1715D01*
G02X64556Y-182898I-86J-177D01*
G03X64538Y-182908I984J-1793D01*
G01X64493Y-182934D01*
X64050D01*
Y-183294D01*
X64002Y-183349D01*
G03X63506Y-184685I1549J-1336D01*
G01Y-187557D01*
X63537Y-187589D01*
Y-189873D01*
X59154D01*
Y-190630D01*
X55431D01*
Y-189873D01*
X50483D01*
Y-190630D01*
X-7598D01*
X-8937Y-189291D01*
Y-41930D01*
G02X-8212Y-41716I394J0D01*
G03Y-35922I4472J2897D01*
G02X-8937Y-35708I-331J214D01*
G01Y-7205D01*
X-2087Y-354D01*
X-866D01*
X-787Y-433D01*
X218583D01*
X227520Y-9370D01*
Y-189961D01*
X226850Y-190630D01*
X219885D01*
Y-161736D01*
X217673Y-159525D01*
X189130D01*
X188230Y-158625D01*
Y-151027D01*
X184847Y-147644D01*
G02X185126Y-146971I279J279D01*
G01X185555D01*
X190185Y-151601D01*
G02X190157Y-152185I-279J-279D01*
G03X196339Y-156059I2442J-2973D01*
G01X196375Y-155908D01*
X199557D01*
X199601Y-156046D01*
G03X199474Y-154243I3667J1164D01*
G01X199446Y-154407D01*
X196375D01*
X196339Y-154256D01*
G03X192150Y-151337I-3740J-902D01*
G01X192055Y-151348D01*
X187013Y-146306D01*
G02X187291Y-145633I279J279D01*
G01X188777D01*
X188805Y-145797D01*
G03X196392I3794J639D01*
G01X196420Y-145633D01*
X199491D01*
X199528Y-145783D01*
G03X207049Y-144173I3740J902D01*
G01X207030Y-144071D01*
X208822Y-142280D01*
Y-109177D01*
X205902Y-106257D01*
X156322D01*
G02X155960Y-105708I0J394D01*
G03X155932Y-104625I-1196J511D01*
G02X156286Y-104058I354J173D01*
G01X165589D01*
G37*
G36*
G01X5980Y-174131D02*
X4294Y-172445D01*
Y-164693D01*
G02X4967Y-164415I394J0D01*
G01X6401Y-165849D01*
X9541D01*
X9583Y-165989D01*
G03X16550Y-162875I3685J1107D01*
G01X16469Y-162743D01*
X21193Y-158019D01*
X21326Y-158106D01*
G03X26985Y-153422I2099J3224D01*
G01X26935Y-153300D01*
X27710Y-152525D01*
G02X28383Y-152803I279J-279D01*
G01Y-163547D01*
X27799Y-164131D01*
X27202D01*
X27165Y-163980D01*
G03X20143Y-166889I-3740J-902D01*
G01X20224Y-167021D01*
X15500Y-171745D01*
X15367Y-171657D01*
G03X9528Y-173980I-2099J-3224D01*
G01X9491Y-174131D01*
X5980D01*
G37*
G36*
G01X7023Y-164347D02*
X6066Y-163390D01*
Y-149260D01*
G02X6739Y-148981I394J0D01*
G01X10248Y-152491D01*
X10150Y-152628D01*
G03X16550Y-152875I3118J-2254D01*
G01X16469Y-152743D01*
X21193Y-148019D01*
X21326Y-148106D01*
G03X26137Y-147611I2099J3224D01*
G02X26808Y-147891I278J-280D01*
G01Y-151303D01*
X26049Y-152062D01*
X25911Y-151945D01*
G03X20087Y-156795I-2485J-2937D01*
G01X20162Y-156926D01*
X15407Y-161681D01*
X15275Y-161600D01*
G03X9484Y-164186I-2007J-3282D01*
G01X9454Y-164347D01*
X7023D01*
G37*
G36*
G01X15407Y-151681D02*
X15275Y-151600D01*
G03X11525Y-151452I-2007J-3282D01*
G01X11398Y-151517D01*
X7641Y-147760D01*
Y-140402D01*
G02X8313Y-140123I394J0D01*
G01X10448Y-142258D01*
X10331Y-142396D01*
G03X16550Y-142875I2937J-2485D01*
G01X16469Y-142743D01*
X20482Y-138729D01*
X27272D01*
Y-133861D01*
X60909D01*
X62081Y-135033D01*
G02X61803Y-135706I-279J-279D01*
G01X31539D01*
X25563Y-141683D01*
G03X20087Y-146795I-2137J-3199D01*
G01X20162Y-146926D01*
X15407Y-151681D01*
G37*
G36*
G01X74567Y-145395D02*
X61531Y-132359D01*
X27272D01*
Y-131035D01*
X19578D01*
Y-137510D01*
X15407Y-141681D01*
X15275Y-141600D01*
G03X11807Y-141322I-2007J-3282D01*
G01X11686Y-141372D01*
X9716Y-139402D01*
G02X9994Y-138729I279J279D01*
G01X17115D01*
Y-132096D01*
X18697Y-130515D01*
X60726D01*
X75087Y-144875D01*
X74567Y-145395D01*
G37*
G36*
G01X50984Y-190374D02*
Y-193287D01*
X23504D01*
Y-217579D01*
X125000D01*
Y-212815D01*
X59646D01*
Y-205728D01*
X63583D01*
Y-200965D01*
X50984D01*
Y-205728D01*
X54921D01*
Y-208878D01*
X32087D01*
Y-198366D01*
X63583D01*
Y-190374D01*
X59655D01*
Y-193278D01*
X59646Y-193287D01*
X54931D01*
Y-190374D01*
X50984D01*
G37*
G36*
G01X64429Y-80838D02*
X52373Y-68782D01*
X27469D01*
Y-65357D01*
X50673D01*
X65481Y-80165D01*
G02X65203Y-80838I-279J-279D01*
G01X64429D01*
G37*
G36*
G01X67583Y-190630D02*
Y-185913D01*
X67552Y-185881D01*
Y-184685D01*
G03X67097Y-183415I-2001J0D01*
G01X67052Y-183360D01*
Y-182934D01*
X66521D01*
X66478Y-182912D01*
G03X66378Y-182863I-925J-1774D01*
G02X66365Y-182510I81J180D01*
G03X66446Y-182464I-947J1762D01*
G01X66493Y-182436D01*
X67052D01*
Y-182249D01*
X67168D01*
Y-181718D01*
X67191Y-181675D01*
G03X67272Y-181497I-1774J926D01*
G01X67287Y-181460D01*
X74172Y-174575D01*
Y-173856D01*
X74471Y-173557D01*
X74095Y-173181D01*
X74081Y-173135D01*
G03X74046Y-173033I-1910J-597D01*
G02X74299Y-172780I185J69D01*
G03X74402Y-172815I699J1875D01*
G01X74448Y-172829D01*
X74823Y-173205D01*
X75124Y-172904D01*
X75194Y-172897D01*
G03X76415Y-172320I-194J1991D01*
G01X78802Y-169933D01*
X78817Y-169923D01*
G03X79593Y-168872I-1134J1649D01*
G01X79607Y-168826D01*
X79983Y-168451D01*
X79681Y-168150D01*
X79675Y-168080D01*
G03X79659Y-167957I-1991J-194D01*
G01X79643Y-167858D01*
X81544Y-165957D01*
X81563Y-165945D01*
G03X81992Y-165437I-580J925D01*
G01X82007Y-165401D01*
X82874Y-164533D01*
X81470Y-163129D01*
X80091Y-161750D01*
X74510Y-156169D01*
X73131Y-154790D01*
X71726Y-153385D01*
X71532Y-153580D01*
X59572Y-141620D01*
G02X59850Y-140948I279J279D01*
G01X60024D01*
X69519Y-150443D01*
X69348Y-150614D01*
X71726Y-152993D01*
X73131Y-151588D01*
X74510Y-150209D01*
X80091Y-144628D01*
X81470Y-143249D01*
X82874Y-141844D01*
X81984Y-140954D01*
Y-140494D01*
X85157Y-137321D01*
X85223Y-137311D01*
G03X85870Y-137024I-183J1288D01*
G01X87479D01*
G02X87757Y-137697I0J-394D01*
G01X85817Y-139637D01*
X85646Y-139466D01*
X83267Y-141844D01*
X84672Y-143249D01*
X86051Y-144628D01*
X91631Y-150209D01*
X93011Y-151588D01*
X94415Y-152993D01*
X96224Y-151184D01*
X117366D01*
X125152Y-158970D01*
G02X124874Y-159643I-279J-279D01*
G01X97546D01*
X95231Y-157327D01*
X95402Y-157156D01*
X96506Y-156052D01*
X102186D01*
Y-156068D01*
X105688D01*
Y-153066D01*
X102186D01*
Y-153082D01*
X95612D01*
G03X94685Y-153407I0J-1485D01*
G01X94547Y-153517D01*
X94415Y-153385D01*
X93011Y-154790D01*
X91631Y-156169D01*
X86051Y-161750D01*
X84672Y-163129D01*
X83267Y-164533D01*
X84368Y-165633D01*
X84375Y-165643D01*
G03X84537Y-165804I784J622D01*
G01X84546Y-165811D01*
X85646Y-166912D01*
X85669Y-166889D01*
G02X86341Y-167168I279J-279D01*
G01Y-168505D01*
X89731Y-171895D01*
Y-174981D01*
X90050D01*
Y-176024D01*
G03X93020I1485J0D01*
G01Y-174981D01*
X93733D01*
Y-169980D01*
X90647D01*
X88343Y-167676D01*
Y-165024D01*
G02X89016Y-164746I394J0D01*
G01X90706Y-166436D01*
Y-168272D01*
X94207D01*
Y-165271D01*
X92371D01*
X89829Y-162729D01*
X91378Y-161180D01*
X93941Y-163743D01*
X153264D01*
X168736Y-148270D01*
X183350D01*
X186729Y-151649D01*
Y-159247D01*
X188508Y-161026D01*
X190593D01*
G02X190779Y-161768I0J-394D01*
G03X193051Y-168978I1820J-3390D01*
G01X193229Y-168957D01*
X193285Y-169214D01*
G03X193415Y-169499I733J161D01*
G01X193460Y-169561D01*
X194413Y-170515D01*
X206185D01*
X206769Y-171098D01*
Y-171995D01*
G02X206086Y-172263I-394J0D01*
G03X199528Y-173980I-2818J-2619D01*
G01X199491Y-174131D01*
X195996D01*
G03X196134Y-175803I-3673J-1144D01*
G01X196157Y-175633D01*
X199491D01*
X199528Y-175783D01*
G03X206086Y-177501I3740J901D01*
G02X206769Y-177769I289J-268D01*
G01Y-181995D01*
G02X206086Y-182263I-394J0D01*
G03X199528Y-183980I-2818J-2619D01*
G01X199491Y-184131D01*
X196170D01*
Y-181428D01*
X188476D01*
Y-189123D01*
X196170D01*
Y-185633D01*
X199491D01*
X199528Y-185783D01*
G03X207008I3740J902D01*
G01X207044Y-185633D01*
X207201D01*
X208270Y-184563D01*
Y-170476D01*
X206807Y-169013D01*
X205274D01*
G02X205087Y-168272I0J394D01*
G03X205491Y-161742I-1820J3390D01*
G02X205719Y-161026I228J322D01*
G01X217051D01*
X218383Y-162358D01*
Y-190630D01*
X67583D01*
G37*
G36*
G01X87217Y-141021D02*
X87209Y-141029D01*
X86879Y-140699D01*
X88636Y-138942D01*
X92105D01*
Y-135940D01*
X90285D01*
G02X90006Y-135267I0J394D01*
G01X90269Y-135005D01*
X92105D01*
Y-132003D01*
X88604D01*
Y-133839D01*
X87420Y-135023D01*
X85870D01*
G03X83752Y-135840I-831J-1001D01*
G01X83742Y-135906D01*
X79982Y-139665D01*
Y-139980D01*
X79630Y-140331D01*
G02X79294Y-140192I-139J139D01*
G01Y-134799D01*
X84366Y-129727D01*
X106812D01*
G03X107899Y-130277I1062J751D01*
G02X108185Y-130950I8J-394D01*
G01X98114Y-141021D01*
X87217D01*
G37*
G36*
G01X148528Y-106496D02*
G03X150787Y-107759I1196J-511D01*
G01X205280D01*
X207320Y-109799D01*
Y-111035D01*
X199420D01*
Y-118729D01*
X207320D01*
Y-122736D01*
G02X206586Y-122935I-394J0D01*
G03Y-126829I-3319J-1947D01*
G02X207320Y-127028I340J-199D01*
G01Y-132736D01*
G02X206586Y-132935I-394J0D01*
G03X201261Y-131600I-3318J-1947D01*
G01X201128Y-131681D01*
X199484Y-130037D01*
X179374D01*
X151146Y-158265D01*
X126571D01*
X117988Y-149682D01*
X106164D01*
Y-146709D01*
X128408Y-124465D01*
Y-109504D01*
X130547Y-107365D01*
X144204D01*
X144251Y-107494D01*
G03X146655Y-106506I1222J447D01*
G02X147013Y-105948I358J164D01*
G01X148166D01*
G02X148528Y-106496I0J-394D01*
G37*
G36*
G01X123077Y-105310D02*
G02X122404Y-105031I-279J279D01*
G01Y-104681D01*
X141781Y-85304D01*
X143847D01*
Y-76814D01*
X147811D01*
G02X148119Y-77454I0J-394D01*
G03X149867Y-79342I1015J-813D01*
G02X150483Y-79668I222J-325D01*
G01Y-85304D01*
X151560D01*
Y-85517D01*
X151559Y-85530D01*
X151552Y-85619D01*
Y-99553D01*
X150911Y-100194D01*
X128193D01*
X123077Y-105310D01*
G37*
G36*
G01X133589Y-91373D02*
G02X132916Y-91094I-279J279D01*
G01Y-85304D01*
X133847D01*
Y-77560D01*
X136519Y-74948D01*
X136610Y-74956D01*
G03X138026Y-73531I122J1295D01*
G01X138017Y-73438D01*
X139524Y-71932D01*
X181376D01*
X181647Y-71661D01*
G02X182320Y-71939I279J-279D01*
G01Y-72287D01*
X179295Y-75312D01*
X143049D01*
G03X140749Y-76059I-1002J-830D01*
G02X140483Y-76407I-393J25D01*
G01Y-84478D01*
X133589Y-91373D01*
G37*
G36*
G01X152648Y-101533D02*
G02X152369Y-100860I0J394D01*
G01X153054Y-100175D01*
Y-85671D01*
X153062Y-85600D01*
Y-85304D01*
X153847D01*
Y-78664D01*
X180465D01*
G02X180743Y-79337I0J-394D01*
G01X180352Y-79728D01*
X164799D01*
X163974Y-80553D01*
Y-100752D01*
X163193Y-101533D01*
X152648D01*
G37*
G36*
G01X168355Y-144131D02*
G02X168076Y-143458I0J394D01*
G01X179996Y-131538D01*
X198862D01*
X200069Y-132744D01*
G03X206586Y-136829I3199J-2137D01*
G02X207320Y-137028I340J-199D01*
G01Y-141657D01*
X206678Y-142300D01*
G02X206108Y-142287I-278J279D01*
G03X199528Y-143980I-2841J-2595D01*
G01X199491Y-144131D01*
X196309D01*
X196265Y-143994D01*
G03X188931I-3667J-1164D01*
G01X188888Y-144131D01*
X168355D01*
G37*
G36*
G01X192556Y-42674D02*
Y-43303D01*
X193941Y-44688D01*
X201416D01*
G02X201600Y-45431I0J-394D01*
G03X204936I1668J-3467D01*
G02X205119Y-44688I183J349D01*
G01X206776D01*
X208107Y-46019D01*
Y-62603D01*
X207445Y-63265D01*
X197154D01*
Y-55247D01*
X194308D01*
Y-52615D01*
X194446Y-52572D01*
G03X192168I-1139J3675D01*
G01X192306Y-52615D01*
Y-55247D01*
X189460D01*
Y-58344D01*
X187522D01*
X187487Y-58379D01*
G02X186814Y-58100I-279J279D01*
G01Y-39648D01*
X189531D01*
X189567Y-39799D01*
G03X192406Y-42638I3740J902D01*
G01X192556Y-42674D01*
G37*
G36*
G01X208508Y-34648D02*
X209289Y-35429D01*
Y-44126D01*
G02X208616Y-44404I-394J0D01*
G01X207398Y-43186D01*
X194563D01*
X194297Y-42920D01*
G02X194381Y-42592I139J140D01*
G03X189567Y-37996I-1074J3694D01*
G01X189531Y-38147D01*
X185947D01*
X185872Y-38221D01*
G02X185200Y-37943I-279J279D01*
G01Y-30311D01*
X185862Y-29648D01*
X189531D01*
X189567Y-29799D01*
G03X192406Y-32638I3740J902D01*
G01X192556Y-32674D01*
Y-33972D01*
X193232Y-34648D01*
X208508D01*
G37*
G36*
G01X194975Y-72561D02*
G03X195217Y-65754I-1668J3467D01*
G03X194209Y-65354I-1909J-3340D01*
G01X194058Y-65318D01*
Y-64839D01*
X194130Y-64767D01*
X201262D01*
G02X201448Y-65508I0J-394D01*
G03X205087I1820J-3390D01*
G02X205274Y-64767I186J347D01*
G01X208067D01*
X208616Y-64218D01*
G02X209289Y-64496I279J-279D01*
G01Y-73075D01*
X209059Y-73304D01*
X195159D01*
G02X194975Y-72561I0J394D01*
G37*
G36*
G01X201191Y-24806D02*
G02X201391Y-25539I0J-394D01*
G03X205144I1876J-3359D01*
G02X205345Y-24806I201J339D01*
G01X209768D01*
X210470Y-25508D01*
Y-33535D01*
G02X209797Y-33814I-394J0D01*
G01X209130Y-33147D01*
X194058D01*
Y-32674D01*
X194209Y-32638D01*
G03X195192Y-25544I-902J3740D01*
G02X195385Y-24806I193J344D01*
G01X201191D01*
G37*
G36*
G01X194557Y-22536D02*
G03X195426Y-15686I-1250J3639D01*
G02X195643Y-14963I217J329D01*
G01X200932D01*
G02X201149Y-15686I0J-394D01*
G03X205387I2119J-3211D01*
G02X205604Y-14963I217J329D01*
G01X210870D01*
X211651Y-15744D01*
Y-23614D01*
G02X210978Y-23893I-394J0D01*
G01X210390Y-23304D01*
X194524D01*
X194407Y-23187D01*
G02X194557Y-22536I279J279D01*
G37*
%LPC*%
G75*
G36*
G01X170708Y-27625D02*
G02X170464Y-29666I670J-1115D01*
G01X170407Y-29609D01*
X170111D01*
Y-31359D01*
X166109D01*
Y-26357D01*
X170111D01*
Y-27287D01*
G03X170708Y-27625I394J0D01*
G37*
G36*
G01X56015Y-12009D02*
Y-9448D01*
G02X56909Y-8555I894J-1D01*
G01X61438D01*
G02X62331Y-9448I-1J-894D01*
G01Y-12009D01*
G02X61438Y-12902I-894J1D01*
G01X60580D01*
Y-30729D01*
X61039Y-31188D01*
X64745D01*
Y-35190D01*
X59743D01*
Y-32980D01*
X58397Y-31633D01*
Y-12902D01*
X56909D01*
G02X56015Y-12009I1J894D01*
G37*
G36*
G01X81139Y-60001D02*
Y-59520D01*
X79389D01*
Y-55519D01*
X84391D01*
Y-59520D01*
X82641D01*
Y-60001D01*
G02X81139I-751J-1062D01*
G37*
G36*
G01X75233D02*
Y-59518D01*
X73483D01*
Y-55517D01*
X78485D01*
Y-59518D01*
X76735D01*
Y-60001D01*
G02X75233I-751J-1062D01*
G37*
G36*
G01X76466Y-100816D02*
X76468Y-100803D01*
Y-97489D01*
X75385D01*
Y-88022D01*
X80127D01*
Y-97489D01*
X79044D01*
Y-100803D01*
X79046Y-100816D01*
G02Y-101153I-1290J-169D01*
G01X79044Y-101165D01*
Y-106986D01*
X81711Y-109653D01*
X91524D01*
Y-110365D01*
X93956D01*
Y-109653D01*
X98958D01*
G03X99446Y-110015I394J20D01*
G02X100160I357J-1441D01*
G03X100648Y-109653I95J383D01*
G01X105650D01*
Y-113654D01*
X100649D01*
Y-113139D01*
X98957D01*
Y-113654D01*
X93956D01*
Y-112942D01*
X91524D01*
Y-113654D01*
X80523D01*
Y-112108D01*
X76468Y-108053D01*
Y-101165D01*
X76466Y-101153D01*
G02Y-100816I1290J169D01*
G37*
G36*
G01X9491Y-32745D02*
Y-29987D01*
X16493D01*
Y-34013D01*
X25705D01*
X27129Y-35437D01*
Y-41742D01*
X28879D01*
Y-42742D01*
X29980D01*
Y-41742D01*
X34981D01*
Y-42632D01*
G03X35627Y-42935I394J0D01*
G02X36622Y-42647I830J-1002D01*
G03X37066Y-42256I50J391D01*
G01Y-41742D01*
X40258D01*
X40405Y-41595D01*
Y-39146D01*
X37995D01*
Y-30145D01*
X44997D01*
Y-39146D01*
X42587D01*
Y-41742D01*
X47973D01*
Y-45743D01*
X42972D01*
Y-44743D01*
X42068D01*
Y-45743D01*
X37066D01*
Y-45618D01*
G03X36622Y-45227I-394J0D01*
G02X35627Y-44939I-165J1290D01*
G03X34981Y-45242I-252J-303D01*
G01Y-45743D01*
X29980D01*
Y-44743D01*
X28879D01*
Y-45743D01*
X23877D01*
Y-41742D01*
X25627D01*
Y-36059D01*
X25083Y-35515D01*
X16493D01*
Y-38989D01*
X9491D01*
Y-36074D01*
G03X9023Y-35687I-394J0D01*
G02Y-33132I-244J1278D01*
G03X9491Y-32745I74J387D01*
G37*
G36*
G01X88906Y-15593D02*
Y-21209D01*
X85790D01*
Y-30311D01*
X84052Y-32050D01*
X81106D01*
X79761Y-30705D01*
Y-30461D01*
X79519D01*
Y-24735D01*
X81730D01*
Y-21209D01*
X78613D01*
Y-11940D01*
X86310D01*
Y-10781D01*
X88511Y-8581D01*
X142985D01*
X142998Y-8594D01*
X152422D01*
X155190Y-11362D01*
X155329Y-11241D01*
G02X155986Y-15228I1561J-1791D01*
G03X155442Y-15593I-150J-364D01*
G01Y-21209D01*
X152326D01*
Y-33027D01*
X150704Y-34648D01*
X147524D01*
X146296Y-33421D01*
Y-32233D01*
X146054D01*
Y-26507D01*
X148265D01*
Y-21209D01*
X145149D01*
Y-11940D01*
X151174D01*
G03X151452Y-11267I0J394D01*
G01X151355Y-11170D01*
X143491D01*
G03X143157Y-11773I0J-394D01*
G02X139134Y-11762I-2015J-1259D01*
G03X138801Y-11157I-333J211D01*
G01X107145D01*
X107127Y-11161D01*
G02X106652I-237J1279D01*
G01X106634Y-11157D01*
X92695D01*
G03X92362Y-11762I0J-394D01*
G02X89450Y-15228I-2008J-1269D01*
G03X88906Y-15593I-150J-364D01*
G37*
G36*
G01X151583Y-123228D02*
Y-127686D01*
X145582D01*
Y-121684D01*
X150040D01*
X151074Y-120650D01*
Y-119162D01*
X150483D01*
Y-110287D01*
X153847D01*
Y-119162D01*
X153257D01*
Y-121554D01*
X151583Y-123228D01*
G37*
G36*
G01X138355Y-121684D02*
Y-127686D01*
X132354D01*
Y-123228D01*
X131074Y-121948D01*
Y-119162D01*
X130483D01*
Y-110287D01*
X133847D01*
Y-119162D01*
X133257D01*
Y-121044D01*
X133897Y-121684D01*
X138355D01*
G37*
G36*
G01X145009Y-121724D02*
Y-127725D01*
X139007D01*
Y-121724D01*
X141074D01*
Y-119517D01*
X140483D01*
Y-110641D01*
X143847D01*
Y-119517D01*
X143257D01*
Y-121724D01*
X145009D01*
G37*
G36*
G01X134128Y-153049D02*
X134263Y-153004D01*
Y-135186D01*
X132354D01*
Y-129184D01*
X138355D01*
Y-135186D01*
X136446D01*
Y-153467D01*
G02X137024Y-154131I-1544J-1927D01*
G03X137701I339J202D01*
G02X138731Y-153179I2122J-1263D01*
G01Y-139528D01*
X140917Y-137343D01*
Y-135225D01*
X139007D01*
Y-129224D01*
X145009D01*
Y-135225D01*
X143099D01*
Y-138247D01*
X140914Y-140432D01*
Y-153179D01*
G02X141945Y-154131I-1091J-2215D01*
G03X142622I339J202D01*
G02X147023Y-154443I2122J-1263D01*
G03X147387I182J76D01*
G02X147491Y-154223I2279J-951D01*
G01Y-135186D01*
X145582D01*
Y-129184D01*
X151583D01*
Y-135186D01*
X149674D01*
Y-152924D01*
G02X147543Y-156656I-9J-2469D01*
G03X146866I-339J-202D01*
G02X142622I-2122J1263D01*
G03X141945I-339J-202D01*
G02X137701I-2122J1263D01*
G03X137024I-339J-202D01*
G02X134128Y-153049I-2122J1263D01*
G37*
G54D52*
X166063Y-57598D03*
X166102Y-51732D03*
G54D48*
X142126Y-29370D03*
X75591Y-27598D03*
G54D51*
X74606Y-13031D03*
G54D53*
X221339Y-30866D03*
G54D49*
X13268Y-114882D03*
Y-64882D03*
X203268Y-58898D03*
G54D50*
X13268Y-44882D03*
X203268Y-8898D03*
X192598Y-125157D03*
%LPD*%
G75*
G54D10*
X-591Y-226102D03*
X-3740Y-38819D03*
X202283Y-225787D03*
X221339Y-30866D03*
G54D20*
X48858Y-160906D03*
X55551D03*
X48858Y-152244D03*
X55551D03*
G54D11*
X-276Y-187756D03*
X-3937Y-185551D03*
X2047Y-184961D03*
X-4803Y-179764D03*
X1575Y-167717D03*
X-6142Y-144252D03*
X-5669Y-134449D03*
X1102Y-123819D03*
X-5551Y-125000D03*
X1575Y-119291D03*
X1693Y-109291D03*
X1890Y-101260D03*
Y-90866D03*
X1732Y-82953D03*
X2362Y-74803D03*
X2126Y-61142D03*
X1732Y-52402D03*
X-2795Y-27323D03*
X1693Y-42480D03*
X-4370Y-11102D03*
X-4134Y-21181D03*
X3268Y-1969D03*
X16614Y-189134D03*
X10039Y-189094D03*
X18150Y-181850D03*
X11417Y-179961D03*
X19409Y-188661D03*
X6142Y-188346D03*
X18740Y-178622D03*
X11024Y-170197D03*
X18386Y-163386D03*
X11654Y-160000D03*
X15000Y-159606D03*
X22362Y-150079D03*
X18504Y-152835D03*
X18268Y-143898D03*
X12559Y-149921D03*
X17008Y-28110D03*
X8780Y-34409D03*
X6457Y-25551D03*
X19488Y-25866D03*
X5866Y-13819D03*
X5512Y-19291D03*
X22165Y-4488D03*
X27992Y-181575D03*
X34055Y-188425D03*
X41102Y-185630D03*
X27480Y-178780D03*
X39528Y-165827D03*
X41693Y-175748D03*
X25512Y-159724D03*
X37205Y-134764D03*
X41063Y-134803D03*
X41457Y-127598D03*
X42008Y-108307D03*
X41063Y-120079D03*
X41535Y-99803D03*
X40079Y-67283D03*
X40945Y-82283D03*
X36299Y-74134D03*
X40669Y-61339D03*
X36457Y-43937D03*
X26654Y-25394D03*
X37165Y-25512D03*
X27283Y-13583D03*
X40827Y-13071D03*
X34094Y-25984D03*
X26378Y-19291D03*
X34803Y-5079D03*
X61181Y-184449D03*
X61732Y-188826D03*
X52795Y-189173D03*
X57795Y-184685D03*
X47638Y-181890D03*
X45000Y-165079D03*
X44646Y-160551D03*
X61614Y-175984D03*
X56732Y-175236D03*
X60276Y-171811D03*
X47244Y-170079D03*
X59449Y-165354D03*
X53543Y-169685D03*
X58622Y-168661D03*
X57756Y-147992D03*
X43976Y-153346D03*
X44528Y-148976D03*
X45906Y-145787D03*
X44803Y-156417D03*
X61417Y-152362D03*
X59646Y-131457D03*
X55984Y-131378D03*
X50000Y-131417D03*
X45433Y-131496D03*
X47717Y-134843D03*
X54882Y-134882D03*
X59921Y-134843D03*
X53110Y-127756D03*
X55787Y-119606D03*
X48189Y-115315D03*
X54843Y-112598D03*
X52559Y-103346D03*
X48425Y-96457D03*
X47795Y-90984D03*
X51181Y-85197D03*
X61024Y-88189D03*
X54134Y-93110D03*
X59646Y-97244D03*
X48898Y-67244D03*
X42913Y-75197D03*
X57717Y-65709D03*
X54724Y-81496D03*
X47638Y-75197D03*
X56102Y-62047D03*
X47323Y-61339D03*
X55157Y-35394D03*
X50315Y-34882D03*
X53031Y-42205D03*
X47835Y-24331D03*
X47244Y-19134D03*
X51142Y-26024D03*
X47008Y-4488D03*
X56299Y-5118D03*
X80787Y-188071D03*
X75787D03*
X78386Y-181181D03*
X69843Y-187480D03*
X69882Y-182756D03*
X66772Y-172559D03*
X78150Y-174291D03*
X75276Y-177047D03*
X72165Y-168465D03*
X71114Y-164460D03*
X79922Y-159177D03*
X65354Y-156693D03*
X74409Y-153346D03*
X77756Y-150787D03*
X80513Y-153469D03*
X77166Y-156028D03*
X69724Y-130276D03*
X63386Y-127756D03*
X73150Y-134724D03*
X65354Y-121260D03*
X78150Y-121063D03*
X74409Y-117323D03*
X77756Y-100984D03*
X66299Y-69449D03*
X77756Y-69922D03*
X75984Y-61063D03*
X66614Y-12598D03*
X62638Y-26811D03*
X78386Y-2795D03*
X93150Y-188543D03*
X89567Y-181969D03*
X83425Y-181496D03*
X88583Y-186614D03*
X99213D03*
X98425Y-179528D03*
X84370Y-171457D03*
X83701Y-167362D03*
X83072Y-161736D03*
X91535Y-176024D03*
X86024Y-159055D03*
X88780Y-156102D03*
X91732Y-153150D03*
X83071Y-156299D03*
X86614Y-153543D03*
X89370Y-150591D03*
X84055Y-145472D03*
X86812Y-148154D03*
X83662Y-150713D03*
X80906Y-148031D03*
X98622Y-154567D03*
X94488Y-135433D03*
X85039Y-136024D03*
X87992Y-120866D03*
X90945Y-103543D03*
X85433Y-104724D03*
X96063Y-100197D03*
X91929Y-87205D03*
X99409Y-83071D03*
X97244Y-75394D03*
X93110Y-82874D03*
X89370Y-66929D03*
X89764Y-72638D03*
X96260Y-83268D03*
X95472Y-67913D03*
X99409Y-50984D03*
X89370Y-51378D03*
Y-59252D03*
X95472Y-50591D03*
X97047Y-60433D03*
X81890Y-61063D03*
X92520Y-32677D03*
X99213Y-28740D03*
X87402Y-35433D03*
X91339Y-27165D03*
X87402Y-2874D03*
X107953Y-188976D03*
X117638Y-181378D03*
X105118Y-179134D03*
X103228Y-170591D03*
X103150Y-166929D03*
Y-174016D03*
X112205Y-177165D03*
X115354Y-168110D03*
X118150Y-154961D03*
X116339Y-157126D03*
X118110Y-143701D03*
X115354Y-154331D03*
X105433Y-122441D03*
X107874Y-128976D03*
X111220Y-125039D03*
X114409Y-105039D03*
X109055Y-106102D03*
X113386Y-116142D03*
X99803Y-111457D03*
X112795Y-90945D03*
X102362Y-100197D03*
X106693Y-99606D03*
X113189Y-85827D03*
X112402Y-95472D03*
X118110Y-90945D03*
X116732Y-97244D03*
X106890Y-92756D03*
X111969Y-69449D03*
X117520Y-75787D03*
X102953D03*
X101378Y-67323D03*
X117126Y-64370D03*
X116339Y-46654D03*
X114764Y-52756D03*
X102165Y-56890D03*
X112283Y-34764D03*
X101181Y-35039D03*
X118504Y-28740D03*
X100197Y-43701D03*
X111850Y-20276D03*
X111890Y-14016D03*
X111654Y-27205D03*
X106890Y-9882D03*
X113780Y-3701D03*
X135787Y-187992D03*
X128268Y-188189D03*
X135394Y-182205D03*
X121654Y-188504D03*
X128346Y-166929D03*
X121732Y-158031D03*
X119449Y-146496D03*
X131890Y-146654D03*
X126142Y-150906D03*
X125433Y-146732D03*
X127441Y-141850D03*
X129488Y-130000D03*
X121732Y-140630D03*
X124921Y-135984D03*
X136614Y-110433D03*
X127598Y-88543D03*
X118898Y-85236D03*
X127480Y-77441D03*
X129567Y-74252D03*
X137205Y-82677D03*
X127047Y-81496D03*
X122835Y-68110D03*
X124331Y-74882D03*
X136732Y-73661D03*
X121417Y-48150D03*
X133150Y-50236D03*
X128150Y-46850D03*
X126378Y-54724D03*
X125512Y-60866D03*
X118740Y-35866D03*
X132165Y-27874D03*
X122441Y-33071D03*
X127559Y-32283D03*
X119528Y-22598D03*
X123228Y-17323D03*
X126772Y-24803D03*
X125945Y-3819D03*
X150984Y-189213D03*
X142992Y-182126D03*
X152283Y-182165D03*
X151181Y-166299D03*
X138976Y-165748D03*
X155512Y-173228D03*
X140945Y-172835D03*
X146063Y-110630D03*
X149724Y-107008D03*
X154764Y-105197D03*
X145472Y-107047D03*
X155945Y-99843D03*
X156142Y-86929D03*
X144213Y-92638D03*
X141181Y-90118D03*
X138228Y-96693D03*
X142126Y-96378D03*
X148740Y-94567D03*
Y-88858D03*
X146339Y-89213D03*
X138268Y-77362D03*
X145787Y-73701D03*
X146614Y-83858D03*
X139882Y-65276D03*
X152717Y-66575D03*
X149134Y-78268D03*
X142047Y-76142D03*
X155079Y-64252D03*
X154567Y-51614D03*
X151969Y-55906D03*
X137677Y-26614D03*
X148228Y-4291D03*
X162520Y-188858D03*
X169882Y-188110D03*
X157520D03*
X161850Y-181339D03*
X175197Y-179921D03*
X168819Y-165157D03*
X170512Y-167283D03*
X164370Y-168150D03*
X163346Y-171535D03*
X161614Y-142992D03*
X163110Y-128189D03*
X169213Y-126063D03*
X168661Y-135354D03*
X163189Y-134370D03*
X159134Y-124331D03*
X158307Y-130315D03*
X157559Y-137677D03*
X162402Y-110079D03*
X170118Y-111102D03*
X164646Y-113425D03*
X161181Y-114685D03*
X157087Y-94488D03*
X162402Y-98661D03*
X161102Y-92047D03*
X160315Y-85472D03*
X167874Y-98976D03*
X166496Y-51614D03*
X166417Y-57559D03*
X165945Y-63622D03*
X171378Y-28740D03*
X171260Y-35157D03*
X159528Y-35079D03*
X168819Y-45000D03*
X156811D03*
X175354Y-16969D03*
X170118Y-2559D03*
X157677Y-4055D03*
X183780Y-188976D03*
X179291Y-189331D03*
X188346Y-110000D03*
X193110Y-112126D03*
X188740Y-118110D03*
X175787Y-112598D03*
X185472Y-91614D03*
X185354Y-82717D03*
X176220Y-83150D03*
X176063Y-20787D03*
X186811Y-22047D03*
X175827Y-2520D03*
X182638Y-2362D03*
X199370Y-180354D03*
X213268Y-188425D03*
X213386Y-177559D03*
X212638Y-168661D03*
X212874Y-124094D03*
X211496Y-100827D03*
X198504Y-91457D03*
X198386Y-87008D03*
X208976Y-91693D03*
X209882Y-88701D03*
X198386Y-66811D03*
X198150Y-71929D03*
X207874Y-72126D03*
X207953Y-66929D03*
X198622Y-61299D03*
X206496Y-54213D03*
X198504Y-51260D03*
X198622Y-46654D03*
X208346Y-41339D03*
X198543Y-40945D03*
X198898Y-36850D03*
X208701Y-27520D03*
X208465Y-31654D03*
X198504Y-30984D03*
X198543Y-17362D03*
X209882Y-21850D03*
X209961Y-17598D03*
X198504Y-26614D03*
X212323Y-2559D03*
X223583Y-184173D03*
X215236Y-182638D03*
X223346Y-166811D03*
X223701Y-176024D03*
X214764Y-151772D03*
X224528Y-122323D03*
X223583Y-128740D03*
X224291Y-137362D03*
X214921Y-138465D03*
X214803Y-129409D03*
X223858Y-113583D03*
X213661Y-114803D03*
X214567Y-108504D03*
Y-119961D03*
X224055Y-93858D03*
X217165Y-101299D03*
X223701Y-87283D03*
X223937Y-99409D03*
X214803Y-86535D03*
X214567Y-97047D03*
X222717Y-81890D03*
X214724Y-72953D03*
X214685Y-57402D03*
X224055Y-38937D03*
X223937Y-43150D03*
X214843Y-30630D03*
X214803Y-43622D03*
X214528Y-18937D03*
X214173Y-12205D03*
X218976Y-2992D03*
G54D21*
X59173Y-10728D03*
Y-3445D03*
G54D12*
X13268Y-184882D03*
X23425D03*
X13268Y-164882D03*
Y-174882D03*
X23425Y-164882D03*
Y-174882D03*
X13268Y-154882D03*
Y-144882D03*
X23425Y-154882D03*
Y-144882D03*
X13268Y-104882D03*
Y-114882D03*
X23622Y-104606D03*
Y-114606D03*
X13268Y-84882D03*
Y-94882D03*
X23622Y-94606D03*
Y-84606D03*
X13268Y-64882D03*
Y-74882D03*
X23622Y-74606D03*
X13268Y-54882D03*
X192323Y-175276D03*
X192598Y-165157D03*
Y-155157D03*
Y-145157D03*
Y-135157D03*
X193307Y-98622D03*
Y-79094D03*
Y-69094D03*
Y-48898D03*
Y-38898D03*
Y-28898D03*
Y-18898D03*
X203268Y-184882D03*
Y-164882D03*
Y-174882D03*
Y-144882D03*
Y-154882D03*
Y-134882D03*
Y-124882D03*
Y-88898D03*
Y-98898D03*
Y-68898D03*
Y-78898D03*
Y-48898D03*
Y-58898D03*
Y-28898D03*
Y-38898D03*
Y-18898D03*
G54D30*
X77756Y-92756D03*
X68701D03*
X86811D03*
G54D40*
G01X-10027Y-4267D02*
Y-232010D01*
G02X-10039Y-232039I-42J0D01*
G01X216535Y-236220D02*
X0D01*
G01X633Y-236198D02*
G02X-9987Y-231800I-1397J11646D01*
G01X0Y0D02*
X216535D01*
G01X-9948Y-4188D02*
G02X222Y25I10170J-10170D01*
G01X-10027Y-4267D02*
X-9948Y-4188D01*
G01X228331Y-231827D02*
G02X217712Y-236226I-9223J7247D01*
G01X216535Y0D02*
G02X227155Y-4398I0J-15018D01*
G01X228268Y-5512D01*
Y-231929D01*
G01X217712Y-236226D02*
X216137D01*
G01X218019Y-236220D02*
X216535D01*
G54D31*
X77756Y-69922D03*
G54D13*
X13268Y-134882D03*
X23425D03*
X23622Y-64606D03*
X13268Y-44882D03*
X192323Y-185276D03*
X192598Y-125157D03*
X193307Y-88622D03*
Y-59094D03*
Y-8898D03*
X203268Y-114882D03*
Y-8898D03*
G54D22*
X72244Y-179331D03*
X69416Y-176502D03*
X77683Y-168274D03*
X80512Y-171102D03*
G54D41*
G01X86811Y-85079D02*
X83661Y-81929D01*
X63977D01*
X51921Y-69873D01*
X20520D01*
X18307Y-72087D01*
Y-80945D01*
X14370Y-84882D01*
X13268D01*
G01X12913Y-34409D02*
X12992Y-34488D01*
G01X39801Y-43743D02*
X39567D01*
G01X41496Y-34646D02*
Y-41693D01*
G01D02*
Y-42047D01*
X39801Y-43743D01*
G01X59173Y-10728D02*
X59488Y-11043D01*
Y-31181D01*
X61496Y-33189D01*
X62244D01*
G01X71114Y-164460D02*
X73296D01*
X76052Y-161704D01*
G01X80983Y-165020D02*
X80937D01*
X77683Y-168274D01*
G01X135354Y-132185D02*
Y-154941D01*
X134902Y-155394D01*
G01X132165Y-114724D02*
Y-121496D01*
X135354Y-124685D01*
G01X148583Y-132185D02*
Y-154311D01*
X149665Y-155394D01*
G01X142008Y-132224D02*
Y-137795D01*
X139823Y-139980D01*
Y-155394D01*
G01X142165Y-115079D02*
Y-124567D01*
X142008Y-124724D01*
G01X152165Y-114724D02*
Y-121102D01*
X148583Y-124685D01*
G54D23*
X65551Y-180685D03*
Y-184685D03*
X68701Y-165394D03*
Y-169394D03*
G54D14*
X12992Y-34488D03*
Y-4961D03*
X41496Y-34646D03*
Y-5118D03*
X218976Y-226772D03*
Y-197244D03*
G54D32*
X78543Y-44134D03*
X76575D03*
X74606D03*
Y-27598D03*
X76575D03*
X78543D03*
X82480Y-44134D03*
X80512D03*
Y-27598D03*
X82480D03*
X149016Y-45906D03*
X147047D03*
X145079D03*
X143110D03*
X141142D03*
Y-29370D03*
X143110D03*
X145079D03*
X147047D03*
X149016D03*
G54D42*
G01X86811Y-92756D02*
Y-85079D01*
G01X13268Y-54882D02*
X8740D01*
X6693Y-56929D01*
Y-72874D01*
X8701Y-74882D01*
X13268D01*
G01X25984Y-58110D02*
X16496D01*
X13268Y-54882D01*
G01X26378Y-49843D02*
Y-57717D01*
X25984Y-58110D01*
G01X39567D02*
X25984D01*
G01X39567Y-49843D02*
Y-58110D01*
G01X69094Y-57496D02*
X68480Y-58110D01*
X39567D01*
G01X55551Y-160906D02*
X54331Y-162126D01*
Y-165787D01*
G01X49346Y-147087D02*
Y-151755D01*
X48858Y-152244D01*
G01X63976Y-165000D02*
X68307D01*
X68701Y-165394D01*
G01D02*
X69094Y-165000D01*
X70276D01*
X70815Y-164460D01*
X71114D01*
G01X68701Y-92756D02*
Y-110276D01*
X67324Y-111654D01*
G01X77756Y-100984D02*
Y-107520D01*
X81890Y-111654D01*
X86024D01*
G01X77756Y-92756D02*
Y-100984D01*
G01Y-69922D02*
X75394D01*
X69094Y-63622D01*
Y-57496D01*
G01D02*
Y-39803D01*
X68504Y-39213D01*
G01X94354Y-133504D02*
Y-137441D01*
G01X90197Y-133661D02*
X90354Y-133504D01*
G01X96357Y-105554D02*
X103050D01*
G01X86024Y-111654D02*
X96457D01*
G01X97144Y-86656D02*
X103050D01*
G01X86811Y-92756D02*
X97244D01*
G01X87598Y-16575D02*
Y-11315D01*
X89044Y-9869D01*
X106877D01*
G01X103150Y-92756D02*
X106890D01*
G01X106877Y-9869D02*
X106890Y-9882D01*
G01X106877Y-9869D02*
X142452D01*
X142465Y-9882D01*
X151888D01*
X154134Y-12128D01*
Y-16575D01*
G54D24*
X72172Y-173734D03*
X75000Y-170906D03*
G54D33*
X68406Y-17953D03*
Y-4370D03*
X96555Y-17953D03*
Y-4370D03*
X134941Y-17953D03*
Y-4370D03*
X163091Y-17953D03*
Y-4370D03*
G54D15*
X32480Y-49843D03*
X26378D03*
X39567D03*
X32480Y-43743D03*
X26378D03*
X39567D03*
X45472Y-49843D03*
X62244Y-33189D03*
Y-39289D03*
X45472Y-43743D03*
X64076Y-171100D03*
X63976Y-165000D03*
X81890Y-57520D03*
Y-51420D03*
X75984Y-51417D03*
Y-57517D03*
X68404Y-33113D03*
X68504Y-39213D03*
X96357Y-105554D03*
X96457Y-111654D03*
X97144Y-86656D03*
X97244Y-92756D03*
X103050Y-105554D03*
X103150Y-111654D03*
X103050Y-86656D03*
X103150Y-92756D03*
X135727Y-33703D03*
X135827Y-39803D03*
X148622Y-59291D03*
Y-53191D03*
X143110Y-53189D03*
Y-59289D03*
X155412Y-33703D03*
X155512Y-39803D03*
X209685Y-211181D03*
Y-205081D03*
G54D43*
G01X91535Y-176024D02*
Y-172677D01*
X91732Y-172480D01*
G01X103937Y-154567D02*
X98622D01*
G01D02*
X95612D01*
G01X96457Y-111654D02*
X99606D01*
X99803Y-111457D01*
G01D02*
X100000Y-111654D01*
X103150D01*
G01Y-92756D02*
X97244D01*
G54D16*
X57953Y-203268D03*
X52992Y-193031D03*
X61614Y-192953D03*
G54D34*
X74606Y-13031D03*
X90354D03*
X156890D03*
X141142D03*
G54D25*
X75415Y-159453D03*
X76807Y-160844D03*
X78199Y-162237D03*
X79591Y-163629D03*
X80983Y-165020D03*
X71239Y-155277D03*
X72631Y-156669D03*
X74023Y-158061D03*
X94902Y-151101D03*
X93511Y-149709D03*
X92119Y-148317D03*
X90726Y-146925D03*
X89335Y-145533D03*
X87943Y-144141D03*
X86551Y-142749D03*
X85159Y-141357D03*
G54D44*
G01X13268Y-174882D02*
X5669D01*
X3543Y-172756D01*
Y-123071D01*
X5906Y-120709D01*
X22638D01*
X23622Y-119724D01*
Y-114606D01*
G01X13268Y-184882D02*
X23425D01*
G01X13268Y-164882D02*
X13052Y-165098D01*
X6712D01*
X5315Y-163701D01*
Y-125039D01*
X8268Y-122087D01*
X27559D01*
X28150Y-121496D01*
Y-106142D01*
X26614Y-104606D01*
X23622D01*
G01X23425Y-154882D02*
X23268D01*
X13268Y-164882D01*
G01X23425D02*
X13425Y-174882D01*
X13268D01*
G01X23622Y-84606D02*
Y-84882D01*
X31496Y-92756D01*
Y-124843D01*
X31102Y-125236D01*
X11811D01*
X8465Y-128583D01*
Y-139213D01*
X13268Y-144016D01*
Y-144882D01*
G01X23425Y-134882D02*
X23268D01*
X13268Y-144882D01*
G01X23425D02*
X31850Y-136457D01*
X62598D01*
X74023Y-147881D01*
Y-148317D01*
G01X13268Y-154882D02*
Y-154449D01*
X6890Y-148071D01*
Y-126614D01*
X9843Y-123661D01*
X28740D01*
X29724Y-122677D01*
Y-100630D01*
X23701Y-94606D01*
X23622D01*
G01X23425Y-144882D02*
X23268D01*
X13268Y-154882D01*
G01X33661Y-129764D02*
X18386D01*
X13268Y-134882D01*
G01X23425D02*
X25197Y-133110D01*
X61220D01*
X75035Y-146925D01*
X75415D01*
G01X8780Y-34409D02*
X12913D01*
G01X26378Y-43743D02*
Y-35748D01*
X25394Y-34764D01*
X13268D01*
X12992Y-34488D01*
G01X72631Y-156669D02*
X72307D01*
X71654Y-157323D01*
X70276D01*
X55937Y-142984D01*
X34732D01*
X31890Y-145826D01*
Y-183228D01*
X30236Y-184882D01*
X23425D01*
G01X71239Y-155277D02*
X71565Y-154951D01*
Y-154675D01*
X58874Y-141984D01*
X33488D01*
X30512Y-144961D01*
Y-173504D01*
X29134Y-174882D01*
X23425D01*
G01X71239Y-151101D02*
X60335Y-140197D01*
X32717D01*
X29134Y-143780D01*
Y-163858D01*
X28110Y-164882D01*
X23425D01*
G01Y-154882D02*
X24291D01*
X27559Y-151614D01*
Y-142992D01*
X31929Y-138622D01*
X61544D01*
X72631Y-149709D01*
G01X36299Y-74134D02*
Y-81024D01*
X36417Y-81142D01*
Y-123268D01*
X38189Y-125039D01*
X76772D01*
G01X76807Y-145533D02*
X61037Y-129764D01*
X33661D01*
G01D02*
X33465Y-129567D01*
Y-84094D01*
X23976Y-74606D01*
X23622D01*
G01X124331Y-74882D02*
X119252Y-79961D01*
X66339D01*
X50984Y-64606D01*
X23622D01*
G01X36457Y-43937D02*
X39252D01*
X41496Y-41693D01*
G01X55551Y-160906D02*
X74172D01*
X75415Y-159663D01*
Y-159453D01*
G01X48858Y-152244D02*
X53346Y-156732D01*
X57439D01*
X60194Y-159488D01*
X72638D01*
X74023Y-158103D01*
Y-158061D01*
G01X80276Y-150394D02*
X83071Y-153189D01*
G01X107874Y-128976D02*
X84055D01*
X78543Y-134488D01*
Y-141702D01*
X79591Y-142749D01*
G01X76772Y-125039D02*
X76990Y-125257D01*
Y-142932D01*
X78199Y-144141D01*
G01X111220Y-125039D02*
X76772D01*
G01X78543Y-44134D02*
Y-48858D01*
X75984Y-51417D01*
G01Y-57517D02*
Y-61063D01*
G01X90726Y-159453D02*
Y-159467D01*
X94252Y-162992D01*
X152953D01*
X168425Y-147520D01*
X183661D01*
X187480Y-151338D01*
Y-158936D01*
X188819Y-160276D01*
X217362D01*
X219134Y-162047D01*
Y-197087D01*
X218976Y-197244D01*
G01X192598Y-155157D02*
Y-152953D01*
X185866Y-146220D01*
X168307D01*
X152756Y-161772D01*
X95827D01*
X92119Y-158063D01*
Y-158061D01*
G01X192874Y-144882D02*
X167874D01*
X152362Y-160394D01*
X97235D01*
X93511Y-156669D01*
G01X85669Y-150591D02*
X83071Y-153189D01*
G01X86024Y-156142D02*
X83071Y-153189D01*
G01D02*
X82913Y-153346D01*
G01X154764Y-105197D02*
X130079D01*
X126378Y-108898D01*
Y-123465D01*
X100787Y-149055D01*
X94165D01*
X93511Y-149709D01*
G01X193307Y-59094D02*
X187833D01*
X187638Y-59289D01*
Y-76457D01*
X182616Y-81479D01*
X166632D01*
X165945Y-82166D01*
Y-102640D01*
X165278Y-103307D01*
X130040D01*
X125197Y-108150D01*
Y-122874D01*
X100394Y-147677D01*
X92759D01*
X92119Y-148317D01*
G01X105709Y-150433D02*
X95570D01*
X94902Y-151101D01*
G01X152165Y-80866D02*
X152303Y-81004D01*
Y-84985D01*
X152311Y-84993D01*
Y-85559D01*
X152307Y-85598D01*
X152303Y-85646D01*
Y-99864D01*
X151222Y-100945D01*
X128504D01*
X122835Y-106614D01*
Y-121300D01*
X99410Y-144724D01*
X90144D01*
X89335Y-145533D01*
G01X193307Y-38898D02*
X186258D01*
X186063Y-39093D01*
Y-75079D01*
X180663Y-80479D01*
X165110D01*
X164724Y-80864D01*
Y-101063D01*
X163504Y-102283D01*
X128858D01*
X124016Y-107126D01*
Y-122087D01*
X99803Y-146299D01*
X91352D01*
X90726Y-146925D01*
G01X142047Y-76142D02*
Y-83976D01*
X121654Y-104370D01*
Y-120512D01*
X99016Y-143150D01*
X88934D01*
X87943Y-144141D01*
G01X132165Y-80866D02*
Y-91693D01*
X120472Y-103386D01*
Y-119724D01*
X98425Y-141772D01*
X87528D01*
X86551Y-142749D01*
G01X85159Y-141357D02*
X89075Y-137441D01*
X90354D01*
G01X80512Y-44134D02*
Y-50042D01*
X81890Y-51420D01*
G01Y-57520D02*
Y-61063D01*
G01X80512Y-27598D02*
Y-30394D01*
X81417Y-31299D01*
X83741D01*
X85039Y-30000D01*
Y-16575D01*
G01X82480D02*
Y-27598D01*
G01X145472Y-107047D02*
X145039Y-106614D01*
X130236D01*
X127657Y-109193D01*
Y-124154D01*
X105413Y-146398D01*
Y-150138D01*
X105709Y-150433D01*
G01X203268Y-134882D02*
X199173Y-130787D01*
X179685D01*
X151457Y-159016D01*
X126260D01*
X117677Y-150433D01*
X105709D01*
G01X143110Y-59289D02*
X139924D01*
X124331Y-74882D01*
G01X136732Y-73661D02*
X136732Y-73689D01*
X132196Y-78124D01*
X132165Y-80866D01*
G01X136732Y-73661D02*
X139213Y-71181D01*
X181065D01*
X181260Y-70986D01*
Y-17244D01*
X184291Y-14213D01*
X193307D01*
G01X149724Y-107008D02*
X205591D01*
X208071Y-109488D01*
Y-141969D01*
X205157Y-144882D01*
X203268D01*
G01X162010Y-28858D02*
X163780D01*
X164961Y-30039D01*
Y-41778D01*
X162835Y-43904D01*
Y-65748D01*
X161969Y-66614D01*
X152756D01*
X152717Y-66575D01*
G01X193307Y-28898D02*
X185551D01*
X184449Y-30000D01*
Y-74174D01*
X180709Y-77913D01*
X152244D01*
G01D02*
X149488D01*
X149134Y-78268D01*
G01X152165Y-80866D02*
Y-77992D01*
X152244Y-77913D01*
G01X142047Y-76142D02*
X142126Y-76063D01*
X179606D01*
X183071Y-72598D01*
Y-20039D01*
X184213Y-18898D01*
X193307D01*
G01X142165Y-80866D02*
Y-76260D01*
X142047Y-76142D01*
G01X147047Y-45906D02*
Y-51617D01*
X148622Y-53191D01*
G01X145079Y-45906D02*
Y-51220D01*
X143110Y-53189D01*
G01X159803Y-63504D02*
X155827D01*
X155079Y-64252D01*
G01X156024D02*
X155079D01*
G01X154567Y-51614D02*
X154921Y-51260D01*
X159530D01*
X160002Y-51732D01*
G01X159963Y-57598D02*
Y-57365D01*
X158504Y-55906D01*
X151969D01*
G01X149016Y-16575D02*
Y-29370D01*
G01X151575Y-16575D02*
Y-32716D01*
X150393Y-33898D01*
X147835D01*
X147047Y-33110D01*
Y-29370D01*
G01X166102Y-51732D02*
X166378D01*
X166496Y-51614D01*
G01X166417Y-57559D02*
X166102D01*
X166063Y-57598D01*
G01X165945Y-63622D02*
Y-63546D01*
X165903Y-63504D01*
G01X168110Y-28858D02*
X171260D01*
X171378Y-28740D01*
G01X171811Y-28780D02*
X171772Y-28740D01*
X171378D01*
G01X168071Y-35118D02*
X171220D01*
X171260Y-35157D01*
G01X161971Y-35118D02*
X159567D01*
X159528Y-35079D01*
G01X166181Y-45118D02*
X168701D01*
X168819Y-45000D01*
G01X160081Y-45118D02*
X156929D01*
X156811Y-45000D01*
G01X203268Y-184882D02*
X192717D01*
X192323Y-185276D01*
G01X203268Y-184882D02*
X206890D01*
X207520Y-184252D01*
Y-170787D01*
X206496Y-169764D01*
X194724D01*
X194031Y-169070D01*
X194019Y-169054D01*
X194016Y-169041D01*
Y-168795D01*
X193976Y-168638D01*
Y-166535D01*
X192598Y-165157D01*
G01X203268Y-174882D02*
X192717D01*
X192323Y-175276D01*
G01X192598Y-155157D02*
X202992D01*
X203268Y-154882D01*
G01Y-144882D02*
X192874D01*
G01D02*
X192598Y-145157D01*
G01X193307Y-88622D02*
Y-84882D01*
X193898Y-84291D01*
X210591D01*
X211220Y-83661D01*
Y-25197D01*
X210079Y-24055D01*
X194213D01*
X193307Y-23150D01*
Y-18898D01*
G01Y-98622D02*
Y-94132D01*
X193502Y-93937D01*
X211575D01*
X212402Y-93110D01*
Y-15433D01*
X211181Y-14213D01*
X193307D01*
G01Y-79094D02*
Y-74843D01*
X194094Y-74055D01*
X209370D01*
X210039Y-73386D01*
Y-35118D01*
X208819Y-33898D01*
X193543D01*
X193307Y-33661D01*
Y-28898D01*
G01Y-69094D02*
Y-64528D01*
X193819Y-64016D01*
X207756D01*
X208858Y-62914D01*
Y-45708D01*
X207087Y-43937D01*
X194252D01*
X193307Y-42992D01*
Y-38898D01*
G01Y-14213D02*
Y-8898D01*
G01X209685Y-211181D02*
X218819D01*
X218976Y-211339D01*
G01X209685Y-205081D02*
X211139D01*
X218976Y-197244D01*
G01Y-211339D02*
Y-226772D01*
G01Y-211339D02*
X224567D01*
X226850Y-209055D01*
Y-187087D01*
G01D02*
X226654Y-186890D01*
G54D17*
X61417Y-180748D03*
X50331Y-165787D03*
X54331D03*
X49346Y-147087D03*
X53346D03*
X65417Y-180748D03*
X92457Y-166772D03*
X96457D03*
X90354Y-137441D03*
X94354D03*
X90354Y-133504D03*
X94354D03*
X103937Y-154567D03*
X107937D03*
G54D26*
X83071Y-153189D03*
G54D35*
X77362Y-16575D03*
X79921D03*
X82480D03*
X85039D03*
X87598D03*
X143898D03*
X146457D03*
X149016D03*
X151575D03*
X154134D03*
G54D45*
G01X32480Y-43743D02*
X26378D01*
G01X39567D02*
Y-43935D01*
G01X45472Y-43743D02*
X39801D01*
G01X79591Y-163629D02*
Y-163628D01*
X78199Y-162237D01*
G01D02*
X77667Y-161704D01*
G01D02*
X76807Y-160844D01*
G01X76052Y-161704D02*
X77667D01*
G01X77362Y-19291D02*
Y-22244D01*
X78543Y-23425D01*
Y-27598D01*
G01X68504Y-39213D02*
X76185D01*
G01D02*
X135236D01*
X135827Y-39803D01*
G01X76185Y-39213D02*
X76575Y-39602D01*
Y-44134D01*
G01X68406Y-17953D02*
X69744Y-19291D01*
X77362D01*
G01D02*
Y-16575D01*
G01X87943Y-162237D02*
Y-162257D01*
X92457Y-166772D01*
G01X86551Y-163629D02*
X87342Y-164420D01*
Y-168090D01*
X91732Y-172480D01*
G01X86551Y-163629D02*
X86550D01*
X85159Y-165020D01*
G01X80983Y-141357D02*
Y-140080D01*
X85039Y-136024D01*
G01X95612Y-154567D02*
X94902Y-155277D01*
G01X85039Y-136024D02*
X87835D01*
X90197Y-133661D01*
G01X88386Y-43898D02*
X82717D01*
X82480Y-44134D01*
G01X143110Y-45906D02*
Y-40783D01*
X142130Y-39803D01*
X135827D01*
G01X134941Y-17953D02*
X135492Y-18504D01*
X143898D01*
G01X139882Y-65276D02*
X145315D01*
X148622Y-61969D01*
Y-59291D01*
G01X143898Y-18504D02*
Y-22638D01*
X145079Y-23819D01*
Y-29370D01*
G01X149016Y-45906D02*
Y-45197D01*
X154213Y-40000D01*
X155315D01*
X155512Y-39803D01*
G01X143898Y-18504D02*
Y-16575D01*
G01X193307Y-48898D02*
Y-59094D01*
G54D18*
X55762Y-180354D03*
G54D27*
X76220Y-165394D03*
G54D36*
X97832Y-172380D03*
X91732Y-172480D03*
X94486Y-43798D03*
X88386Y-43898D03*
X166181Y-45118D03*
X160081D03*
X159803Y-63504D03*
X165903D03*
X166063Y-57598D03*
X159963D03*
X166102Y-51732D03*
X160002D03*
X168110Y-28858D03*
X162010D03*
X168071Y-35118D03*
X161971D03*
G54D46*
G01X57953Y-203268D02*
X58031Y-203189D01*
X63386D01*
X65583Y-200992D01*
Y-186742D01*
X65551Y-186710D01*
Y-184685D01*
G01X61417Y-180748D02*
X56156D01*
X55762Y-180354D01*
G01X68504Y-39213D02*
X62320D01*
X62244Y-39289D01*
G01X69416Y-176502D02*
X65417Y-180501D01*
Y-180748D01*
G01X72172Y-173734D02*
Y-173746D01*
X69416Y-176502D01*
G01X77683Y-168274D02*
X77631D01*
X75000Y-170906D01*
G54D19*
X49362Y-186354D03*
Y-174354D03*
G54D28*
X80983Y-141357D03*
X79591Y-142749D03*
X78199Y-144141D03*
X76807Y-145533D03*
X75415Y-146925D03*
X74023Y-148317D03*
X72631Y-149709D03*
X71239Y-151101D03*
X85159Y-165020D03*
X86551Y-163629D03*
X87943Y-162237D03*
X89335Y-160844D03*
X90726Y-159453D03*
X92119Y-158061D03*
X93511Y-156669D03*
X94902Y-155277D03*
G54D37*
G01X61614Y-192953D02*
Y-187638D01*
G01X52992Y-193031D02*
X52953Y-192992D01*
Y-187890D01*
G01D02*
X51417Y-186354D01*
X49362D01*
X134902Y-155394D03*
X149665D03*
X139823D03*
X144744D03*
G54D47*
G01X53762Y-176554D02*
Y-175954D01*
G54D38*
X135354Y-132185D03*
Y-124685D03*
X148583Y-132185D03*
Y-124685D03*
X142008Y-132224D03*
Y-124724D03*
G54D29*
X67324Y-111654D03*
X86024D03*
G54D39*
X132165Y-114724D03*
Y-80866D03*
X142165Y-115079D03*
X152165Y-114724D03*
Y-80866D03*
X142165D03*
M02*
